<svg width="44" height="44" viewBox="0 0 44 44" fill="none" xmlns="http://www.w3.org/2000/svg">
<circle cx="22" cy="22" r="22" fill="#0077B5"/>
<path fill-rule="evenodd" clip-rule="evenodd" d="M10 12.0049C10 10.8976 10.897 10 12.0049 10H31.9951C33.1024 10 34 10.897 34 12.0049V31.9951C34 33.1024 33.103 34 31.9951 34H12.0049C10.8976 34 10 33.103 10 31.9951V12.0049Z" fill="white"/>
<path fill-rule="evenodd" clip-rule="evenodd" d="M10 12.0049C10 10.8976 10.897 10 12.0049 10H31.9951C33.1024 10 34 10.897 34 12.0049V31.9951C34 33.1024 33.103 34 31.9951 34H12.0049C10.8976 34 10 33.103 10 31.9951V12.0049ZM19.5 19.15H22.75V20.783C23.2185 19.844 24.419 19 26.2225 19C29.6795 19 30.5 20.869 30.5 24.2985V30.65H27V25.0795C27 23.1265 26.5315 22.025 25.34 22.025C23.6875 22.025 23 23.2125 23 25.0795V30.65H19.5V19.15ZM13.5 30.5H17V19H13.5V30.5ZM17.5 15.25C17.5 16.4925 16.4925 17.5 15.25 17.5C14.0075 17.5 13 16.4925 13 15.25C13 14.0075 14.0075 13 15.25 13C16.4925 13 17.5 14.0075 17.5 15.25Z" fill="#0077B5"/>
</svg>
