<svg width="229" height="85" fill="none" xmlns="http://www.w3.org/2000/svg"><path d="M12.053 54.643c0 3.353-2.698 6.071-6.027 6.071C2.698 60.714 0 57.996 0 54.643c0-3.353 2.698-6.072 6.026-6.072 3.329 0 6.027 2.719 6.027 6.072zm0 24.286c0 3.353-2.698 6.071-6.027 6.071C2.698 85 0 82.282 0 78.929c0-3.354 2.698-6.072 6.026-6.072 3.329 0 6.027 2.718 6.027 6.072zm96.421-24.286c0 3.353-2.698 6.071-6.027 6.071-3.328 0-6.026-2.718-6.026-6.071 0-3.353 2.698-6.072 6.026-6.072 3.329 0 6.027 2.719 6.027 6.072zm0 24.286c0 3.353-2.698 6.071-6.027 6.071-3.328 0-6.026-2.718-6.026-6.071 0-3.354 2.698-6.072 6.026-6.072 3.329 0 6.027 2.718 6.027 6.072zM36.158 54.643c0 3.353-2.698 6.071-6.026 6.071-3.329 0-6.027-2.718-6.027-6.071 0-3.353 2.698-6.072 6.027-6.072 3.328 0 6.026 2.719 6.026 6.072zm0 24.286c0 3.353-2.698 6.071-6.026 6.071-3.329 0-6.027-2.718-6.027-6.071 0-3.354 2.698-6.072 6.027-6.072 3.328 0 6.026 2.718 6.026 6.072zm96.421-24.286c0 3.353-2.698 6.071-6.026 6.071-3.329 0-6.027-2.718-6.027-6.071 0-3.353 2.698-6.072 6.027-6.072 3.328 0 6.026 2.719 6.026 6.072zm0 24.286c0 3.353-2.698 6.071-6.026 6.071-3.329 0-6.027-2.718-6.027-6.071 0-3.354 2.698-6.072 6.027-6.072 3.328 0 6.026 2.718 6.026 6.072zM60.263 54.643c0 3.353-2.698 6.071-6.026 6.071s-6.026-2.718-6.026-6.071c0-3.353 2.698-6.072 6.026-6.072s6.026 2.719 6.026 6.072zm0 24.286c0 3.353-2.698 6.071-6.026 6.071s-6.026-2.718-6.026-6.071c0-3.354 2.698-6.072 6.026-6.072s6.026 2.718 6.026 6.072zm96.421-24.286c0 3.353-2.698 6.071-6.026 6.071s-6.026-2.718-6.026-6.071c0-3.353 2.698-6.072 6.026-6.072s6.026 2.719 6.026 6.072zm0 24.286c0 3.353-2.698 6.071-6.026 6.071s-6.026-2.718-6.026-6.071c0-3.354 2.698-6.072 6.026-6.072s6.026 2.718 6.026 6.072zM84.368 54.643c0 3.353-2.698 6.071-6.026 6.071s-6.026-2.718-6.026-6.071c0-3.353 2.698-6.072 6.026-6.072s6.026 2.719 6.026 6.072zm0 24.286c0 3.353-2.698 6.071-6.026 6.071s-6.026-2.718-6.026-6.071c0-3.354 2.698-6.072 6.026-6.072s6.026 2.718 6.026 6.072zm96.421-24.286c0 3.353-2.698 6.071-6.026 6.071s-6.026-2.718-6.026-6.071c0-3.353 2.698-6.072 6.026-6.072s6.026 2.719 6.026 6.072zm24.106 0c0 3.353-2.698 6.071-6.027 6.071-3.328 0-6.026-2.718-6.026-6.071 0-3.353 2.698-6.072 6.026-6.072 3.329 0 6.027 2.719 6.027 6.072zm24.105 0c0 3.353-2.698 6.071-6.026 6.071-3.329 0-6.027-2.718-6.027-6.071 0-3.353 2.698-6.072 6.027-6.072 3.328 0 6.026 2.719 6.026 6.072zm-48.211 24.286c0 3.353-2.698 6.071-6.026 6.071s-6.026-2.718-6.026-6.071c0-3.354 2.698-6.072 6.026-6.072s6.026 2.718 6.026 6.072zm24.106 0c0 3.353-2.698 6.071-6.027 6.071-3.328 0-6.026-2.718-6.026-6.071 0-3.354 2.698-6.072 6.026-6.072 3.329 0 6.027 2.718 6.027 6.072zm24.105 0c0 3.353-2.698 6.071-6.026 6.071-3.329 0-6.027-2.718-6.027-6.071 0-3.354 2.698-6.072 6.027-6.072 3.328 0 6.026 2.718 6.026 6.072zM12.053 30.357c0 3.353-2.698 6.072-6.027 6.072C2.698 36.429 0 33.71 0 30.357s2.698-6.071 6.026-6.071c3.329 0 6.027 2.718 6.027 6.071zm96.421 0c0 3.353-2.698 6.072-6.027 6.072-3.328 0-6.026-2.719-6.026-6.072s2.698-6.071 6.026-6.071c3.329 0 6.027 2.718 6.027 6.071zm-72.316 0c0 3.353-2.698 6.072-6.026 6.072-3.329 0-6.027-2.719-6.027-6.072s2.698-6.071 6.027-6.071c3.328 0 6.026 2.718 6.026 6.071zm96.421 0c0 3.353-2.698 6.072-6.026 6.072-3.329 0-6.027-2.719-6.027-6.072s2.698-6.071 6.027-6.071c3.328 0 6.026 2.718 6.026 6.071zm-72.316 0c0 3.353-2.698 6.072-6.026 6.072s-6.026-2.719-6.026-6.072 2.698-6.071 6.026-6.071 6.026 2.718 6.026 6.071zm96.421 0c0 3.353-2.698 6.072-6.026 6.072s-6.026-2.719-6.026-6.072 2.698-6.071 6.026-6.071 6.026 2.718 6.026 6.071zm-72.316 0c0 3.353-2.698 6.072-6.026 6.072s-6.026-2.719-6.026-6.072 2.698-6.071 6.026-6.071 6.026 2.718 6.026 6.071zm96.421 0c0 3.353-2.698 6.072-6.026 6.072s-6.026-2.719-6.026-6.072 2.698-6.071 6.026-6.071 6.026 2.718 6.026 6.071zm24.106 0c0 3.353-2.698 6.072-6.027 6.072-3.328 0-6.026-2.719-6.026-6.072s2.698-6.071 6.026-6.071c3.329 0 6.027 2.718 6.027 6.071zm24.105 0c0 3.353-2.698 6.072-6.026 6.072-3.329 0-6.027-2.719-6.027-6.072s2.698-6.071 6.027-6.071c3.328 0 6.026 2.718 6.026 6.071zM12.053 6.071c0 3.354-2.698 6.072-6.027 6.072C2.698 12.143 0 9.425 0 6.07 0 2.718 2.698 0 6.026 0c3.329 0 6.027 2.718 6.027 6.071zm96.421 0c0 3.354-2.698 6.072-6.027 6.072-3.328 0-6.026-2.718-6.026-6.072C96.421 2.718 99.12 0 102.447 0c3.329 0 6.027 2.718 6.027 6.071zm-72.316 0c0 3.354-2.698 6.072-6.026 6.072-3.329 0-6.027-2.718-6.027-6.072C24.105 2.718 26.803 0 30.132 0c3.328 0 6.026 2.718 6.026 6.071zm96.421 0c0 3.354-2.698 6.072-6.026 6.072-3.329 0-6.027-2.718-6.027-6.072 0-3.353 2.698-6.071 6.027-6.071 3.328 0 6.026 2.718 6.026 6.071zm-72.316 0c0 3.354-2.698 6.072-6.026 6.072S48.21 9.425 48.21 6.07C48.21 2.718 50.909 0 54.237 0s6.026 2.718 6.026 6.071zm96.421 0c0 3.354-2.698 6.072-6.026 6.072s-6.026-2.718-6.026-6.072c0-3.353 2.698-6.071 6.026-6.071s6.026 2.718 6.026 6.071zm-72.316 0c0 3.354-2.698 6.072-6.026 6.072s-6.026-2.718-6.026-6.072C72.316 2.718 75.014 0 78.342 0s6.026 2.718 6.026 6.071zm96.421 0c0 3.354-2.698 6.072-6.026 6.072s-6.026-2.718-6.026-6.072c0-3.353 2.698-6.071 6.026-6.071s6.026 2.718 6.026 6.071zm24.106 0c0 3.354-2.698 6.072-6.027 6.072-3.328 0-6.026-2.718-6.026-6.072 0-3.353 2.698-6.071 6.026-6.071 3.329 0 6.027 2.718 6.027 6.071zm24.105 0c0 3.354-2.698 6.072-6.026 6.072-3.329 0-6.027-2.718-6.027-6.072 0-3.353 2.698-6.071 6.027-6.071C226.302 0 229 2.718 229 6.071z" fill="#05262E" fill-opacity=".05"/></svg>