<svg width="85" height="229" fill="none" xmlns="http://www.w3.org/2000/svg"><path d="M30.357 12.053c-3.353 0-6.071-2.698-6.071-6.027C24.286 2.698 27.004 0 30.357 0c3.353 0 6.072 2.698 6.072 6.026 0 3.329-2.719 6.027-6.072 6.027zm-24.286 0C2.718 12.053 0 9.355 0 6.026 0 2.698 2.718 0 6.071 0c3.354 0 6.072 2.698 6.072 6.026 0 3.329-2.718 6.027-6.072 6.027zm24.286 96.421c-3.353 0-6.071-2.698-6.071-6.027 0-3.328 2.718-6.026 6.071-6.026 3.353 0 6.072 2.698 6.072 6.026 0 3.329-2.719 6.027-6.072 6.027zm-24.286 0c-3.353 0-6.071-2.698-6.071-6.027 0-3.328 2.718-6.026 6.071-6.026 3.354 0 6.072 2.698 6.072 6.026 0 3.329-2.718 6.027-6.072 6.027zm24.286-72.316c-3.353 0-6.071-2.698-6.071-6.026 0-3.329 2.718-6.027 6.071-6.027 3.353 0 6.072 2.698 6.072 6.027 0 3.328-2.719 6.026-6.072 6.026zm-24.286 0C2.718 36.158 0 33.46 0 30.132c0-3.329 2.718-6.027 6.071-6.027 3.354 0 6.072 2.698 6.072 6.027 0 3.328-2.718 6.026-6.072 6.026zm24.286 96.421c-3.353 0-6.071-2.698-6.071-6.026 0-3.329 2.718-6.027 6.071-6.027 3.353 0 6.072 2.698 6.072 6.027 0 3.328-2.719 6.026-6.072 6.026zm-24.286 0c-3.353 0-6.071-2.698-6.071-6.026 0-3.329 2.718-6.027 6.071-6.027 3.354 0 6.072 2.698 6.072 6.027 0 3.328-2.718 6.026-6.072 6.026zm24.286-72.316c-3.353 0-6.071-2.698-6.071-6.026s2.718-6.026 6.071-6.026c3.353 0 6.072 2.698 6.072 6.026s-2.719 6.026-6.072 6.026zm-24.286 0C2.718 60.263 0 57.565 0 54.237s2.718-6.026 6.071-6.026c3.354 0 6.072 2.698 6.072 6.026s-2.718 6.026-6.072 6.026zm24.286 96.421c-3.353 0-6.071-2.698-6.071-6.026s2.718-6.026 6.071-6.026c3.353 0 6.072 2.698 6.072 6.026s-2.719 6.026-6.072 6.026zm-24.286 0c-3.353 0-6.071-2.698-6.071-6.026s2.718-6.026 6.071-6.026c3.354 0 6.072 2.698 6.072 6.026s-2.718 6.026-6.072 6.026zm24.286-72.316c-3.353 0-6.071-2.698-6.071-6.026s2.718-6.026 6.071-6.026c3.353 0 6.072 2.698 6.072 6.026s-2.719 6.026-6.072 6.026zm-24.286 0C2.718 84.368 0 81.67 0 78.342s2.718-6.026 6.071-6.026c3.354 0 6.072 2.698 6.072 6.026s-2.718 6.026-6.072 6.026zm24.286 96.421c-3.353 0-6.071-2.698-6.071-6.026s2.718-6.026 6.071-6.026c3.353 0 6.072 2.698 6.072 6.026s-2.719 6.026-6.072 6.026zm0 24.106c-3.353 0-6.071-2.698-6.071-6.027 0-3.328 2.718-6.026 6.071-6.026 3.353 0 6.072 2.698 6.072 6.026 0 3.329-2.719 6.027-6.072 6.027zm0 24.105c-3.353 0-6.071-2.698-6.071-6.026 0-3.329 2.718-6.027 6.071-6.027 3.353 0 6.072 2.698 6.072 6.027 0 3.328-2.719 6.026-6.072 6.026zM6.071 180.789c-3.353 0-6.071-2.698-6.071-6.026s2.718-6.026 6.071-6.026c3.354 0 6.072 2.698 6.072 6.026s-2.718 6.026-6.072 6.026zm0 24.106c-3.353 0-6.071-2.698-6.071-6.027 0-3.328 2.718-6.026 6.071-6.026 3.354 0 6.072 2.698 6.072 6.026 0 3.329-2.718 6.027-6.072 6.027zm0 24.105C2.718 229 0 226.302 0 222.974c0-3.329 2.718-6.027 6.071-6.027 3.354 0 6.072 2.698 6.072 6.027 0 3.328-2.718 6.026-6.072 6.026zM54.643 12.053c-3.353 0-6.072-2.698-6.072-6.027C48.571 2.698 51.29 0 54.643 0s6.071 2.698 6.071 6.026c0 3.329-2.718 6.027-6.071 6.027zm0 96.421c-3.353 0-6.072-2.698-6.072-6.027 0-3.328 2.719-6.026 6.072-6.026s6.071 2.698 6.071 6.026c0 3.329-2.718 6.027-6.071 6.027zm0-72.316c-3.353 0-6.072-2.698-6.072-6.026 0-3.329 2.719-6.027 6.072-6.027s6.071 2.698 6.071 6.027c0 3.328-2.718 6.026-6.071 6.026zm0 96.421c-3.353 0-6.072-2.698-6.072-6.026 0-3.329 2.719-6.027 6.072-6.027s6.071 2.698 6.071 6.027c0 3.328-2.718 6.026-6.071 6.026zm0-72.316c-3.353 0-6.072-2.698-6.072-6.026s2.719-6.026 6.072-6.026 6.071 2.698 6.071 6.026-2.718 6.026-6.071 6.026zm0 96.421c-3.353 0-6.072-2.698-6.072-6.026s2.719-6.026 6.072-6.026 6.071 2.698 6.071 6.026-2.718 6.026-6.071 6.026zm0-72.316c-3.353 0-6.072-2.698-6.072-6.026s2.719-6.026 6.072-6.026 6.071 2.698 6.071 6.026-2.718 6.026-6.071 6.026zm0 96.421c-3.353 0-6.072-2.698-6.072-6.026s2.719-6.026 6.072-6.026 6.071 2.698 6.071 6.026-2.718 6.026-6.071 6.026zm0 24.106c-3.353 0-6.072-2.698-6.072-6.027 0-3.328 2.719-6.026 6.072-6.026s6.071 2.698 6.071 6.026c0 3.329-2.718 6.027-6.071 6.027zm0 24.105c-3.353 0-6.072-2.698-6.072-6.026 0-3.329 2.719-6.027 6.072-6.027s6.071 2.698 6.071 6.027c0 3.328-2.718 6.026-6.071 6.026zM78.929 12.053c-3.354 0-6.072-2.698-6.072-6.027C72.857 2.698 75.575 0 78.93 0 82.282 0 85 2.698 85 6.026c0 3.329-2.718 6.027-6.071 6.027zm0 96.421c-3.354 0-6.072-2.698-6.072-6.027 0-3.328 2.718-6.026 6.072-6.026 3.353 0 6.071 2.698 6.071 6.026 0 3.329-2.718 6.027-6.071 6.027zm0-72.316c-3.354 0-6.072-2.698-6.072-6.026 0-3.329 2.718-6.027 6.072-6.027 3.353 0 6.071 2.698 6.071 6.027 0 3.328-2.718 6.026-6.071 6.026zm0 96.421c-3.354 0-6.072-2.698-6.072-6.026 0-3.329 2.718-6.027 6.072-6.027 3.353 0 6.071 2.698 6.071 6.027 0 3.328-2.718 6.026-6.071 6.026zm0-72.316c-3.354 0-6.072-2.698-6.072-6.026s2.718-6.026 6.072-6.026c3.353 0 6.071 2.698 6.071 6.026s-2.718 6.026-6.071 6.026zm0 96.421c-3.354 0-6.072-2.698-6.072-6.026s2.718-6.026 6.072-6.026c3.353 0 6.071 2.698 6.071 6.026s-2.718 6.026-6.071 6.026zm0-72.316c-3.354 0-6.072-2.698-6.072-6.026s2.718-6.026 6.072-6.026c3.353 0 6.071 2.698 6.071 6.026s-2.718 6.026-6.071 6.026zm0 96.421c-3.354 0-6.072-2.698-6.072-6.026s2.718-6.026 6.072-6.026c3.353 0 6.071 2.698 6.071 6.026s-2.718 6.026-6.071 6.026zm0 24.106c-3.354 0-6.072-2.698-6.072-6.027 0-3.328 2.718-6.026 6.072-6.026 3.353 0 6.071 2.698 6.071 6.026 0 3.329-2.718 6.027-6.071 6.027zm0 24.105c-3.354 0-6.072-2.698-6.072-6.026 0-3.329 2.718-6.027 6.072-6.027 3.353 0 6.071 2.698 6.071 6.027 0 3.328-2.718 6.026-6.071 6.026z" fill="#05262E" fill-opacity=".05"/></svg>