<svg width="146" height="146" viewBox="0 0 146 146" fill="none" xmlns="http://www.w3.org/2000/svg">
<circle cx="73" cy="73" r="73" fill="#EFF2F4"/>
<circle cx="73" cy="73" r="60" fill="url(#paint0_linear)"/>
<path d="M74.3672 67.8037H69.9162C69.302 67.8037 68.8035 68.3022 68.8035 68.9165V82.2691C68.8035 82.8834 69.302 83.3819 69.9162 83.3819H74.3672C74.9814 83.3819 75.4799 82.8834 75.4799 82.2691V68.9165C75.4799 68.3022 74.9814 67.8037 74.3672 67.8037Z" fill="white"/>
<path d="M65.4654 74.4805H61.0145C60.4003 74.4805 59.9018 74.979 59.9018 75.5932V82.2696C59.9018 82.8838 60.4003 83.3823 61.0145 83.3823H65.4654C66.0797 83.3823 66.5782 82.8838 66.5782 82.2696V75.5932C66.5781 74.979 66.0797 74.4805 65.4654 74.4805Z" fill="white"/>
<path d="M83.2689 61.1274H78.818C78.2038 61.1274 77.7053 61.626 77.7053 62.2402V82.2692C77.7053 82.8834 78.2038 83.382 78.818 83.382H83.2689C83.8832 83.382 84.3817 82.8834 84.3817 82.2692V62.2402C84.3817 61.626 83.8832 61.1274 83.2689 61.1274Z" fill="white"/>
<path d="M100.347 96.2011L90.475 86.3286C93.6174 82.4919 95.5089 77.5915 95.5089 72.2549C95.5089 59.9838 85.5256 50.0005 73.2545 50.0005C60.9834 50.0005 51 59.9838 51 72.2549C51 84.526 60.9833 94.5093 73.2544 94.5093C78.591 94.5093 83.4914 92.6177 87.3281 89.4754L97.2006 99.3478C97.6345 99.7818 98.2042 99.9999 98.774 99.9999C99.3438 99.9999 99.9135 99.7818 100.347 99.3478C101.218 98.4777 101.218 97.0712 100.347 96.2011ZM73.2544 90.0585C63.438 90.0585 55.4508 82.0714 55.4508 72.2549C55.4508 62.4384 63.438 54.4513 73.2544 54.4513C83.0708 54.4513 91.058 62.4385 91.058 72.2549C91.058 82.0713 83.0709 90.0585 73.2544 90.0585Z" fill="white"/>
<defs>
<linearGradient id="paint0_linear" x1="40.5" y1="21.5" x2="96.5" y2="128" gradientUnits="userSpaceOnUse">
<stop stop-color="#56CFEB"/>
<stop offset="1" stop-color="#16A0C0"/>
</linearGradient>
</defs>
</svg>
