<svg width="450" height="439" viewBox="0 0 450 439" fill="none" xmlns="http://www.w3.org/2000/svg">
<g clip-path="url(#clip0)">
<path d="M399.522 339.555L399.611 329.218L270.725 297.954L46.2969 372.911V383.677C46.2874 384.195 46.4619 384.699 46.7895 385.101C47.1823 385.561 47.6932 385.905 48.2672 386.097L174.437 438.073C175.469 438.474 176.546 438.749 177.645 438.892C180.097 439.241 182.59 439.177 185.021 438.703C186.133 438.496 187.218 438.162 188.254 437.707L398.019 342.076C398.455 341.923 398.828 341.631 399.08 341.244C399.425 340.752 399.581 340.153 399.522 339.555Z" fill="white"/>
<path opacity="0.2" d="M399.08 341.269C399.422 340.78 399.578 340.186 399.522 339.593L399.611 329.256L270.725 297.954L183.884 326.949V438.842C184.263 438.842 184.654 438.741 185.021 438.665C186.133 438.458 187.218 438.124 188.254 437.669L398.019 342.076C398.452 341.93 398.824 341.646 399.08 341.269Z" fill="black"/>
<path opacity="0.2" d="M180.411 439.308V421.949H176.016V438.766C177.442 439.18 178.926 439.363 180.411 439.308V439.308Z" fill="black"/>
<path d="M399.522 339.555L399.611 329.218L270.725 297.954L46.2969 372.911V383.677C46.2874 384.195 46.4619 384.699 46.7895 385.101C47.1823 385.561 47.6932 385.905 48.2672 386.097L174.437 438.073C175.469 438.474 176.546 438.749 177.645 438.892C180.097 439.241 182.59 439.177 185.021 438.703C186.133 438.496 187.218 438.162 188.254 437.707L398.019 342.076C398.455 341.923 398.828 341.631 399.08 341.244C399.425 340.752 399.581 340.153 399.522 339.555Z" stroke="#263238" stroke-miterlimit="10"/>
<path d="M333.583 316.372L317.076 312.199C316.832 312.136 316.583 312.094 316.331 312.073C316.066 312.073 315.788 312.073 315.523 312.073C315.269 312.081 315.016 312.102 314.765 312.136C314.555 312.169 314.348 312.22 314.146 312.288C314.006 312.33 313.88 312.408 313.78 312.515C313.76 312.551 313.75 312.593 313.75 312.634C313.75 312.676 313.76 312.717 313.78 312.754C313.839 312.861 313.933 312.945 314.045 312.994C314.219 313.088 314.406 313.156 314.601 313.195L331.108 317.406C331.362 317.462 331.619 317.504 331.878 317.532H332.699C332.957 317.52 333.214 317.495 333.469 317.456C333.68 317.427 333.888 317.376 334.088 317.305C334.222 317.257 334.343 317.179 334.442 317.078C334.465 317.04 334.478 316.997 334.478 316.952C334.478 316.907 334.465 316.864 334.442 316.826C334.375 316.718 334.278 316.63 334.164 316.574C333.982 316.487 333.792 316.419 333.596 316.372" fill="white"/>
<path d="M381.942 330.605L354.094 323.52H349.534C349.029 323.52 348.537 323.52 348.044 323.52C347.551 323.52 347.059 323.457 346.592 323.394C346.124 323.331 345.644 323.268 345.19 323.192C344.735 323.116 344.318 323.016 343.927 322.915L295.366 310.472L294.381 310.17C294.078 310.056 293.812 309.943 293.572 309.829C293.361 309.719 293.158 309.593 292.966 309.451C292.821 309.341 292.693 309.209 292.587 309.06L291.615 307.649L266.684 301.345L76.8228 366.658L196.653 412.457L381.942 330.605Z" fill="#19B2D6" stroke="white" stroke-width="3" stroke-miterlimit="10"/>
<path d="M399.977 328.373C399.665 327.991 399.267 327.689 398.815 327.491C398.127 327.156 397.402 326.902 396.655 326.734L275.045 296.479C274.28 296.296 273.504 296.165 272.721 296.089C271.881 296.015 271.038 295.986 270.195 296C269.375 296.01 268.557 296.074 267.745 296.19C267.042 296.284 266.349 296.44 265.674 296.656L49.2017 369.949C48.4029 370.202 47.6423 370.562 46.941 371.02C46.4658 371.295 46.0866 371.708 45.8549 372.205C45.7736 372.394 45.7448 372.602 45.7714 372.806C45.7981 373.01 45.8793 373.203 46.0064 373.365C46.392 373.83 46.8991 374.179 47.4715 374.373L174.45 425.693C175.481 426.1 176.559 426.379 177.658 426.525C180.11 426.874 182.603 426.81 185.033 426.336C186.146 426.13 187.231 425.795 188.267 425.34L399.017 330.088C399.455 329.926 399.831 329.631 400.091 329.243C400.152 329.101 400.174 328.946 400.154 328.793C400.134 328.639 400.073 328.495 399.977 328.373ZM196.64 412.457L76.8227 366.658L266.671 301.245L291.602 307.548L292.575 308.96C292.681 309.108 292.808 309.24 292.954 309.35C293.145 309.492 293.348 309.619 293.56 309.729C293.8 309.842 294.065 309.955 294.368 310.069L295.353 310.372L343.889 322.864C344.293 322.965 344.722 323.066 345.152 323.142C345.581 323.217 346.074 323.293 346.554 323.343C347.034 323.394 347.514 323.444 348.006 323.469C348.499 323.495 348.991 323.469 349.496 323.469H354.056L381.904 330.554L196.64 412.457ZM313.767 312.477C313.867 312.37 313.994 312.292 314.133 312.25C314.335 312.182 314.542 312.131 314.752 312.099C315.004 312.064 315.257 312.043 315.51 312.036C315.775 312.036 316.053 312.036 316.318 312.036C316.57 312.056 316.819 312.098 317.064 312.162L333.57 316.334C333.766 316.382 333.957 316.449 334.139 316.536C334.253 316.592 334.349 316.68 334.417 316.788C334.44 316.826 334.453 316.87 334.453 316.914C334.453 316.959 334.44 317.002 334.417 317.04C334.317 317.141 334.196 317.219 334.063 317.267C333.862 317.338 333.655 317.389 333.444 317.418C333.189 317.457 332.932 317.483 332.674 317.494H331.853C331.594 317.466 331.337 317.424 331.082 317.368L314.575 313.157C314.381 313.118 314.194 313.05 314.02 312.956C313.907 312.907 313.814 312.823 313.755 312.716C313.738 312.677 313.732 312.635 313.737 312.593C313.741 312.551 313.756 312.511 313.78 312.477H313.767ZM130.031 392.073C129.735 392.31 129.403 392.497 129.046 392.627C128.584 392.799 128.106 392.926 127.619 393.005C127.098 393.104 126.57 393.159 126.04 393.169C125.526 393.183 125.01 393.158 124.5 393.094C124.068 393.03 123.644 392.92 123.237 392.766C122.928 392.655 122.648 392.479 122.416 392.249C122.341 392.171 122.284 392.077 122.249 391.975C122.214 391.873 122.202 391.764 122.214 391.657C122.276 391.412 122.424 391.197 122.63 391.051C122.923 390.81 123.257 390.622 123.615 390.497C124.078 390.325 124.556 390.198 125.043 390.119C125.56 390.03 126.084 389.979 126.609 389.967C127.119 389.954 127.63 389.979 128.137 390.043C128.568 390.103 128.991 390.209 129.4 390.358C129.708 390.462 129.989 390.634 130.221 390.862C130.302 390.937 130.364 391.029 130.401 391.132C130.438 391.236 130.45 391.346 130.435 391.455C130.381 391.703 130.238 391.923 130.031 392.073V392.073Z" fill="#263238"/>
<path d="M129.387 390.358C128.979 390.209 128.555 390.103 128.124 390.043C127.618 389.979 127.107 389.954 126.596 389.967C126.071 389.979 125.548 390.029 125.03 390.118C124.543 390.198 124.065 390.325 123.603 390.497C123.244 390.622 122.911 390.81 122.618 391.051C122.411 391.197 122.263 391.412 122.201 391.656C122.189 391.764 122.202 391.873 122.237 391.975C122.271 392.077 122.328 392.171 122.403 392.249C122.636 392.479 122.916 392.655 123.224 392.766C123.632 392.92 124.055 393.03 124.487 393.094C124.998 393.158 125.513 393.183 126.028 393.169C126.558 393.159 127.086 393.104 127.606 393.005C128.093 392.926 128.571 392.799 129.034 392.627C129.39 392.497 129.723 392.309 130.019 392.072C130.22 391.921 130.359 391.701 130.41 391.455C130.425 391.346 130.413 391.235 130.376 391.132C130.338 391.029 130.277 390.936 130.196 390.862C129.964 390.634 129.683 390.461 129.375 390.358" fill="white"/>
<path d="M87.2421 335.697L90.8542 341.799" stroke="#263238" stroke-miterlimit="10"/>
<path d="M34.1724 246.105L83.1627 328.802" stroke="#263238" stroke-miterlimit="10"/>
<path d="M128.68 318.024L130.739 322.94" stroke="#263238" stroke-miterlimit="10"/>
<path d="M114.648 284.516L126.381 312.527" stroke="#263238" stroke-miterlimit="10"/>
<path d="M359.196 241.466L333.381 304.774" stroke="#263238" stroke-miterlimit="10"/>
<path d="M365.574 225.847L362.379 233.65" stroke="#263238" stroke-miterlimit="10"/>
<path d="M379.896 303.476L374.263 309.666" stroke="#263238" stroke-miterlimit="10"/>
<path d="M416.244 263.565L385.529 297.286" stroke="#263238" stroke-miterlimit="10"/>
<path d="M106.25 326.432L127.24 366.936" stroke="#263238" stroke-miterlimit="10"/>
<path d="M363.768 301.282L340.668 332.71" stroke="#263238" stroke-miterlimit="10"/>
<path d="M216.115 301.282L221.71 329.218" stroke="#263238" stroke-miterlimit="10"/>
<path d="M114.636 49.2965C122.225 49.2965 128.377 43.1558 128.377 35.5809C128.377 28.006 122.225 21.8653 114.636 21.8653C107.047 21.8653 100.895 28.006 100.895 35.5809C100.895 43.1558 107.047 49.2965 114.636 49.2965Z" fill="white" stroke="white" stroke-width="0.5" stroke-miterlimit="10"/>
<path d="M119.195 34.648H110.241C109.4 34.648 108.594 34.9814 107.999 35.5748C107.405 36.1682 107.071 36.973 107.071 37.8122V45.3759C109.261 47.0787 111.962 47.9939 114.738 47.9733C117.514 47.9527 120.201 46.9975 122.365 45.2625V37.8752C122.374 37.4544 122.298 37.0362 122.142 36.645C121.987 36.2538 121.755 35.8975 121.459 35.597C121.164 35.2964 120.812 35.0577 120.423 34.8948C120.034 34.7318 119.617 34.6479 119.195 34.648V34.648Z" fill="#19B2D6"/>
<path d="M114.56 33.274C117.078 33.274 119.119 31.2365 119.119 28.7231C119.119 26.2097 117.078 24.1723 114.56 24.1723C112.042 24.1723 110.001 26.2097 110.001 28.7231C110.001 31.2365 112.042 33.274 114.56 33.274Z" fill="#19B2D6"/>
<path d="M153.348 285.397C156.109 278.342 152.618 270.387 145.549 267.631C138.48 264.874 130.511 268.359 127.75 275.415C124.988 282.47 128.48 290.425 135.548 293.181C142.617 295.938 150.586 292.453 153.348 285.397Z" fill="white" stroke="white" stroke-width="0.5" stroke-miterlimit="10"/>
<path d="M145.111 279.486H136.144C135.307 279.486 134.504 279.818 133.911 280.409C133.319 281 132.987 281.802 132.987 282.638V290.139C135.174 291.84 137.874 292.755 140.647 292.734C143.421 292.714 146.106 291.759 148.269 290.025V282.638C148.269 281.802 147.936 281 147.344 280.409C146.752 279.818 145.949 279.486 145.111 279.486Z" fill="#19B2D6"/>
<path d="M140.476 278.1C141.378 278.1 142.259 277.833 143.009 277.333C143.759 276.833 144.343 276.122 144.688 275.29C145.034 274.459 145.124 273.544 144.948 272.661C144.772 271.778 144.338 270.967 143.7 270.331C143.062 269.694 142.25 269.261 141.366 269.085C140.481 268.91 139.565 269 138.731 269.344C137.898 269.689 137.186 270.272 136.685 271.02C136.184 271.769 135.917 272.649 135.917 273.549C135.917 274.146 136.035 274.738 136.264 275.29C136.493 275.842 136.829 276.344 137.252 276.767C137.676 277.189 138.178 277.524 138.731 277.753C139.285 277.982 139.877 278.1 140.476 278.1V278.1Z" fill="#19B2D6"/>
<path d="M320.006 243.125C373.604 189.626 373.604 102.888 320.006 49.3891C266.408 -4.10956 179.509 -4.10955 125.911 49.3891C72.3128 102.888 72.3128 189.626 125.911 243.125C179.509 296.624 266.408 296.624 320.006 243.125Z" fill="white"/>
<path opacity="0.18" d="M320.006 243.125C373.604 189.626 373.604 102.888 320.006 49.3891C266.408 -4.10956 179.509 -4.10955 125.911 49.3891C72.3128 102.888 72.3128 189.626 125.911 243.125C179.509 296.624 266.408 296.624 320.006 243.125Z" fill="black"/>
<path opacity="0.86" d="M222.96 204.782C193.418 204.779 164.664 195.266 140.969 177.654C117.275 160.042 99.9033 135.271 91.4353 107.02C85.3279 127.467 84.0897 149.055 87.8195 170.064C91.5493 191.073 100.144 210.922 112.918 228.029C125.693 245.137 142.294 259.029 161.399 268.599C180.504 278.169 201.584 283.153 222.96 283.153C244.336 283.153 265.417 278.169 284.521 268.599C303.626 259.029 320.228 245.137 333.002 228.029C345.777 210.922 354.371 191.073 358.101 170.064C361.831 149.055 360.593 127.467 354.485 107.02C346.016 135.27 328.644 160.04 304.95 177.651C281.255 195.263 252.502 204.777 222.96 204.782V204.782Z" fill="white"/>
<path d="M218.022 82.8417L231.056 88.6909L234.63 94.5402L240.503 96.822L241.147 102.999L238.874 106.579L234.314 107.55L224.539 103.642V102.381L230.071 100.112L228.113 93.2796L219.272 90.0272L215.37 84.8334L218.022 82.8417ZM300.115 233.045L289.695 228.822L276.952 224.271H266.848L257.439 222.317L247.007 224.599L241.147 224.914H237.56L230.727 228.822L224.211 231.419L215.37 225.897L217.643 216.795L212.111 214.514H205.594L204.622 211.589L205.266 205.74L202.993 202.487L198.433 203.13L197.171 206.383L191.639 206.71L186.751 200.886L184.756 193.058L189.643 183.956L199.09 184.599L201.692 186.881H205.607L210.495 183.956L214.726 185.217L220.586 195.302L222.872 194.987L222.215 187.499L220.27 183.603L220.914 177.426L232.963 172.22L234.592 160.193L239.808 155.97L244.039 148.495L247.298 147.839L254.787 142.961L255.115 140.364L249.899 140.692L248.927 138.082H245.378L239.846 139.343L242.448 135.12L253.814 131.867L256.416 128.943L260.975 136.09L263.918 139.028L268.477 137.767L266.52 133.544L259.675 128.665L251.857 119.841L243.711 114.307L235.893 113.046L231.99 109.151L226.774 107.89L226.13 109.151L225.474 118.58L226.736 121.833L223.907 132.258L217.391 127.052L218.376 122.501L211.53 119.248L208.6 115.681L210.23 107.55L219.677 100.717L220.333 92.914L216.746 93.2418L214.46 90.3171L213.488 85.4385L211.202 85.1108L209.939 90.3171L206.365 90.9727L204.736 79.6271L202.121 78.0009L197.562 76.0469L192.333 78.606L198.838 84.7956L200.101 90.3171L188.38 81.4928L180.234 72.6684L179.59 63.8441L171.116 61.2472L164.548 65.6089C162.969 66.5658 161.337 67.4328 159.661 68.2058C157.089 68.8176 154.476 69.239 151.843 69.4664L150.58 75.0006L143.09 75.3283L143.747 78.8959L155.796 80.8499L161.984 87.6824V99.028L158.398 109.113L159.054 119.841L149.936 135.775L147.978 159.5L150.908 173.165L155.139 183.565L160.027 184.221L158.398 179.015L155.796 175.107L154.167 167.959L157.097 167.303L161.656 179.015L164.927 189.541V198L171.116 205.475L182.23 213.493L199.166 218.043L204.382 222.922L208.285 228.116L214.145 231.696L221.318 233.65L228.479 233.322C228.479 233.322 228.151 236.575 228.151 238.201C228.151 239.827 223.592 245.349 223.592 245.349L220.018 251.853L222.619 259.001L229.78 261.938L239.884 272.339L244.443 274.292V279.158L245.012 281.44C270.351 277.35 294.025 266.223 313.325 249.332L313.502 246.975L322.343 231.041L318.112 228.116L300.115 233.045ZM334 104.625L330.413 98.4482L325.854 91.2878L324.591 81.5432L330.451 82.5139L330.779 79.2615L326.536 78.9337L330.123 77.3075L334.038 75.0384V71.786L330.123 66.5796L329.289 59.5832C310.349 36.4569 284.362 20.1364 255.278 13.103C226.194 6.06957 195.604 8.70807 168.16 20.6173L175.675 25.9245L171.116 31.7864L164.927 33.047L164.27 41.8714L161.669 42.8421L158.41 46.4223L158.739 52.2715L164.27 52.9271L162.022 58.436H167.554L177.001 46.4096L177.986 41.2159L187.105 40.5604L189.378 36.6524L198.825 35.6817L199.81 30.1602L206.643 29.8325C206.643 29.8325 211.53 27.2356 212.516 27.2356C214.396 27.6401 216.245 28.1794 218.047 28.8492L222.935 32.7571H229.768L235.64 29.1769L243.13 29.8325C244.208 30.5318 245.437 30.964 246.717 31.0931C248.346 31.0931 253.221 28.8113 253.221 28.8113L262.668 34.6732L266.583 37.5979V42.4765L271.471 43.1194L273.1 40.1948L277.331 42.1487L277.002 44.7456L267.227 47.3551L272.771 54.5028L284.492 61.0077L289.379 67.5125L296.553 68.1554L298.182 64.903L300.784 64.2601L292.31 57.7553L287.056 57.1754L291.287 55.9147L287.371 50.3932L292.916 50.0655L300.077 53.9608L301.706 61.764L305.293 65.9997L308.223 75.4292L315.384 80.623V91.3509L322.886 96.2295L322.557 99.8096L321.572 104.033L323.53 109.882L324.187 112.819L329.718 113.79L332.333 108.256L334 104.625ZM338.231 71.849V73.7147L336.602 78.9085L337.574 83.4594L341.161 84.72V90.897L337.246 89.2708L336.311 106.894L332.409 114.055L335.01 123.156L339.241 127.052V144.612L343.472 158.265L348.044 168.677L355.533 170.619L358.135 164.114L359.196 163.295C359.901 157.645 360.255 151.957 360.257 146.264C360.283 119.86 352.627 94.0172 338.218 71.8742L338.231 71.849ZM262.971 69.7816L241.501 60.3521L232.054 60.6799L229.768 66.8569L225.865 62.6339L218.704 64.2601L218.047 74.988L223.907 79.2111L228.138 73.034L233.026 77.9126L243.13 86.737L245.087 96.1664L253.549 106.894L267.227 104.625L266.911 99.7466L263.981 94.2125L263.325 81.2155L266.583 75.6813L262.971 69.7816ZM280.564 76.9419L275.676 75.6813L271.445 79.2615L273.719 88.6909H277.962L280.564 76.9419ZM310.875 83.119L299.786 77.3453L297.5 73.45L294.899 74.4207L297.172 80.9255L299.13 89.3843L304.017 91.3256L304.99 90.065L302.06 85.1864L310.534 88.4388L310.875 83.119ZM215.761 200.483L214.498 201.744L224.274 204.668L228.176 209.219L234.377 209.875L236.651 206.294L229.161 205.034L215.761 200.483ZM244.809 206.66L237.964 208.614L238.949 211.211H247.411L249.04 208.614L246.11 208.942L244.809 206.66Z" fill="#19B2D6"/>
<path opacity="0.65" d="M222.96 204.782C193.418 204.779 164.664 195.266 140.969 177.654C117.275 160.042 99.9033 135.271 91.4353 107.02C85.3279 127.467 84.0897 149.055 87.8195 170.064C91.5493 191.073 100.144 210.922 112.918 228.029C125.693 245.137 142.294 259.029 161.399 268.599C180.504 278.169 201.584 283.153 222.96 283.153C244.336 283.153 265.417 278.169 284.521 268.599C303.626 259.029 320.228 245.137 333.002 228.029C345.777 210.922 354.371 191.073 358.101 170.064C361.831 149.055 360.593 127.467 354.485 107.02C346.016 135.27 328.644 160.04 304.95 177.651C281.255 195.263 252.502 204.777 222.96 204.782V204.782Z" fill="white"/>
<path d="M218.022 82.8417L231.056 88.6909L234.63 94.5402L240.503 96.822L241.147 102.999L238.874 106.579L234.314 107.55L224.539 103.642V102.381L230.071 100.112L228.113 93.2796L219.272 90.0272L215.37 84.8334L218.022 82.8417ZM300.115 233.045L289.695 228.822L276.952 224.271H266.848L257.439 222.317L247.007 224.599L241.147 224.914H237.56L230.727 228.822L224.211 231.419L215.37 225.897L217.643 216.795L212.111 214.514H205.594L204.622 211.589L205.266 205.74L202.993 202.487L198.433 203.13L197.171 206.383L191.639 206.71L186.751 200.886L184.756 193.058L189.643 183.956L199.09 184.599L201.692 186.881H205.607L210.495 183.956L214.726 185.217L220.586 195.302L222.872 194.987L222.215 187.499L220.27 183.603L220.914 177.426L232.963 172.22L234.592 160.193L239.808 155.97L244.039 148.495L247.298 147.839L254.787 142.961L255.115 140.364L249.899 140.692L248.927 138.082H245.378L239.846 139.343L242.448 135.12L253.814 131.867L256.416 128.943L260.975 136.09L263.918 139.028L268.477 137.767L266.52 133.544L259.675 128.665L251.857 119.841L243.711 114.307L235.893 113.046L231.99 109.151L226.774 107.89L226.13 109.151L225.474 118.58L226.736 121.833L223.907 132.258L217.391 127.052L218.376 122.501L211.53 119.248L208.6 115.681L210.23 107.55L219.677 100.717L220.333 92.914L216.746 93.2418L214.46 90.3171L213.488 85.4385L211.202 85.1108L209.939 90.3171L206.365 90.9727L204.736 79.6271L202.121 78.0009L197.562 76.0469L192.333 78.606L198.838 84.7956L200.101 90.3171L188.38 81.4928L180.234 72.6684L179.59 63.8441L171.116 61.2472L164.548 65.6089C162.969 66.5658 161.337 67.4328 159.661 68.2058C157.089 68.8176 154.476 69.239 151.843 69.4664L150.58 75.0006L143.09 75.3283L143.747 78.8959L155.796 80.8499L161.984 87.6824V99.028L158.398 109.113L159.054 119.841L149.936 135.775L147.978 159.5L150.908 173.165L155.139 183.565L160.027 184.221L158.398 179.015L155.796 175.107L154.167 167.959L157.097 167.303L161.656 179.015L164.927 189.541V198L171.116 205.475L182.23 213.493L199.166 218.043L204.382 222.922L208.285 228.116L214.145 231.696L221.318 233.65L228.479 233.322C228.479 233.322 228.151 236.575 228.151 238.201C228.151 239.827 223.592 245.349 223.592 245.349L220.018 251.853L222.619 259.001L229.78 261.938L239.884 272.339L244.443 274.292V279.158L245.012 281.44C270.351 277.35 294.025 266.223 313.325 249.332L313.502 246.975L322.343 231.041L318.112 228.116L300.115 233.045ZM334 104.625L330.413 98.4482L325.854 91.2878L324.591 81.5432L330.451 82.5139L330.779 79.2615L326.536 78.9337L330.123 77.3075L334.038 75.0384V71.786L330.123 66.5796L329.289 59.5832C310.349 36.4569 284.362 20.1364 255.278 13.103C226.194 6.06957 195.604 8.70807 168.16 20.6173L175.675 25.9245L171.116 31.7864L164.927 33.047L164.27 41.8714L161.669 42.8421L158.41 46.4223L158.739 52.2715L164.27 52.9271L162.022 58.436H167.554L177.001 46.4096L177.986 41.2159L187.105 40.5604L189.378 36.6524L198.825 35.6817L199.81 30.1602L206.643 29.8325C206.643 29.8325 211.53 27.2356 212.516 27.2356C214.396 27.6401 216.245 28.1794 218.047 28.8492L222.935 32.7571H229.768L235.64 29.1769L243.13 29.8325C244.208 30.5318 245.437 30.964 246.717 31.0931C248.346 31.0931 253.221 28.8113 253.221 28.8113L262.668 34.6732L266.583 37.5979V42.4765L271.471 43.1194L273.1 40.1948L277.331 42.1487L277.002 44.7456L267.227 47.3551L272.771 54.5028L284.492 61.0077L289.379 67.5125L296.553 68.1554L298.182 64.903L300.784 64.2601L292.31 57.7553L287.056 57.1754L291.287 55.9147L287.371 50.3932L292.916 50.0655L300.077 53.9608L301.706 61.764L305.293 65.9997L308.223 75.4292L315.384 80.623V91.3509L322.886 96.2295L322.557 99.8096L321.572 104.033L323.53 109.882L324.187 112.819L329.718 113.79L332.333 108.256L334 104.625ZM338.231 71.849V73.7147L336.602 78.9085L337.574 83.4594L341.161 84.72V90.897L337.246 89.2708L336.311 106.894L332.409 114.055L335.01 123.156L339.241 127.052V144.612L343.472 158.265L348.044 168.677L355.533 170.619L358.135 164.114L359.196 163.295C359.901 157.645 360.255 151.957 360.257 146.264C360.283 119.86 352.627 94.0172 338.218 71.8742L338.231 71.849ZM262.971 69.7816L241.501 60.3521L232.054 60.6799L229.768 66.8569L225.865 62.6339L218.704 64.2601L218.047 74.988L223.907 79.2111L228.138 73.034L233.026 77.9126L243.13 86.737L245.087 96.1664L253.549 106.894L267.227 104.625L266.911 99.7466L263.981 94.2125L263.325 81.2155L266.583 75.6813L262.971 69.7816ZM280.564 76.9419L275.676 75.6813L271.445 79.2615L273.719 88.6909H277.962L280.564 76.9419ZM310.875 83.119L299.786 77.3453L297.5 73.45L294.899 74.4207L297.172 80.9255L299.13 89.3843L304.017 91.3256L304.99 90.065L302.06 85.1864L310.534 88.4388L310.875 83.119ZM215.761 200.483L214.498 201.744L224.274 204.668L228.176 209.219L234.377 209.875L236.651 206.294L229.161 205.034L215.761 200.483ZM244.809 206.66L237.964 208.614L238.949 211.211H247.411L249.04 208.614L246.11 208.942L244.809 206.66Z" stroke="#263238" stroke-miterlimit="10"/>
<path d="M320.006 243.125C373.604 189.626 373.604 102.888 320.006 49.3891C266.408 -4.10956 179.509 -4.10955 125.911 49.3891C72.3128 102.888 72.3128 189.626 125.911 243.125C179.509 296.624 266.408 296.624 320.006 243.125Z" stroke="#263238" stroke-miterlimit="10"/>
<path d="M394.893 90.3524C402.384 89.1348 407.467 82.0869 406.247 74.6105C405.027 67.1341 397.966 62.0603 390.476 63.2779C382.986 64.4955 377.902 71.5434 379.122 79.0198C380.342 86.4962 387.403 91.57 394.893 90.3524Z" fill="white" stroke="white" stroke-width="0.5" stroke-miterlimit="10"/>
<path d="M397.236 75.8956H388.269C387.854 75.8956 387.442 75.9775 387.058 76.1367C386.674 76.2959 386.326 76.5292 386.032 76.8231C385.739 77.1171 385.507 77.466 385.349 77.8499C385.191 78.2337 385.11 78.6448 385.112 79.0598V86.5605C387.3 88.2623 389.999 89.1769 392.773 89.1563C395.546 89.1357 398.232 88.1811 400.394 86.447V79.0598C400.395 78.6448 400.315 78.2337 400.157 77.8499C399.999 77.466 399.767 77.1171 399.474 76.8231C399.18 76.5292 398.832 76.2959 398.448 76.1367C398.064 75.9775 397.652 75.8956 397.236 75.8956V75.8956Z" fill="#19B2D6"/>
<path d="M397.236 75.8956H388.269C387.854 75.8956 387.442 75.9775 387.058 76.1367C386.674 76.2959 386.326 76.5292 386.032 76.8231C385.739 77.1171 385.507 77.466 385.349 77.8499C385.191 78.2337 385.11 78.6448 385.112 79.0598V86.5605C387.3 88.2623 389.999 89.1769 392.773 89.1563C395.546 89.1357 398.232 88.1811 400.394 86.447V79.0598C400.395 78.6448 400.315 78.2337 400.157 77.8499C399.999 77.466 399.767 77.1171 399.474 76.8231C399.18 76.5292 398.832 76.2959 398.448 76.1367C398.064 75.9775 397.652 75.8956 397.236 75.8956V75.8956Z" fill="url(#paint0_linear)"/>
<path d="M392.601 74.5089C393.503 74.5089 394.385 74.242 395.134 73.742C395.884 73.2419 396.469 72.5312 396.814 71.6996C397.159 70.8681 397.249 69.953 397.073 69.0703C396.897 68.1875 396.463 67.3766 395.825 66.7401C395.188 66.1037 394.375 65.6703 393.491 65.4947C392.606 65.3191 391.69 65.4092 390.857 65.7536C390.024 66.0981 389.311 66.6814 388.81 67.4298C388.31 68.1781 388.042 69.058 388.042 69.9581C388.042 70.5557 388.16 71.1475 388.389 71.6996C388.618 72.2518 388.954 72.7534 389.377 73.176C389.801 73.5986 390.303 73.9338 390.857 74.1625C391.41 74.3912 392.003 74.5089 392.601 74.5089V74.5089Z" fill="#19B2D6"/>
<path d="M392.601 74.5089C393.503 74.5089 394.385 74.242 395.134 73.742C395.884 73.2419 396.469 72.5312 396.814 71.6996C397.159 70.8681 397.249 69.953 397.073 69.0703C396.897 68.1875 396.463 67.3766 395.825 66.7401C395.188 66.1037 394.375 65.6703 393.491 65.4947C392.606 65.3191 391.69 65.4092 390.857 65.7536C390.024 66.0981 389.311 66.6814 388.81 67.4298C388.31 68.1781 388.042 69.058 388.042 69.9581C388.042 70.5557 388.16 71.1475 388.389 71.6996C388.618 72.2518 388.954 72.7534 389.377 73.176C389.801 73.5986 390.303 73.9338 390.857 74.1625C391.41 74.3912 392.003 74.5089 392.601 74.5089V74.5089Z" fill="url(#paint1_linear)"/>
<path d="M295.846 35.4927C303.435 35.4927 309.587 29.352 309.587 21.7771C309.587 14.2022 303.435 8.06148 295.846 8.06148C288.257 8.06148 282.105 14.2022 282.105 21.7771C282.105 29.352 288.257 35.4927 295.846 35.4927Z" fill="white" stroke="white" stroke-width="0.5" stroke-miterlimit="10"/>
<path d="M300.393 20.8442H291.438C290.606 20.8574 289.813 21.1966 289.229 21.7886C288.646 22.3806 288.318 23.1778 288.319 24.0084V31.5721C290.508 33.2749 293.21 34.19 295.986 34.1694C298.761 34.1489 301.449 33.1937 303.613 31.4586V24.0084C303.613 23.5886 303.53 23.1729 303.367 22.7857C303.205 22.3985 302.967 22.0474 302.667 21.7529C302.367 21.4585 302.012 21.2264 301.621 21.0704C301.231 20.9144 300.813 20.8375 300.393 20.8442V20.8442Z" fill="#19B2D6"/>
<path d="M295.757 19.4575C298.275 19.4575 300.317 17.42 300.317 14.9067C300.317 12.3933 298.275 10.3558 295.757 10.3558C293.239 10.3558 291.198 12.3933 291.198 14.9067C291.198 17.42 293.239 19.4575 295.757 19.4575Z" fill="#19B2D6"/>
<path d="M49.4645 118.73C56.9548 117.512 62.0379 110.464 60.8181 102.988C59.5982 95.5113 52.5372 90.4376 45.047 91.6552C37.5567 92.8728 32.4735 99.9207 33.6934 107.397C34.9133 114.874 41.9742 119.947 49.4645 118.73Z" fill="white" stroke="white" stroke-width="0.5" stroke-miterlimit="10"/>
<path d="M51.8161 104.26H42.8491C42.4334 104.26 42.0218 104.342 41.6379 104.501C41.254 104.66 40.9053 104.893 40.612 105.187C40.3186 105.481 40.0863 105.83 39.9284 106.214C39.7705 106.598 39.69 107.009 39.6917 107.424V114.924C41.8795 116.626 44.5788 117.541 47.3524 117.52C50.1259 117.5 52.8113 116.545 54.9735 114.811V107.424C54.9752 107.009 54.8947 106.598 54.7368 106.214C54.5789 105.83 54.3466 105.481 54.0532 105.187C53.7599 104.893 53.4112 104.66 53.0273 104.501C52.6434 104.342 52.2318 104.26 51.8161 104.26V104.26Z" fill="#19B2D6"/>
<path d="M47.1811 102.873C48.0828 102.873 48.9643 102.606 49.7141 102.106C50.4638 101.606 51.0482 100.895 51.3933 100.064C51.7384 99.2321 51.8287 98.3171 51.6527 97.4343C51.4768 96.5515 51.0426 95.7406 50.405 95.1042C49.7673 94.4677 48.9549 94.0343 48.0705 93.8587C47.1861 93.6831 46.2694 93.7732 45.4363 94.1177C44.6032 94.4621 43.8911 95.0454 43.3901 95.7938C42.8892 96.5422 42.6218 97.422 42.6218 98.3221C42.6218 99.5291 43.1021 100.687 43.9571 101.54C44.8122 102.393 45.9719 102.873 47.1811 102.873Z" fill="#19B2D6"/>
<path d="M58.3177 205.075C65.8079 203.857 70.8911 196.809 69.6712 189.333C68.4514 181.857 61.3904 176.783 53.9001 178C46.4098 179.218 41.3267 186.266 42.5465 193.742C43.7664 201.219 50.8274 206.292 58.3177 205.075Z" fill="white" stroke="white" stroke-width="0.5" stroke-miterlimit="10"/>
<path d="M60.6569 190.612H51.6898C51.2741 190.612 50.8625 190.694 50.4786 190.853C50.0947 191.013 49.7461 191.246 49.4527 191.54C49.1594 191.834 48.9271 192.183 48.7691 192.567C48.6112 192.95 48.5308 193.362 48.5324 193.777V201.277C50.7202 202.979 53.4195 203.894 56.1931 203.873C58.9667 203.852 61.6521 202.898 63.8143 201.164V193.777C63.816 193.362 63.7355 192.95 63.5776 192.567C63.4197 192.183 63.1873 191.834 62.894 191.54C62.6006 191.246 62.252 191.013 61.8681 190.853C61.4842 190.694 61.0726 190.612 60.6569 190.612V190.612Z" fill="#19B2D6"/>
<path d="M60.6569 190.612H51.6898C51.2741 190.612 50.8625 190.694 50.4786 190.853C50.0947 191.013 49.7461 191.246 49.4527 191.54C49.1594 191.834 48.9271 192.183 48.7691 192.567C48.6112 192.95 48.5308 193.362 48.5324 193.777V201.277C50.7202 202.979 53.4195 203.894 56.1931 203.873C58.9667 203.852 61.6521 202.898 63.8143 201.164V193.777C63.816 193.362 63.7355 192.95 63.5776 192.567C63.4197 192.183 63.1873 191.834 62.894 191.54C62.6006 191.246 62.252 191.013 61.8681 190.853C61.4842 190.694 61.0726 190.612 60.6569 190.612V190.612Z" fill="url(#paint2_linear)"/>
<path d="M56.0218 189.226C56.9235 189.226 57.805 188.959 58.5548 188.459C59.3046 187.959 59.8889 187.248 60.234 186.416C60.5791 185.585 60.6694 184.67 60.4935 183.787C60.3175 182.904 59.8833 182.093 59.2457 181.457C58.6081 180.82 57.7957 180.387 56.9112 180.211C56.0268 180.036 55.1101 180.126 54.277 180.47C53.4439 180.815 52.7318 181.398 52.2308 182.146C51.7299 182.895 51.4625 183.775 51.4625 184.675C51.4625 185.882 51.9428 187.039 52.7978 187.893C53.6529 188.746 54.8126 189.226 56.0218 189.226V189.226Z" fill="#19B2D6"/>
<path d="M56.0218 189.226C56.9235 189.226 57.805 188.959 58.5548 188.459C59.3046 187.959 59.8889 187.248 60.234 186.416C60.5791 185.585 60.6694 184.67 60.4935 183.787C60.3175 182.904 59.8833 182.093 59.2457 181.457C58.6081 180.82 57.7957 180.387 56.9112 180.211C56.0268 180.036 55.1101 180.126 54.277 180.47C53.4439 180.815 52.7318 181.398 52.2308 182.146C51.7299 182.895 51.4625 183.775 51.4625 184.675C51.4625 185.882 51.9428 187.039 52.7978 187.893C53.6529 188.746 54.8126 189.226 56.0218 189.226V189.226Z" fill="url(#paint3_linear)"/>
<path d="M124.922 127.222C127.702 120.174 124.231 112.21 117.17 109.435C110.108 106.66 102.13 110.125 99.3499 117.173C96.5698 124.221 100.04 132.185 107.102 134.959C114.163 137.734 122.141 134.27 124.922 127.222Z" fill="white" stroke="white" stroke-width="0.5" stroke-miterlimit="10"/>
<path d="M116.695 121.278H107.715C106.878 121.278 106.074 121.61 105.482 122.201C104.89 122.792 104.557 123.594 104.557 124.43V131.993C106.745 133.695 109.445 134.61 112.218 134.589C114.992 134.569 117.677 133.614 119.839 131.88V124.493C119.848 124.075 119.773 123.659 119.619 123.27C119.464 122.881 119.234 122.527 118.942 122.228C118.649 121.929 118.3 121.691 117.914 121.527C117.528 121.364 117.114 121.28 116.695 121.278V121.278Z" fill="#19B2D6"/>
<path d="M116.695 121.278H107.715C106.878 121.278 106.074 121.61 105.482 122.201C104.89 122.792 104.557 123.594 104.557 124.43V131.993C106.745 133.695 109.445 134.61 112.218 134.589C114.992 134.569 117.677 133.614 119.839 131.88V124.493C119.848 124.075 119.773 123.659 119.619 123.27C119.464 122.881 119.234 122.527 118.942 122.228C118.649 121.929 118.3 121.691 117.914 121.527C117.528 121.364 117.114 121.28 116.695 121.278V121.278Z" fill="url(#paint4_linear)"/>
<path d="M112.059 119.891C112.961 119.891 113.843 119.624 114.592 119.124C115.342 118.624 115.927 117.914 116.272 117.082C116.617 116.25 116.707 115.335 116.531 114.453C116.355 113.57 115.921 112.759 115.283 112.123C114.646 111.486 113.833 111.053 112.949 110.877C112.064 110.702 111.148 110.792 110.315 111.136C109.482 111.481 108.769 112.064 108.269 112.812C107.768 113.561 107.5 114.44 107.5 115.341C107.5 115.938 107.618 116.53 107.847 117.082C108.076 117.634 108.412 118.136 108.836 118.558C109.259 118.981 109.761 119.316 110.315 119.545C110.868 119.774 111.461 119.891 112.059 119.891Z" fill="#19B2D6"/>
<path d="M112.059 119.891C112.961 119.891 113.843 119.624 114.592 119.124C115.342 118.624 115.927 117.914 116.272 117.082C116.617 116.25 116.707 115.335 116.531 114.453C116.355 113.57 115.921 112.759 115.283 112.123C114.646 111.486 113.833 111.053 112.949 110.877C112.064 110.702 111.148 110.792 110.315 111.136C109.482 111.481 108.769 112.064 108.269 112.812C107.768 113.561 107.5 114.44 107.5 115.341C107.5 115.938 107.618 116.53 107.847 117.082C108.076 117.634 108.412 118.136 108.836 118.558C109.259 118.981 109.761 119.316 110.315 119.545C110.868 119.774 111.461 119.891 112.059 119.891Z" fill="url(#paint5_linear)"/>
<path d="M202.778 270.485C210.367 270.485 216.519 264.345 216.519 256.77C216.519 249.195 210.367 243.054 202.778 243.054C195.189 243.054 189.037 249.195 189.037 256.77C189.037 264.345 195.189 270.485 202.778 270.485Z" fill="white" stroke="white" stroke-width="0.5" stroke-miterlimit="10"/>
<path d="M207.337 255.85H198.383C197.542 255.85 196.736 256.183 196.141 256.776C195.547 257.37 195.213 258.175 195.213 259.014V266.514C197.403 268.217 200.104 269.132 202.88 269.112C205.656 269.091 208.343 268.136 210.507 266.401V259.014C210.507 258.175 210.173 257.37 209.579 256.776C208.984 256.183 208.178 255.85 207.337 255.85Z" fill="#19B2D6"/>
<path d="M207.337 255.85H198.383C197.542 255.85 196.736 256.183 196.141 256.776C195.547 257.37 195.213 258.175 195.213 259.014V266.514C197.403 268.217 200.104 269.132 202.88 269.112C205.656 269.091 208.343 268.136 210.507 266.401V259.014C210.507 258.175 210.173 257.37 209.579 256.776C208.984 256.183 208.178 255.85 207.337 255.85Z" fill="url(#paint6_linear)"/>
<path d="M202.702 254.463C205.22 254.463 207.262 252.425 207.262 249.912C207.262 247.399 205.22 245.361 202.702 245.361C200.184 245.361 198.143 247.399 198.143 249.912C198.143 252.425 200.184 254.463 202.702 254.463Z" fill="#19B2D6"/>
<path d="M202.702 254.463C205.22 254.463 207.262 252.425 207.262 249.912C207.262 247.399 205.22 245.361 202.702 245.361C200.184 245.361 198.143 247.399 198.143 249.912C198.143 252.425 200.184 254.463 202.702 254.463Z" fill="url(#paint7_linear)"/>
<path d="M301.58 296.858C309.169 296.858 315.321 290.717 315.321 283.142C315.321 275.567 309.169 269.426 301.58 269.426C293.991 269.426 287.839 275.567 287.839 283.142C287.839 290.717 293.991 296.858 301.58 296.858Z" fill="white" stroke="white" stroke-width="0.5" stroke-miterlimit="10"/>
<path d="M306.126 282.222H297.159C296.321 282.222 295.516 282.553 294.922 283.144C294.328 283.735 293.993 284.536 293.989 285.373V292.937C296.179 294.64 298.88 295.555 301.656 295.534C304.432 295.514 307.12 294.559 309.284 292.824V285.348C309.277 284.517 308.941 283.722 308.35 283.136C307.759 282.55 306.959 282.222 306.126 282.222V282.222Z" fill="#19B2D6"/>
<path d="M306.126 282.222H297.159C296.321 282.222 295.516 282.553 294.922 283.144C294.328 283.735 293.993 284.536 293.989 285.373V292.937C296.179 294.64 298.88 295.555 301.656 295.534C304.432 295.514 307.12 294.559 309.284 292.824V285.348C309.277 284.517 308.941 283.722 308.35 283.136C307.759 282.55 306.959 282.222 306.126 282.222V282.222Z" fill="url(#paint8_linear)"/>
<path d="M301.491 280.835C304.009 280.835 306.051 278.798 306.051 276.284C306.051 273.771 304.009 271.733 301.491 271.733C298.973 271.733 296.932 273.771 296.932 276.284C296.932 278.798 298.973 280.835 301.491 280.835Z" fill="#19B2D6"/>
<path d="M301.491 280.835C304.009 280.835 306.051 278.798 306.051 276.284C306.051 273.771 304.009 271.733 301.491 271.733C298.973 271.733 296.932 273.771 296.932 276.284C296.932 278.798 298.973 280.835 301.491 280.835Z" fill="url(#paint9_linear)"/>
<path d="M383.947 208.868C386.565 201.758 382.913 193.876 375.79 191.263C368.667 188.65 360.77 192.295 358.152 199.405C355.534 206.515 359.186 214.397 366.309 217.01C373.432 219.623 381.329 215.978 383.947 208.868Z" fill="white" stroke="white" stroke-width="0.5" stroke-miterlimit="10"/>
<path d="M375.602 203.219H366.622C365.785 203.219 364.982 203.551 364.39 204.142C363.798 204.733 363.465 205.534 363.465 206.37V213.934C365.653 215.636 368.352 216.55 371.126 216.53C373.899 216.509 376.585 215.554 378.747 213.82V206.433C378.755 206.015 378.68 205.6 378.526 205.211C378.372 204.822 378.142 204.467 377.849 204.168C377.556 203.869 377.207 203.631 376.821 203.468C376.435 203.305 376.021 203.22 375.602 203.219V203.219Z" fill="#19B2D6"/>
<path d="M370.967 201.832C371.869 201.832 372.75 201.565 373.5 201.065C374.25 200.565 374.834 199.854 375.179 199.023C375.524 198.191 375.614 197.276 375.439 196.393C375.263 195.51 374.828 194.7 374.191 194.063C373.553 193.427 372.741 192.993 371.856 192.818C370.972 192.642 370.055 192.732 369.222 193.077C368.389 193.421 367.677 194.004 367.176 194.753C366.675 195.501 366.408 196.381 366.408 197.281C366.408 198.488 366.888 199.646 367.743 200.499C368.598 201.352 369.758 201.832 370.967 201.832Z" fill="#19B2D6"/>
<path d="M343.712 80.6734C363.111 96.3681 374.617 115.971 374.617 137.124C374.617 188.81 306.202 230.738 221.798 230.738C137.394 230.738 68.9797 188.822 68.9797 137.124C68.9797 114.508 82.0767 93.7713 103.875 77.5849" stroke="white" stroke-width="0.5" stroke-miterlimit="10"/>
<path d="M134.237 41.7327C147.991 19.2306 167.327 4.22919 190.237 0.888538C244.064 -6.85169 297.248 53.1666 309.044 134.943C320.84 216.72 286.778 289.281 232.963 297.022C208.461 300.539 184.086 290.025 163.689 269.805" stroke="white" stroke-width="0.5" stroke-miterlimit="10"/>
<path d="M340.914 240.134C358.8 210.908 314.59 151.418 242.167 107.258C169.745 63.0983 96.5347 50.9918 78.6482 80.2173C60.7617 109.443 104.972 168.933 177.395 213.093C249.817 257.253 323.027 269.359 340.914 240.134Z" stroke="white" stroke-width="0.5" stroke-miterlimit="10"/>
<path d="M253.418 206.225C327.74 160.907 373.489 100.478 355.603 71.2529C337.716 42.0274 262.967 55.0725 188.645 100.39C114.324 145.707 68.5745 206.136 86.461 235.362C104.347 264.587 179.097 251.542 253.418 206.225Z" stroke="white" stroke-width="0.5" stroke-miterlimit="10"/>
<path d="M285.881 59.6966C285.881 59.1979 285.733 58.7105 285.455 58.2959C285.178 57.8813 284.783 57.5581 284.322 57.3673C283.86 57.1764 283.352 57.1265 282.862 57.2238C282.372 57.3211 281.922 57.5612 281.569 57.9138C281.216 58.2664 280.975 58.7157 280.878 59.2047C280.78 59.6938 280.83 60.2007 281.021 60.6614C281.213 61.1221 281.536 61.5159 281.952 61.7929C282.367 62.07 282.856 62.2178 283.355 62.2178C284.025 62.2178 284.668 61.9522 285.141 61.4794C285.615 61.0066 285.881 60.3653 285.881 59.6966Z" fill="white" stroke="white" stroke-width="0.5" stroke-miterlimit="10"/>
<path d="M313.666 162.904C313.666 162.405 313.518 161.918 313.241 161.503C312.963 161.088 312.568 160.765 312.107 160.574C311.645 160.384 311.137 160.334 310.648 160.431C310.158 160.528 309.707 160.768 309.354 161.121C309.001 161.474 308.76 161.923 308.663 162.412C308.565 162.901 308.615 163.408 308.807 163.869C308.998 164.329 309.322 164.723 309.737 165C310.152 165.277 310.641 165.425 311.14 165.425C311.81 165.425 312.453 165.159 312.926 164.687C313.4 164.214 313.666 163.572 313.666 162.904Z" fill="white" stroke="white" stroke-width="0.5" stroke-miterlimit="10"/>
<path d="M308.109 215.333C308.109 214.834 307.961 214.347 307.684 213.932C307.406 213.518 307.011 213.195 306.55 213.004C306.088 212.813 305.58 212.763 305.091 212.86C304.601 212.958 304.15 213.198 303.797 213.55C303.444 213.903 303.203 214.352 303.106 214.841C303.008 215.33 303.058 215.837 303.25 216.298C303.441 216.759 303.765 217.152 304.18 217.429C304.595 217.706 305.084 217.854 305.583 217.854C306.253 217.854 306.896 217.589 307.369 217.116C307.843 216.643 308.109 216.002 308.109 215.333Z" fill="white" stroke="white" stroke-width="0.5" stroke-miterlimit="10"/>
<path d="M291.994 255.27C291.994 254.771 291.846 254.284 291.568 253.869C291.29 253.454 290.896 253.131 290.434 252.94C289.973 252.75 289.465 252.7 288.975 252.797C288.485 252.894 288.035 253.134 287.682 253.487C287.328 253.84 287.088 254.289 286.99 254.778C286.893 255.267 286.943 255.774 287.134 256.235C287.325 256.695 287.649 257.089 288.064 257.366C288.48 257.643 288.968 257.791 289.468 257.791C290.138 257.791 290.78 257.525 291.254 257.052C291.728 256.58 291.994 255.938 291.994 255.27Z" fill="white" stroke="white" stroke-width="0.5" stroke-miterlimit="10"/>
<path d="M340.1 198.365C340.1 197.867 339.952 197.379 339.674 196.964C339.397 196.55 339.002 196.227 338.541 196.036C338.079 195.845 337.571 195.795 337.081 195.892C336.591 195.99 336.141 196.23 335.788 196.582C335.435 196.935 335.194 197.384 335.097 197.873C334.999 198.362 335.049 198.869 335.241 199.33C335.432 199.791 335.755 200.184 336.171 200.461C336.586 200.739 337.075 200.886 337.574 200.886C338.244 200.886 338.887 200.621 339.36 200.148C339.834 199.675 340.1 199.034 340.1 198.365Z" fill="white" stroke="white" stroke-width="0.5" stroke-miterlimit="10"/>
<path d="M210.293 230.032C210.293 229.533 210.145 229.046 209.867 228.631C209.589 228.217 209.195 227.894 208.733 227.703C208.272 227.512 207.764 227.462 207.274 227.559C206.784 227.656 206.334 227.897 205.981 228.249C205.627 228.602 205.387 229.051 205.289 229.54C205.192 230.029 205.242 230.536 205.433 230.997C205.624 231.458 205.948 231.851 206.363 232.128C206.779 232.405 207.267 232.553 207.767 232.553C208.437 232.553 209.079 232.288 209.553 231.815C210.027 231.342 210.293 230.701 210.293 230.032Z" fill="white" stroke="white" stroke-width="0.5" stroke-miterlimit="10"/>
<path d="M95.2494 188.154C95.2494 187.655 95.1012 187.168 94.8237 186.753C94.5461 186.339 94.1516 186.016 93.6901 185.825C93.2285 185.634 92.7206 185.584 92.2307 185.681C91.7407 185.779 91.2906 186.019 90.9373 186.371C90.5841 186.724 90.3435 187.173 90.246 187.662C90.1486 188.151 90.1986 188.658 90.3898 189.119C90.581 189.58 90.9047 189.973 91.3201 190.25C91.7355 190.527 92.2239 190.675 92.7234 190.675C93.3934 190.675 94.0358 190.41 94.5095 189.937C94.9833 189.464 95.2494 188.823 95.2494 188.154Z" fill="white" stroke="white" stroke-width="0.5" stroke-miterlimit="10"/>
<path d="M114.699 162.072C114.699 161.573 114.551 161.086 114.273 160.671C113.996 160.256 113.601 159.933 113.14 159.742C112.678 159.552 112.17 159.502 111.68 159.599C111.19 159.696 110.74 159.936 110.387 160.289C110.034 160.642 109.793 161.091 109.696 161.58C109.598 162.069 109.648 162.576 109.839 163.037C110.031 163.497 110.354 163.891 110.77 164.168C111.185 164.445 111.674 164.593 112.173 164.593C112.843 164.593 113.486 164.327 113.959 163.855C114.433 163.382 114.699 162.74 114.699 162.072Z" fill="white" stroke="white" stroke-width="0.5" stroke-miterlimit="10"/>
<path d="M210.571 89.1321C210.571 88.6335 210.422 88.146 210.145 87.7314C209.867 87.3168 209.473 86.9936 209.011 86.8028C208.55 86.612 208.042 86.562 207.552 86.6593C207.062 86.7566 206.612 86.9967 206.259 87.3493C205.905 87.702 205.665 88.1512 205.567 88.6403C205.47 89.1293 205.52 89.6363 205.711 90.097C205.902 90.5577 206.226 90.9514 206.641 91.2285C207.057 91.5055 207.545 91.6534 208.045 91.6534C208.715 91.6534 209.357 91.3878 209.831 90.9149C210.305 90.4421 210.571 89.8008 210.571 89.1321Z" fill="white" stroke="white" stroke-width="0.5" stroke-miterlimit="10"/>
<path d="M360.623 95.5109C360.623 95.0122 360.475 94.5248 360.197 94.1102C359.92 93.6955 359.525 93.3724 359.064 93.1816C358.602 92.9907 358.094 92.9408 357.604 93.0381C357.114 93.1354 356.664 93.3755 356.311 93.7281C355.958 94.0807 355.717 94.53 355.62 95.019C355.522 95.5081 355.572 96.015 355.764 96.4757C355.955 96.9364 356.278 97.3302 356.694 97.6072C357.109 97.8843 357.598 98.0322 358.097 98.0322C358.767 98.0322 359.41 97.7665 359.883 97.2937C360.357 96.8209 360.623 96.1796 360.623 95.5109Z" fill="white" stroke="white" stroke-width="0.5" stroke-miterlimit="10"/>
<path d="M79.4118 107.714C79.4118 107.215 79.2637 106.728 78.9861 106.313C78.7086 105.898 78.3141 105.575 77.8525 105.384C77.391 105.194 76.8831 105.144 76.3931 105.241C75.9031 105.338 75.4531 105.578 75.0998 105.931C74.7465 106.284 74.506 106.733 74.4085 107.222C74.3111 107.711 74.3611 108.218 74.5523 108.679C74.7434 109.139 75.0672 109.533 75.4826 109.81C75.898 110.087 76.3863 110.235 76.8859 110.235C77.5558 110.235 78.1983 109.969 78.672 109.497C79.1457 109.024 79.4118 108.382 79.4118 107.714Z" fill="white" stroke="white" stroke-width="0.5" stroke-miterlimit="10"/>
<path d="M360.598 94.515L380.452 83.8502" stroke="white" stroke-width="0.5" stroke-miterlimit="10"/>
<path d="M74.4105 107.714L60.9978 105.193" stroke="white" stroke-width="0.5" stroke-miterlimit="10"/>
<path d="M112.198 159.576V135.914" stroke="white" stroke-width="0.5" stroke-miterlimit="10"/>
<path d="M90.2481 188.154L69.8386 191.545" stroke="white" stroke-width="0.5" stroke-miterlimit="10"/>
<path d="M207.224 232.49L205.354 243.458" stroke="white" stroke-width="0.5" stroke-miterlimit="10"/>
<path d="M290.44 257.677L296.288 270.385" stroke="white" stroke-width="0.5" stroke-miterlimit="10"/>
<path d="M340.062 198.416L357.036 202.046" stroke="white" stroke-width="0.5" stroke-miterlimit="10"/>
<path d="M303.588 213.505L287.106 197.672" stroke="white" stroke-width="0.5" stroke-miterlimit="10"/>
<path d="M284.391 57.4527L291.905 35.1523" stroke="white" stroke-width="0.5" stroke-miterlimit="10"/>
<path d="M124.613 45.7667L127.796 48.1493" stroke="white" stroke-width="0.5" stroke-miterlimit="10"/>
<path d="M148.887 269.351L152.462 264.586" stroke="white" stroke-width="0.5" stroke-miterlimit="10"/>
<path d="M289.815 193.21C292.49 186.121 288.901 178.21 281.799 175.54C274.698 172.87 266.772 176.452 264.097 183.541C261.422 190.629 265.01 198.54 272.112 201.21C279.214 203.881 287.14 200.299 289.815 193.21Z" fill="white" stroke="white" stroke-width="0.5" stroke-miterlimit="10"/>
<path d="M281.511 187.461H272.544C271.707 187.461 270.904 187.793 270.311 188.384C269.719 188.975 269.387 189.776 269.387 190.612V198.176C271.575 199.878 274.274 200.792 277.047 200.772C279.821 200.751 282.506 199.797 284.669 198.063V190.675C284.677 190.256 284.602 189.84 284.447 189.45C284.292 189.06 284.06 188.705 283.766 188.406C283.472 188.107 283.121 187.869 282.734 187.707C282.347 187.544 281.931 187.461 281.511 187.461V187.461Z" fill="#19B2D6"/>
<path d="M276.876 186.074C277.778 186.074 278.659 185.807 279.409 185.307C280.159 184.807 280.743 184.096 281.088 183.265C281.433 182.433 281.524 181.518 281.348 180.635C281.172 179.753 280.738 178.942 280.1 178.305C279.462 177.669 278.65 177.235 277.766 177.06C276.881 176.884 275.964 176.974 275.131 177.319C274.298 177.663 273.586 178.247 273.085 178.995C272.584 179.743 272.317 180.623 272.317 181.523C272.317 182.73 272.797 183.888 273.652 184.741C274.507 185.595 275.667 186.074 276.876 186.074V186.074Z" fill="#19B2D6"/>
<path d="M320.78 128.274C323.436 121.178 319.827 113.277 312.718 110.625C305.609 107.974 297.693 111.576 295.037 118.672C292.38 125.768 295.99 133.669 303.098 136.321C310.207 138.972 318.124 135.37 320.78 128.274Z" fill="white" stroke="white" stroke-width="0.5" stroke-miterlimit="10"/>
<path d="M312.454 122.539H303.474C302.637 122.539 301.834 122.871 301.241 123.462C300.649 124.053 300.317 124.854 300.317 125.69V133.254C302.504 134.956 305.204 135.87 307.977 135.85C310.751 135.829 313.436 134.875 315.599 133.14V125.753C315.607 125.335 315.532 124.92 315.378 124.531C315.224 124.142 314.993 123.788 314.701 123.488C314.408 123.189 314.059 122.951 313.673 122.788C313.287 122.625 312.873 122.54 312.454 122.539V122.539Z" fill="#19B2D6"/>
<path d="M312.454 122.539H303.474C302.637 122.539 301.834 122.871 301.241 123.462C300.649 124.053 300.317 124.854 300.317 125.69V133.254C302.504 134.956 305.204 135.87 307.977 135.85C310.751 135.829 313.436 134.875 315.599 133.14V125.753C315.607 125.335 315.532 124.92 315.378 124.531C315.224 124.142 314.993 123.788 314.701 123.488C314.408 123.189 314.059 122.951 313.673 122.788C313.287 122.625 312.873 122.54 312.454 122.539V122.539Z" fill="url(#paint10_linear)"/>
<path d="M307.819 121.152C308.72 121.152 309.602 120.885 310.352 120.385C311.101 119.885 311.686 119.174 312.031 118.343C312.376 117.511 312.466 116.596 312.29 115.713C312.114 114.831 311.68 114.02 311.043 113.383C310.405 112.747 309.593 112.313 308.708 112.138C307.824 111.962 306.907 112.052 306.074 112.397C305.241 112.741 304.529 113.324 304.028 114.073C303.527 114.821 303.259 115.701 303.259 116.601C303.259 117.808 303.74 118.966 304.595 119.819C305.45 120.673 306.61 121.152 307.819 121.152Z" fill="#19B2D6"/>
<path d="M307.819 121.152C308.72 121.152 309.602 120.885 310.352 120.385C311.101 119.885 311.686 119.174 312.031 118.343C312.376 117.511 312.466 116.596 312.29 115.713C312.114 114.831 311.68 114.02 311.043 113.383C310.405 112.747 309.593 112.313 308.708 112.138C307.824 111.962 306.907 112.052 306.074 112.397C305.241 112.741 304.529 113.324 304.028 114.073C303.527 114.821 303.259 115.701 303.259 116.601C303.259 117.808 303.74 118.966 304.595 119.819C305.45 120.673 306.61 121.152 307.819 121.152Z" fill="url(#paint11_linear)"/>
</g>
<defs>
<linearGradient id="paint0_linear" x1="385.112" y1="82.5261" x2="400.394" y2="82.5261" gradientUnits="userSpaceOnUse">
<stop stop-color="#F2C31B"/>
<stop offset="1" stop-color="#F2691B"/>
</linearGradient>
<linearGradient id="paint1_linear" x1="388.042" y1="69.9581" x2="397.161" y2="69.9581" gradientUnits="userSpaceOnUse">
<stop stop-color="#F2C31B"/>
<stop offset="1" stop-color="#F2691B"/>
</linearGradient>
<linearGradient id="paint2_linear" x1="48.5324" y1="197.243" x2="63.8143" y2="197.243" gradientUnits="userSpaceOnUse">
<stop stop-color="#F2C31B"/>
<stop offset="1" stop-color="#F2691B"/>
</linearGradient>
<linearGradient id="paint3_linear" x1="51.4625" y1="184.675" x2="60.5811" y2="184.675" gradientUnits="userSpaceOnUse">
<stop stop-color="#F2C31B"/>
<stop offset="1" stop-color="#F2691B"/>
</linearGradient>
<linearGradient id="paint4_linear" x1="104.557" y1="127.934" x2="119.84" y2="127.934" gradientUnits="userSpaceOnUse">
<stop stop-color="#F2C31B"/>
<stop offset="1" stop-color="#F2691B"/>
</linearGradient>
<linearGradient id="paint5_linear" x1="107.5" y1="115.341" x2="116.619" y2="115.341" gradientUnits="userSpaceOnUse">
<stop stop-color="#F2C31B"/>
<stop offset="1" stop-color="#F2691B"/>
</linearGradient>
<linearGradient id="paint6_linear" x1="195.213" y1="262.481" x2="210.507" y2="262.481" gradientUnits="userSpaceOnUse">
<stop stop-color="#F2C31B"/>
<stop offset="1" stop-color="#F2691B"/>
</linearGradient>
<linearGradient id="paint7_linear" x1="198.143" y1="249.912" x2="207.262" y2="249.912" gradientUnits="userSpaceOnUse">
<stop stop-color="#F2C31B"/>
<stop offset="1" stop-color="#F2691B"/>
</linearGradient>
<linearGradient id="paint8_linear" x1="293.989" y1="288.878" x2="309.284" y2="288.878" gradientUnits="userSpaceOnUse">
<stop stop-color="#F2C31B"/>
<stop offset="1" stop-color="#F2691B"/>
</linearGradient>
<linearGradient id="paint9_linear" x1="296.932" y1="276.284" x2="306.051" y2="276.284" gradientUnits="userSpaceOnUse">
<stop stop-color="#F2C31B"/>
<stop offset="1" stop-color="#F2691B"/>
</linearGradient>
<linearGradient id="paint10_linear" x1="300.317" y1="129.194" x2="315.599" y2="129.194" gradientUnits="userSpaceOnUse">
<stop stop-color="#F2C31B"/>
<stop offset="1" stop-color="#F2691B"/>
</linearGradient>
<linearGradient id="paint11_linear" x1="303.259" y1="116.601" x2="312.378" y2="116.601" gradientUnits="userSpaceOnUse">
<stop stop-color="#F2C31B"/>
<stop offset="1" stop-color="#F2691B"/>
</linearGradient>
<clipPath id="clip0">
<rect width="450" height="439" fill="white"/>
</clipPath>
</defs>
</svg>
