<svg width="128" height="128" viewBox="0 0 128 128" fill="none" xmlns="http://www.w3.org/2000/svg">
<circle cx="27.5739" cy="26.3567" r="26.1716" fill="#F2941B"/>
<circle cx="101.828" cy="101.828" r="26.1716" fill="#F2941B"/>
<path d="M119.661 52.3958C124.834 46.8505 128 39.4079 128 31.2258C128 14.0825 114.102 0.185059 96.9591 0.185059C88.7771 0.185059 81.3344 3.35075 75.7891 8.52413L75.7258 8.46075C68.9616 15.2249 65.9184 20.0284 65.9184 34.8776C65.9184 52.021 52.0209 65.9184 34.8776 65.9184C20.0284 65.9184 14.7925 69.394 8.46072 75.7258L8.52409 75.7892C3.35075 81.3344 0.185059 88.7771 0.185059 96.9591C0.185059 114.102 14.0825 128 31.2258 128C39.4078 128 46.8505 124.834 52.3958 119.661L52.4723 119.737C59.2233 112.986 62.2665 108.167 62.2665 93.3073C62.2665 76.164 76.1639 62.2666 93.3072 62.2666C108.167 62.2666 114.001 58.2086 119.737 52.4724L119.661 52.3958Z" fill="#19B2D6"/>
</svg>
