<svg width="146" height="146" viewBox="0 0 146 146" fill="none" xmlns="http://www.w3.org/2000/svg">
<circle cx="73" cy="73" r="73" fill="#EFF2F4"/>
<circle cx="73" cy="73" r="60" fill="url(#paint0_linear)"/>
<g clip-path="url(#clip0)">
<path d="M74.9998 47.6143V61.9728C78.0353 61.9468 81.0155 61.6445 83.9567 61.1668C82.1172 56.0415 79.0427 51.42 74.9998 47.6143Z" fill="white"/>
<path d="M79.124 47C82.777 50.939 85.5525 55.554 87.2718 60.5753C90.2975 59.8993 93.2485 58.9405 96.1345 57.7738C92.1825 52.1902 86.1245 48.2188 79.124 47Z" fill="white"/>
<path d="M74.9998 84.0239V98.3857C79.0427 94.5767 82.1172 89.9584 83.9567 84.8299C81.0155 84.3522 78.0353 84.0499 74.9998 84.0239Z" fill="white"/>
<path d="M97.909 60.6274C94.7435 61.9404 91.4967 62.9934 88.172 63.7474C88.9162 66.7439 89.342 69.8412 89.342 73.0002C89.342 76.1592 88.9195 79.2532 88.1752 82.2497C91.5 83.0037 94.7467 84.0567 97.9122 85.3729C99.8752 81.6777 101 77.4689 101 73.0002C101 68.5314 99.8753 64.3227 97.909 60.6274Z" fill="white"/>
<path d="M84.9188 64.355C81.6655 64.9075 78.3635 65.2487 74.9998 65.2747V80.722C78.3635 80.748 81.6655 81.0892 84.9188 81.6417C85.6305 78.8435 86.04 75.9542 86.04 73C86.04 70.0457 85.6305 67.1532 84.9188 64.355Z" fill="white"/>
<path d="M87.275 85.4248C85.5525 90.4461 82.777 95.0611 79.124 99.0001C86.1245 97.7813 92.1825 93.8098 96.1378 88.2263C93.2518 87.0596 90.3008 86.1008 87.275 85.4248Z" fill="white"/>
<path d="M58.7496 60C62.3395 60 65.2496 57.0899 65.2496 53.5C65.2496 49.9101 62.3395 47 58.7496 47C55.1598 47 52.2496 49.9101 52.2496 53.5C52.2496 57.0899 55.1598 60 58.7496 60Z" fill="white"/>
<path d="M68.4899 80.9625L67.0112 66.1783C66.8454 64.5078 65.4544 63.25 63.7807 63.25H61.9997C61.5674 63.25 61.1547 63.4222 60.8492 63.7245L58.7497 65.8273L56.6469 63.7245C56.3447 63.4222 55.9319 63.25 55.4997 63.25H53.7187C52.0417 63.25 50.6539 64.5078 50.4882 66.175L49.0094 80.9625C48.9607 81.4207 49.1102 81.8725 49.4189 82.217C49.7244 82.555 50.1632 82.75 50.6247 82.75H52.4057L53.7382 96.075C53.9039 97.739 55.2917 99 56.9687 99H60.5307C62.2077 99 63.5954 97.739 63.7612 96.075L65.0937 82.75H66.8747C67.3362 82.75 67.7717 82.555 68.0804 82.217C68.3892 81.8758 68.5387 81.4207 68.4899 80.9625Z" fill="white"/>
</g>
<defs>
<linearGradient id="paint0_linear" x1="40.5" y1="21.5" x2="96.5" y2="128" gradientUnits="userSpaceOnUse">
<stop stop-color="#56CFEB"/>
<stop offset="1" stop-color="#16A0C0"/>
</linearGradient>
<clipPath id="clip0">
<rect x="49" y="47" width="52" height="52" fill="white"/>
</clipPath>
</defs>
</svg>
