<svg width="15" height="15" viewBox="0 0 15 15" fill="none" xmlns="http://www.w3.org/2000/svg">
<path d="M3.34821 15V4.98884H0.234375V15H3.34821ZM1.80804 3.61607C2.27679 3.61607 2.71205 3.44866 3.08036 3.08036C3.41518 2.74554 3.61607 2.31027 3.61607 1.80804C3.61607 1.33929 3.41518 0.904018 3.08036 0.535714C2.71205 0.200893 2.27679 0 1.80804 0C1.3058 0 0.870536 0.200893 0.535714 0.535714C0.167411 0.904018 0 1.33929 0 1.80804C0 2.31027 0.167411 2.74554 0.535714 3.08036C0.870536 3.44866 1.3058 3.61607 1.80804 3.61607ZM15 15V9.50893C15 7.96875 14.7656 6.83036 14.3304 6.09375C13.7277 5.18973 12.7232 4.72098 11.2835 4.72098C10.5469 4.72098 9.9442 4.92188 9.40848 5.2567C8.90625 5.55804 8.53795 5.92634 8.33705 6.36161H8.30357V4.98884H5.32366V15H8.40402V10.0446C8.40402 9.27455 8.50447 8.67188 8.73884 8.27009C9.0067 7.73438 9.50893 7.46652 10.2455 7.46652C10.9487 7.46652 11.4174 7.76786 11.6853 8.37054C11.8192 8.73884 11.8862 9.30804 11.8862 10.1116V15H15Z" fill="white"/>
</svg>
