<svg width="211" height="40" viewBox="0 0 211 40" fill="none" xmlns="http://www.w3.org/2000/svg">
<path d="M137.283 9.33539C137.911 9.60615 138.41 10.0185 138.78 10.5723C139.161 11.1138 139.352 11.7354 139.352 12.4369C139.352 13.4338 139.001 14.2831 138.299 14.9846C137.597 15.6862 136.747 16.0369 135.749 16.0369H130.112V3.11385H135.323C136.284 3.11385 137.104 3.45846 137.782 4.14769C138.459 4.82462 138.798 5.63692 138.798 6.58462C138.798 7.79077 138.293 8.70769 137.283 9.33539ZM135.323 4.33231H131.405V8.83692H135.323C135.927 8.83692 136.439 8.62154 136.857 8.19077C137.289 7.74769 137.504 7.21231 137.504 6.58462C137.504 5.96923 137.289 5.44 136.857 4.99692C136.439 4.55385 135.927 4.33231 135.323 4.33231ZM135.749 14.8185C136.389 14.8185 136.931 14.5908 137.375 14.1354C137.831 13.6677 138.059 13.1015 138.059 12.4369C138.059 11.7846 137.831 11.2246 137.375 10.7569C136.931 10.2892 136.389 10.0554 135.749 10.0554H131.405V14.8185H135.749Z" fill="white" fill-opacity="0.6"/>
<path d="M148.813 6.80615H150.033V16.0369H148.813V14.5969C148.123 15.7046 147.088 16.2585 145.708 16.2585C144.587 16.2585 143.7 15.92 143.047 15.2431C142.406 14.5538 142.086 13.6308 142.086 12.4738V6.80615H143.305V12.4738C143.305 13.2985 143.521 13.9385 143.952 14.3938C144.396 14.8492 145.018 15.0769 145.819 15.0769C146.706 15.0769 147.427 14.8 147.981 14.2462C148.536 13.68 148.813 12.8123 148.813 11.6431V6.80615Z" fill="white" fill-opacity="0.6"/>
<path d="M154.313 9.22462C154.313 9.64308 154.498 9.97539 154.868 10.2215C155.238 10.4677 155.687 10.6585 156.217 10.7938C156.747 10.9292 157.277 11.0831 157.806 11.2554C158.336 11.4154 158.786 11.6923 159.156 12.0862C159.525 12.4677 159.71 12.9723 159.71 13.6C159.71 14.3877 159.396 15.0277 158.768 15.52C158.151 16.0123 157.351 16.2585 156.365 16.2585C155.478 16.2585 154.72 16.0615 154.092 15.6677C153.476 15.2738 153.044 14.7631 152.798 14.1354L153.833 13.5262C154.005 14.0062 154.313 14.3877 154.757 14.6708C155.213 14.9415 155.749 15.0769 156.365 15.0769C156.969 15.0769 157.474 14.96 157.88 14.7262C158.287 14.48 158.49 14.1046 158.49 13.6C158.49 13.1815 158.306 12.8492 157.936 12.6031C157.566 12.3569 157.117 12.1662 156.587 12.0308C156.057 11.8954 155.527 11.7477 154.997 11.5877C154.467 11.4154 154.018 11.1385 153.648 10.7569C153.278 10.3631 153.094 9.85231 153.094 9.22462C153.094 8.47385 153.389 7.84615 153.981 7.34154C154.585 6.83692 155.342 6.58462 156.254 6.58462C157.006 6.58462 157.665 6.75692 158.232 7.10154C158.798 7.43385 159.217 7.88923 159.488 8.46769L158.472 9.05846C158.115 8.19692 157.375 7.76615 156.254 7.76615C155.724 7.76615 155.268 7.89539 154.886 8.15385C154.504 8.4 154.313 8.75692 154.313 9.22462Z" fill="white" fill-opacity="0.6"/>
<path d="M163.632 4.59077C163.46 4.76308 163.25 4.84923 163.004 4.84923C162.757 4.84923 162.548 4.76308 162.376 4.59077C162.203 4.41846 162.117 4.20923 162.117 3.96308C162.117 3.71692 162.203 3.50769 162.376 3.33538C162.548 3.16308 162.757 3.07692 163.004 3.07692C163.25 3.07692 163.46 3.16308 163.632 3.33538C163.805 3.50769 163.891 3.71692 163.891 3.96308C163.891 4.20923 163.805 4.41846 163.632 4.59077ZM162.394 16.0369V6.80615H163.614V16.0369H162.394Z" fill="white" fill-opacity="0.6"/>
<path d="M171.266 6.58462C172.387 6.58462 173.268 6.92923 173.909 7.61846C174.562 8.29538 174.889 9.21231 174.889 10.3692V16.0369H173.669V10.3692C173.669 9.54462 173.447 8.90462 173.004 8.44923C172.572 7.99385 171.956 7.76615 171.155 7.76615C170.268 7.76615 169.547 8.04923 168.993 8.61539C168.439 9.16923 168.161 10.0308 168.161 11.2V16.0369H166.942V6.80615H168.161V8.24615C168.851 7.13846 169.886 6.58462 171.266 6.58462Z" fill="white" fill-opacity="0.6"/>
<path d="M182.256 6.58462C183.623 6.58462 184.726 7.07077 185.564 8.04308C186.414 9.00308 186.839 10.1415 186.839 11.4585C186.839 11.5938 186.827 11.7846 186.802 12.0308H178.689C178.812 12.9662 179.206 13.7108 179.872 14.2646C180.549 14.8062 181.381 15.0769 182.367 15.0769C183.069 15.0769 183.673 14.9354 184.178 14.6523C184.695 14.3569 185.084 13.9754 185.342 13.5077L186.414 14.1354C186.008 14.7877 185.453 15.3046 184.751 15.6862C184.049 16.0677 183.248 16.2585 182.348 16.2585C180.894 16.2585 179.712 15.8031 178.8 14.8923C177.888 13.9815 177.432 12.8246 177.432 11.4215C177.432 10.0431 177.882 8.89231 178.781 7.96923C179.681 7.04615 180.839 6.58462 182.256 6.58462ZM182.256 7.76615C181.295 7.76615 180.488 8.05539 179.835 8.63385C179.194 9.2 178.812 9.93846 178.689 10.8492H185.583C185.459 9.87692 185.084 9.12 184.455 8.57846C183.827 8.03692 183.094 7.76615 182.256 7.76615Z" fill="white" fill-opacity="0.6"/>
<path d="M190.119 9.22462C190.119 9.64308 190.304 9.97539 190.673 10.2215C191.043 10.4677 191.493 10.6585 192.023 10.7938C192.552 10.9292 193.082 11.0831 193.612 11.2554C194.142 11.4154 194.592 11.6923 194.961 12.0862C195.331 12.4677 195.516 12.9723 195.516 13.6C195.516 14.3877 195.201 15.0277 194.573 15.52C193.957 16.0123 193.156 16.2585 192.17 16.2585C191.283 16.2585 190.526 16.0615 189.897 15.6677C189.281 15.2738 188.85 14.7631 188.603 14.1354L189.638 13.5262C189.811 14.0062 190.119 14.3877 190.563 14.6708C191.018 14.9415 191.554 15.0769 192.17 15.0769C192.774 15.0769 193.279 14.96 193.686 14.7262C194.093 14.48 194.296 14.1046 194.296 13.6C194.296 13.1815 194.111 12.8492 193.741 12.6031C193.372 12.3569 192.922 12.1662 192.392 12.0308C191.862 11.8954 191.333 11.7477 190.803 11.5877C190.273 11.4154 189.823 11.1385 189.454 10.7569C189.084 10.3631 188.899 9.85231 188.899 9.22462C188.899 8.47385 189.195 7.84615 189.786 7.34154C190.39 6.83692 191.148 6.58462 192.06 6.58462C192.811 6.58462 193.47 6.75692 194.037 7.10154C194.604 7.43385 195.023 7.88923 195.294 8.46769L194.277 9.05846C193.92 8.19692 193.181 7.76615 192.06 7.76615C191.53 7.76615 191.074 7.89539 190.692 8.15385C190.31 8.4 190.119 8.75692 190.119 9.22462Z" fill="white" fill-opacity="0.6"/>
<path d="M198.691 9.22462C198.691 9.64308 198.876 9.97539 199.246 10.2215C199.615 10.4677 200.065 10.6585 200.595 10.7938C201.125 10.9292 201.655 11.0831 202.184 11.2554C202.714 11.4154 203.164 11.6923 203.534 12.0862C203.903 12.4677 204.088 12.9723 204.088 13.6C204.088 14.3877 203.774 15.0277 203.145 15.52C202.529 16.0123 201.728 16.2585 200.743 16.2585C199.856 16.2585 199.098 16.0615 198.47 15.6677C197.853 15.2738 197.422 14.7631 197.176 14.1354L198.211 13.5262C198.383 14.0062 198.691 14.3877 199.135 14.6708C199.591 14.9415 200.127 15.0769 200.743 15.0769C201.347 15.0769 201.852 14.96 202.258 14.7262C202.665 14.48 202.868 14.1046 202.868 13.6C202.868 13.1815 202.683 12.8492 202.314 12.6031C201.944 12.3569 201.494 12.1662 200.965 12.0308C200.435 11.8954 199.905 11.7477 199.375 11.5877C198.845 11.4154 198.396 11.1385 198.026 10.7569C197.656 10.3631 197.472 9.85231 197.472 9.22462C197.472 8.47385 197.767 7.84615 198.359 7.34154C198.962 6.83692 199.72 6.58462 200.632 6.58462C201.383 6.58462 202.043 6.75692 202.609 7.10154C203.176 7.43385 203.595 7.88923 203.866 8.46769L202.85 9.05846C202.492 8.19692 201.753 7.76615 200.632 7.76615C200.102 7.76615 199.646 7.89539 199.264 8.15385C198.882 8.4 198.691 8.75692 198.691 9.22462Z" fill="white" fill-opacity="0.6"/>
<path d="M134.178 37.7969C132.995 37.7969 131.978 37.52 131.128 36.9662C130.29 36.4 129.705 35.6246 129.372 34.64L130.481 33.9938C130.715 34.7938 131.147 35.4215 131.775 35.8769C132.403 36.32 133.21 36.5415 134.196 36.5415C135.157 36.5415 135.903 36.3323 136.432 35.9138C136.974 35.4831 137.246 34.9169 137.246 34.2154C137.246 33.5385 136.999 33.0277 136.506 32.6831C136.013 32.3385 135.2 31.9815 134.067 31.6123C132.724 31.1692 131.837 30.8123 131.405 30.5415C130.42 29.9508 129.927 29.0954 129.927 27.9754C129.927 26.88 130.309 26.0185 131.073 25.3908C131.837 24.7508 132.779 24.4308 133.9 24.4308C134.911 24.4308 135.785 24.6954 136.525 25.2246C137.264 25.7415 137.812 26.4062 138.17 27.2185L137.079 27.8277C136.488 26.4 135.428 25.6862 133.9 25.6862C133.099 25.6862 132.453 25.8831 131.96 26.2769C131.467 26.6708 131.22 27.2185 131.22 27.92C131.22 28.56 131.442 29.04 131.886 29.36C132.329 29.68 133.063 30.0062 134.085 30.3385C134.553 30.4985 134.886 30.6154 135.083 30.6892C135.293 30.7508 135.588 30.8615 135.97 31.0215C136.365 31.1692 136.654 31.3046 136.839 31.4277C137.024 31.5385 137.246 31.6985 137.504 31.9077C137.775 32.1046 137.966 32.3077 138.077 32.5169C138.2 32.7138 138.305 32.96 138.391 33.2554C138.49 33.5385 138.539 33.8462 138.539 34.1785C138.539 35.2738 138.139 36.1539 137.338 36.8185C136.537 37.4708 135.484 37.7969 134.178 37.7969Z" fill="white" fill-opacity="0.6"/>
<path d="M149.239 36.4123C148.303 37.3354 147.157 37.7969 145.801 37.7969C144.446 37.7969 143.294 37.3354 142.345 36.4123C141.409 35.4769 140.941 34.3262 140.941 32.96C140.941 31.5938 141.409 30.4492 142.345 29.5262C143.294 28.5908 144.446 28.1231 145.801 28.1231C147.157 28.1231 148.303 28.5908 149.239 29.5262C150.188 30.4492 150.662 31.5938 150.662 32.96C150.662 34.3262 150.188 35.4769 149.239 36.4123ZM143.214 35.5631C143.916 36.2646 144.779 36.6154 145.801 36.6154C146.824 36.6154 147.687 36.2646 148.389 35.5631C149.091 34.8492 149.442 33.9815 149.442 32.96C149.442 31.9385 149.091 31.0769 148.389 30.3754C147.687 29.6615 146.824 29.3046 145.801 29.3046C144.779 29.3046 143.916 29.6615 143.214 30.3754C142.512 31.0769 142.161 31.9385 142.161 32.96C142.161 33.9815 142.512 34.8492 143.214 35.5631Z" fill="white" fill-opacity="0.6"/>
<path d="M153.443 37.5754V24.0985H154.662V37.5754H153.443Z" fill="white" fill-opacity="0.6"/>
<path d="M164.496 28.3446H165.716V37.5754H164.496V36.1354C163.806 37.2431 162.771 37.7969 161.391 37.7969C160.27 37.7969 159.382 37.4585 158.729 36.7815C158.089 36.0923 157.768 35.1692 157.768 34.0123V28.3446H158.988V34.0123C158.988 34.8369 159.204 35.4769 159.635 35.9323C160.079 36.3877 160.701 36.6154 161.502 36.6154C162.389 36.6154 163.11 36.3385 163.664 35.7846C164.219 35.2185 164.496 34.3508 164.496 33.1815V28.3446Z" fill="white" fill-opacity="0.6"/>
<path d="M173.933 29.5262H171.271V35.12C171.271 35.6246 171.37 35.9877 171.567 36.2092C171.764 36.4185 172.06 36.5292 172.454 36.5415C172.849 36.5415 173.341 36.5292 173.933 36.5046V37.5754C172.639 37.7723 171.666 37.68 171.013 37.2985C170.372 36.9169 170.052 36.1908 170.052 35.12V29.5262H168.111V28.3446H170.052V26.1292L171.271 25.76V28.3446H173.933V29.5262Z" fill="white" fill-opacity="0.6"/>
<path d="M177.943 26.1292C177.771 26.3015 177.561 26.3877 177.315 26.3877C177.069 26.3877 176.859 26.3015 176.687 26.1292C176.514 25.9569 176.428 25.7477 176.428 25.5015C176.428 25.2554 176.514 25.0462 176.687 24.8738C176.859 24.7015 177.069 24.6154 177.315 24.6154C177.561 24.6154 177.771 24.7015 177.943 24.8738C178.116 25.0462 178.202 25.2554 178.202 25.5015C178.202 25.7477 178.116 25.9569 177.943 26.1292ZM176.705 37.5754V28.3446H177.925V37.5754H176.705Z" fill="white" fill-opacity="0.6"/>
<path d="M188.996 36.4123C188.06 37.3354 186.914 37.7969 185.559 37.7969C184.204 37.7969 183.052 37.3354 182.103 36.4123C181.166 35.4769 180.698 34.3262 180.698 32.96C180.698 31.5938 181.166 30.4492 182.103 29.5262C183.052 28.5908 184.204 28.1231 185.559 28.1231C186.914 28.1231 188.06 28.5908 188.996 29.5262C189.945 30.4492 190.42 31.5938 190.42 32.96C190.42 34.3262 189.945 35.4769 188.996 36.4123ZM182.971 35.5631C183.674 36.2646 184.536 36.6154 185.559 36.6154C186.582 36.6154 187.444 36.2646 188.146 35.5631C188.849 34.8492 189.2 33.9815 189.2 32.96C189.2 31.9385 188.849 31.0769 188.146 30.3754C187.444 29.6615 186.582 29.3046 185.559 29.3046C184.536 29.3046 183.674 29.6615 182.971 30.3754C182.269 31.0769 181.918 31.9385 181.918 32.96C181.918 33.9815 182.269 34.8492 182.971 35.5631Z" fill="white" fill-opacity="0.6"/>
<path d="M197.525 28.1231C198.646 28.1231 199.527 28.4677 200.168 29.1569C200.821 29.8338 201.147 30.7508 201.147 31.9077V37.5754H199.927V31.9077C199.927 31.0831 199.706 30.4431 199.262 29.9877C198.831 29.5323 198.215 29.3046 197.414 29.3046C196.527 29.3046 195.806 29.5877 195.252 30.1538C194.697 30.7077 194.42 31.5692 194.42 32.7385V37.5754H193.2V28.3446H194.42V29.7846C195.11 28.6769 196.145 28.1231 197.525 28.1231Z" fill="white" fill-opacity="0.6"/>
<path d="M205.206 30.7631C205.206 31.1815 205.391 31.5138 205.761 31.76C206.13 32.0062 206.58 32.1969 207.11 32.3323C207.64 32.4677 208.169 32.6215 208.699 32.7938C209.229 32.9538 209.679 33.2308 210.048 33.6246C210.418 34.0062 210.603 34.5108 210.603 35.1385C210.603 35.9262 210.289 36.5662 209.66 37.0585C209.044 37.5508 208.243 37.7969 207.258 37.7969C206.37 37.7969 205.613 37.6 204.984 37.2062C204.368 36.8123 203.937 36.3015 203.691 35.6738L204.726 35.0646C204.898 35.5446 205.206 35.9262 205.65 36.2092C206.106 36.48 206.642 36.6154 207.258 36.6154C207.861 36.6154 208.367 36.4985 208.773 36.2646C209.18 36.0185 209.383 35.6431 209.383 35.1385C209.383 34.72 209.198 34.3877 208.829 34.1415C208.459 33.8954 208.009 33.7046 207.479 33.5692C206.95 33.4338 206.42 33.2862 205.89 33.1262C205.36 32.9538 204.91 32.6769 204.541 32.2954C204.171 31.9015 203.986 31.3908 203.986 30.7631C203.986 30.0123 204.282 29.3846 204.873 28.88C205.477 28.3754 206.235 28.1231 207.147 28.1231C207.898 28.1231 208.558 28.2954 209.124 28.64C209.691 28.9723 210.11 29.4277 210.381 30.0062L209.365 30.5969C209.007 29.7354 208.268 29.3046 207.147 29.3046C206.617 29.3046 206.161 29.4338 205.779 29.6923C205.397 29.9385 205.206 30.2954 205.206 30.7631Z" fill="white" fill-opacity="0.6"/>
<ellipse cx="7.35429" cy="8.06241" rx="7.35423" ry="7.34619" fill="#F2941B"/>
<ellipse cx="7.35429" cy="31.9376" rx="7.35423" ry="7.34619" fill="#F2941B"/>
<path d="M25.4174 0.716254H31.7604V39.2837H25.4174V0.716254Z" fill="#19B2D6"/>
<path d="M77.0376 19.3388V21.9835C77.0376 27.2727 75.291 31.607 71.7977 34.9862C68.3044 38.3287 63.7448 40 58.1188 40C52.1619 40 47.2346 38.0716 43.3368 34.2149C39.4759 30.3581 37.5454 25.6198 37.5454 20C37.5454 14.4169 39.4759 9.69697 43.3368 5.84022C47.2346 1.94674 52.0516 0 57.7879 0C61.3915 0 64.6825 0.826446 67.661 2.47934C70.6394 4.13223 72.956 6.35445 74.6107 9.146L69.1502 12.2865C68.1206 10.45 66.5946 8.98072 64.5722 7.87879C62.5498 6.74013 60.2883 6.1708 57.7879 6.1708C53.7431 6.1708 50.4153 7.49311 47.8045 10.1377C45.1938 12.7824 43.8884 16.0882 43.8884 20.0551C43.8884 24.022 45.1938 27.3095 47.8045 29.9174C50.4521 32.5252 53.9085 33.8292 58.174 33.8292C61.5937 33.8292 64.3699 33.0395 66.5027 31.4601C68.6722 29.8439 70.0511 27.6951 70.6394 25.0138H57.7327V19.3388H77.0376Z" fill="#19B2D6"/>
<path d="M98.0045 0.716254C103.3 0.716254 107.694 2.57117 111.187 6.28099C114.717 9.99082 116.482 14.5638 116.482 20C116.482 25.3994 114.717 29.9725 111.187 33.719C107.694 37.4288 103.3 39.2837 98.0045 39.2837H82.8364V0.716254H98.0045ZM98.0045 33.2231C101.645 33.2231 104.605 31.9743 106.885 29.4766C109.201 26.9789 110.36 23.82 110.36 20C110.36 16.1433 109.201 12.9844 106.885 10.5234C104.605 8.02571 101.645 6.77686 98.0045 6.77686H89.1794V33.2231H98.0045Z" fill="#19B2D6"/>
</svg>
