<svg width="129" height="49" fill="none" xmlns="http://www.w3.org/2000/svg"><path d="M68.615 19.46c1.78 1.025 2.67 2.574 2.67 4.645 0 1.723-.609 3.136-1.828 4.24-1.22 1.103-2.72 1.655-4.501 1.655h-8.624V9.674h8.014c1.742 0 3.204.542 4.385 1.626 1.2 1.065 1.8 2.43 1.8 4.094 0 1.684-.639 3.04-1.916 4.066zm-4.269-6.04H60.34v4.472h4.007c.62 0 1.132-.213 1.54-.64.425-.425.638-.957.638-1.596 0-.64-.203-1.171-.61-1.597-.406-.426-.93-.64-1.568-.64zm.61 12.834c.677 0 1.239-.222 1.684-.668.445-.464.668-1.045.668-1.742 0-.677-.223-1.239-.668-1.684-.445-.465-1.007-.697-1.684-.697h-4.617v4.791h4.617zM86.79 9.674v3.833h-5.488V30h-4.007V13.507h-5.46V9.674H86.79zm10.715 20.733c-3.059 0-5.585-1.017-7.58-3.05-1.993-2.032-2.99-4.539-2.99-7.52 0-3 .997-5.507 2.99-7.52 1.995-2.033 4.521-3.05 7.58-3.05 1.839 0 3.532.436 5.081 1.307 1.568.852 2.788 2.014 3.659 3.485l-3.456 2.003a5.268 5.268 0 0 0-2.148-2.12c-.93-.522-1.975-.784-3.136-.784-1.975 0-3.572.62-4.791 1.859-1.2 1.239-1.8 2.846-1.8 4.82 0 1.955.6 3.552 1.8 4.791 1.219 1.24 2.816 1.858 4.79 1.858 1.162 0 2.207-.251 3.137-.754.948-.523 1.664-1.23 2.148-2.12l3.456 2.003c-.871 1.472-2.081 2.643-3.63 3.514-1.549.852-3.252 1.277-5.11 1.277zm19.274-20.733c2.787 0 5.11.978 6.968 2.933 1.878 1.955 2.817 4.365 2.817 7.23s-.939 5.275-2.817 7.23c-1.858 1.955-4.181 2.933-6.968 2.933h-8.073V9.674h8.073zm0 16.493c1.761 0 3.194-.58 4.297-1.742 1.103-1.181 1.655-2.71 1.655-4.588 0-1.878-.552-3.397-1.655-4.559-1.103-1.18-2.536-1.771-4.297-1.771h-4.066v12.66h4.066z" fill="#19B2D6"/><path d="M59.925 46.414c-.962 0-1.757-.317-2.386-.953-.623-.635-.935-1.415-.935-2.34 0-.926.312-1.707.935-2.342.629-.635 1.424-.953 2.386-.953.58 0 1.113.14 1.597.418.49.278.871.653 1.144 1.125l-.735.427a2.009 2.009 0 0 0-.817-.835 2.286 2.286 0 0 0-1.189-.318c-.732 0-1.33.236-1.796.708-.46.472-.69 1.062-.69 1.77 0 .701.23 1.288.69 1.76.465.472 1.064.708 1.796.708.436 0 .832-.103 1.189-.309.363-.212.635-.49.817-.835l.735.418c-.267.471-.645.85-1.135 1.134a3.198 3.198 0 0 1-1.606.417zm10.638-.962c-.635.642-1.412.962-2.332.962-.92 0-1.697-.32-2.332-.962-.635-.64-.953-1.418-.953-2.332 0-.92.318-1.697.953-2.332.635-.64 1.413-.961 2.332-.961.92 0 1.697.32 2.332.961.642.636.962 1.413.962 2.332 0 .914-.32 1.691-.962 2.332zm-4.083-.571c.472.472 1.056.708 1.751.708.696 0 1.277-.236 1.743-.708.471-.478.707-1.065.707-1.76 0-.702-.236-1.29-.707-1.761-.466-.478-1.047-.717-1.743-.717-.695 0-1.28.24-1.751.717-.466.472-.699 1.059-.699 1.76 0 .696.233 1.283.699 1.76zm11.686-4.937h.844v6.352h-.681l-3.267-4.745v4.745h-.844v-6.352h.681l3.267 4.737v-4.737zM84 46.414c-.593 0-1.1-.139-1.524-.417a2.216 2.216 0 0 1-.88-1.144l.725-.417c.249.768.814 1.153 1.697 1.153.436 0 .769-.088.998-.264a.869.869 0 0 0 .345-.717c0-.302-.115-.529-.345-.68-.23-.151-.614-.312-1.152-.481a26.005 26.005 0 0 1-.608-.2 7.59 7.59 0 0 1-.526-.236 1.793 1.793 0 0 1-.463-.326 1.811 1.811 0 0 1-.281-.445 1.537 1.537 0 0 1-.118-.617c0-.55.193-.986.58-1.306.388-.327.86-.49 1.416-.49.502 0 .938.127 1.307.38.375.255.656.59.844 1.008l-.708.408c-.272-.653-.753-.98-1.443-.98-.345 0-.623.085-.835.254a.836.836 0 0 0-.317.69c0 .278.1.49.3.635.199.145.544.297 1.034.454a6.8 6.8 0 0 1 .708.245c.157.06.272.109.344.145.073.036.17.088.29.154.128.067.221.13.282.19.06.061.13.137.209.228a.795.795 0 0 1 .181.263c.036.09.067.196.09.317.031.115.046.24.046.372 0 .557-.203 1.002-.608 1.334-.405.327-.934.49-1.588.49zm8.894-.608c-.442.406-1.013.608-1.715.608-.702 0-1.276-.202-1.724-.608-.442-.411-.662-.959-.662-1.642v-4.22h.843v4.184c0 .447.133.804.4 1.07.266.26.647.39 1.143.39s.877-.13 1.143-.39c.266-.266.4-.623.4-1.07v-4.184h.834v4.22c0 .683-.22 1.23-.662 1.642zm4.475-.308h2.741v.798h-3.585v-6.352h.844v5.554zm8.684-5.554v.799h-1.878v5.553h-.835v-5.553h-1.869v-.799h4.582zm2.514 0h.844v6.352h-.844v-6.352zm7.832 0h.844v6.352h-.68l-3.267-4.745v4.745h-.844v-6.352h.681l3.266 4.737v-4.737zm10.007 3.204v.38c0 .83-.285 1.52-.853 2.07-.569.544-1.322.816-2.26.816-.968 0-1.769-.317-2.404-.953-.629-.64-.944-1.421-.944-2.34 0-.92.315-1.698.944-2.333.635-.64 1.43-.961 2.386-.961.587 0 1.125.142 1.615.426.49.278.868.647 1.135 1.107l-.726.426a2.014 2.014 0 0 0-.826-.825 2.351 2.351 0 0 0-1.207-.318c-.726 0-1.322.24-1.788.717-.465.472-.698 1.059-.698 1.76 0 .702.233 1.289.698 1.76.472.473 1.08.709 1.824.709.636 0 1.15-.155 1.543-.463.393-.315.632-.72.717-1.216h-2.332v-.762h3.176z" fill="#fff" fill-opacity=".6"/><circle cx="9.333" cy="12.548" r="8.919" fill="#F2941B"/><circle cx="34.637" cy="38.267" r="8.919" fill="#F2941B"/><path d="M40.714 21.422a10.54 10.54 0 0 0 2.842-7.215c0-5.842-4.736-10.577-10.578-10.577a10.54 10.54 0 0 0-7.214 2.841l-.022-.021c-2.305 2.305-3.342 3.942-3.342 9.002 0 5.842-4.736 10.578-10.578 10.578-5.06 0-6.844 1.184-9.002 3.342l.022.021A10.54 10.54 0 0 0 0 36.607c0 5.842 4.736 10.578 10.578 10.578a10.54 10.54 0 0 0 7.214-2.842l.026.027c2.3-2.301 3.337-3.943 3.337-9.007 0-5.842 4.736-10.578 10.578-10.578 5.064 0 7.052-1.383 9.007-3.337l-.026-.026z" fill="#19B2D6"/></svg>