<svg width="146" height="146" viewBox="0 0 146 146" fill="none" xmlns="http://www.w3.org/2000/svg">
<circle cx="73" cy="73" r="73" fill="#EFF2F4"/>
<circle cx="73" cy="73" r="60" fill="url(#paint0_linear)"/>
<g clip-path="url(#clip0)">
<path d="M83.8126 68.2915C83.3359 68.2915 82.8639 68.0944 82.5224 67.7094C81.8945 66.9967 81.9632 65.9105 82.6737 65.2826L93.1328 56.0586C93.8455 55.433 94.9295 55.4994 95.5597 56.2098C96.1899 56.9203 96.1189 58.0088 95.4084 58.6367L84.9493 67.8607C84.6239 68.1517 84.2182 68.2915 83.8126 68.2915Z" fill="white"/>
<path d="M73.5 62.9064C72.5513 62.9064 71.7812 62.1364 71.7812 61.1877V52.021C71.7812 51.0722 72.5513 50.3022 73.5 50.3022C74.4488 50.3022 75.2188 51.0722 75.2188 52.021V61.1877C75.2188 62.1364 74.4488 62.9064 73.5 62.9064Z" fill="white"/>
<path d="M91.8334 93.5918C91.43 93.5918 91.0244 93.4497 90.699 93.1632L80.7761 84.432C80.0611 83.8064 79.9923 82.7178 80.6202 82.0051C81.2482 81.2901 82.3344 81.2237 83.0471 81.8516L92.97 90.5828C93.685 91.2085 93.7538 92.297 93.1259 93.0097C92.7844 93.3947 92.31 93.5918 91.8334 93.5918Z" fill="white"/>
<path d="M53.1271 93.8441C52.6573 93.8441 52.1898 93.6539 51.8483 93.2757C51.2135 92.5699 51.2708 91.4836 51.9767 90.8466L62.9996 80.9236C63.7054 80.2866 64.7894 80.3439 65.4287 81.052C66.0635 81.7578 66.0062 82.8441 65.3004 83.4811L54.2775 93.4041C53.9498 93.6997 53.5373 93.8441 53.1271 93.8441Z" fill="white"/>
<path d="M62.7039 69.0475C62.4036 69.0475 62.0966 68.9673 61.8193 68.8023L52.1461 62.986C51.3349 62.4979 51.0691 61.4415 51.5595 60.6279C52.0453 59.8144 53.0972 59.5485 53.9176 60.0412L63.593 65.8575C64.4043 66.3456 64.6701 67.4021 64.1797 68.2156C63.8566 68.7519 63.2882 69.0475 62.7039 69.0475Z" fill="white"/>
<path d="M73.5 60.0415C65.9169 60.0415 59.75 66.2084 59.75 73.7915C59.75 81.3746 65.9169 87.5415 73.5 87.5415C81.0831 87.5415 87.25 81.3746 87.25 73.7915C87.25 66.2084 81.0831 60.0415 73.5 60.0415ZM73.2135 72.0728H73.7865C76.156 72.0728 78.0833 74 78.0833 76.3696C78.0833 78.235 76.8825 79.8094 75.2188 80.403V81.2394C75.2188 82.1882 74.4488 82.9582 73.5 82.9582C72.5513 82.9582 71.7812 82.1882 71.7812 81.2394V80.6665H70.6354C69.6867 80.6665 68.9167 79.8965 68.9167 78.9478C68.9167 77.999 69.6867 77.229 70.6354 77.229H73.7865C74.2608 77.229 74.6458 76.844 74.6458 76.3696C74.6458 75.8953 74.2608 75.5103 73.7865 75.5103H73.2135C70.844 75.5103 68.9167 73.583 68.9167 71.2134C68.9167 69.348 70.1175 67.7736 71.7812 67.18V66.3436C71.7812 65.3948 72.5513 64.6248 73.5 64.6248C74.4488 64.6248 75.2188 65.3948 75.2188 66.3436V66.9165H76.3646C77.3133 66.9165 78.0833 67.6865 78.0833 68.6353C78.0833 69.584 77.3133 70.354 76.3646 70.354H73.2135C72.7392 70.354 72.3542 70.739 72.3542 71.2134C72.3542 71.6878 72.7392 72.0728 73.2135 72.0728Z" fill="white"/>
<path d="M73.5 53.1667C70.9722 53.1667 68.9166 51.111 68.9166 48.5833C68.9166 46.0556 70.9722 44 73.5 44C76.0277 44 78.0833 46.0556 78.0833 48.5833C78.0833 51.111 76.0277 53.1667 73.5 53.1667Z" fill="white"/>
<path d="M96.4166 60.0417C93.8889 60.0417 91.8333 57.986 91.8333 55.4583C91.8333 52.9306 93.8889 50.875 96.4166 50.875C98.9443 50.875 101 52.9306 101 55.4583C101 57.986 98.9443 60.0417 96.4166 60.0417Z" fill="white"/>
<path d="M94.125 99.0002C91.5972 99.0002 89.5416 96.9445 89.5416 94.4168C89.5416 91.8891 91.5972 89.8335 94.125 89.8335C96.6527 89.8335 98.7083 91.8891 98.7083 94.4168C98.7083 96.9445 96.6527 99.0002 94.125 99.0002Z" fill="white"/>
<path d="M50.5833 64.6252C48.0556 64.6252 46 62.5695 46 60.0418C46 57.5141 48.0556 55.4585 50.5833 55.4585C53.111 55.4585 55.1667 57.5141 55.1667 60.0418C55.1667 62.5695 53.111 64.6252 50.5833 64.6252Z" fill="white"/>
<path d="M50.5833 99.0002C48.0556 99.0002 46 96.9445 46 94.4168C46 91.8891 48.0556 89.8335 50.5833 89.8335C53.111 89.8335 55.1667 91.8891 55.1667 94.4168C55.1667 96.9445 53.111 99.0002 50.5833 99.0002Z" fill="white"/>
</g>
<defs>
<linearGradient id="paint0_linear" x1="40.5" y1="21.5" x2="96.5" y2="128" gradientUnits="userSpaceOnUse">
<stop stop-color="#56CFEB"/>
<stop offset="1" stop-color="#16A0C0"/>
</linearGradient>
<clipPath id="clip0">
<rect x="46" y="44" width="55" height="55" fill="white"/>
</clipPath>
</defs>
</svg>
