<svg width="146" height="146" viewBox="0 0 146 146" fill="none" xmlns="http://www.w3.org/2000/svg">
<circle cx="73" cy="73" r="73" fill="#EFF2F4"/>
<circle cx="73" cy="73" r="60" fill="url(#paint0_linear)"/>
<g clip-path="url(#clip0)">
<path d="M94 76.75C93.034 76.75 92.25 75.966 92.25 75V71.5H53.75V75C53.75 75.966 52.966 76.75 52 76.75C51.034 76.75 50.25 75.966 50.25 75V69.75C50.25 68.784 51.034 68 52 68H94C94.966 68 95.75 68.784 95.75 69.75V75C95.75 75.966 94.966 76.75 94 76.75Z" fill="white"/>
<path d="M73 77.333C72.034 77.333 71.25 76.549 71.25 75.583V65.083C71.25 64.117 72.034 63.333 73 63.333C73.966 63.333 74.75 64.117 74.75 65.083V75.583C74.75 76.549 73.966 77.333 73 77.333Z" fill="white"/>
<path d="M52 86.667C53.933 86.667 55.5 85.1 55.5 83.167C55.5 81.234 53.933 79.667 52 79.667C50.067 79.667 48.5 81.234 48.5 83.167C48.5 85.1 50.067 86.667 52 86.667Z" fill="white"/>
<path d="M53.75 89H50.25C47.3567 89 45 91.3543 45 94.25C45 95.216 45.784 96 46.75 96H57.25C58.216 96 59 95.216 59 94.25C59 91.3543 56.6433 89 53.75 89Z" fill="white"/>
<path d="M73 86.667C74.933 86.667 76.5 85.1 76.5 83.167C76.5 81.234 74.933 79.667 73 79.667C71.067 79.667 69.5 81.234 69.5 83.167C69.5 85.1 71.067 86.667 73 86.667Z" fill="white"/>
<path d="M74.75 89H71.25C68.3567 89 66 91.3543 66 94.25C66 95.216 66.784 96 67.75 96H78.25C79.216 96 80 95.216 80 94.25C80 91.3543 77.6433 89 74.75 89Z" fill="white"/>
<path d="M94 86.667C95.933 86.667 97.5 85.1 97.5 83.167C97.5 81.234 95.933 79.667 94 79.667C92.067 79.667 90.5 81.234 90.5 83.167C90.5 85.1 92.067 86.667 94 86.667Z" fill="white"/>
<path d="M95.75 89H92.25C89.3567 89 87 91.3543 87 94.25C87 95.216 87.784 96 88.75 96H99.25C100.216 96 101 95.216 101 94.25C101 91.3543 98.6433 89 95.75 89Z" fill="white"/>
<path d="M83.1734 47.553L77.242 46.6687L74.5563 41.001C74.267 40.3897 73.651 40 72.9744 40C72.972 40 72.9697 40 72.9674 40C72.2907 40.0023 71.6723 40.3967 71.3877 41.0127L68.7417 46.6967L62.8127 47.623C62.164 47.7233 61.6273 48.1783 61.422 48.8013C61.2143 49.4267 61.3777 50.1103 61.835 50.5793L66.1913 55.008L65.1857 61.308C65.0783 61.9683 65.363 62.6333 65.9113 63.016C66.21 63.2283 66.56 63.3333 66.9147 63.3333C67.2063 63.3333 67.5003 63.261 67.7663 63.1117L73.0373 60.1763L78.3317 63.0743C78.915 63.3963 79.636 63.359 80.1867 62.967C80.7304 62.5797 81.0103 61.9147 80.9007 61.252L79.8507 54.9613L84.1767 50.5023C84.634 50.031 84.7903 49.345 84.578 48.7243C84.3633 48.1013 83.8244 47.651 83.1734 47.553Z" fill="white"/>
</g>
<defs>
<linearGradient id="paint0_linear" x1="40.5" y1="21.5" x2="96.5" y2="128" gradientUnits="userSpaceOnUse">
<stop stop-color="#56CFEB"/>
<stop offset="1" stop-color="#16A0C0"/>
</linearGradient>
<clipPath id="clip0">
<rect x="45" y="40" width="56" height="56" fill="white"/>
</clipPath>
</defs>
</svg>
