<svg width="120" height="41" viewBox="0 0 120 41" fill="none" xmlns="http://www.w3.org/2000/svg">
<path fill-rule="evenodd" clip-rule="evenodd" d="M17.0731 1.13571C17.4181 0.934739 17.8446 0.934739 18.1896 1.13571L34.3154 10.5286C34.6565 10.7273 34.8663 11.0923 34.8663 11.487V30.2899C34.8663 30.6846 34.6565 31.0496 34.3154 31.2483L19.2987 39.9951C18.5593 40.4258 17.6314 39.8924 17.6314 39.0367V35.8673C17.6314 35.4726 17.8411 35.1076 18.1822 34.9089L29.3912 28.38C29.7323 28.1813 29.9421 27.8163 29.9421 27.4216V14.3551C29.9421 13.9604 29.7324 13.5955 29.3914 13.3968L14.3575 4.634C13.6232 4.20602 13.6233 3.14512 14.3577 2.71736L17.0731 1.13571Z" fill="#212B36"/>
<path fill-rule="evenodd" clip-rule="evenodd" d="M0.394531 30.2901C0.394531 30.6848 0.604328 31.0498 0.945422 31.2485L3.65144 32.8247C4.39085 33.2554 5.31881 32.722 5.31881 31.8663V14.3555C5.31881 13.9608 5.52861 13.5958 5.86971 13.3971L7.23304 12.603C7.57818 12.402 8.00476 12.4021 8.34984 12.6032L19.5411 19.1269C19.882 19.3256 20.0917 19.6905 20.0917 20.0851L20.0917 26.7654C20.0917 27.6188 21.0152 28.1525 21.7546 27.7263L24.4606 26.1668C24.8042 25.9688 25.0159 25.6024 25.0159 25.2059V17.217C25.0159 16.8223 24.8062 16.4573 24.4651 16.2586L8.34674 6.86821C8.0017 6.66719 7.57523 6.66717 7.23017 6.86816L0.945419 10.5289C0.604327 10.7275 0.394531 11.0925 0.394531 11.4873V30.2901Z" fill="#212B36"/>
<path fill-rule="evenodd" clip-rule="evenodd" d="M10.2422 36.0262C10.2422 36.421 10.452 36.786 10.7931 36.9847L13.4991 38.5608C14.2385 38.9915 15.1665 38.4581 15.1665 37.6024V32.8757C15.1665 32.4808 14.9566 32.1158 14.6154 31.9171L11.9094 30.3417C11.1699 29.9112 10.2422 30.4446 10.2422 31.3002V36.0262Z" fill="#05CB63"/>
<path fill-rule="evenodd" clip-rule="evenodd" d="M9.81836 24.2766C9.81836 24.7117 10.0727 25.1065 10.4687 25.2864L13.1747 26.5159C13.9091 26.8495 14.7427 26.3126 14.7427 25.5061V22.2534C14.7427 21.8183 14.4883 21.4234 14.0921 21.2435L11.3861 20.0146C10.6518 19.6812 9.81836 20.218 9.81836 21.0245V24.2766Z" fill="#05CB63"/>
<path d="M56.9203 27.3796H50.1367V25.5846L51.9526 24.7497V15.1066L50.1367 14.2717V12.4767H56.9203V14.2717L55.1044 15.1066V24.7497L56.9203 25.5846V27.3796Z" fill="#212B36"/>
<path d="M71.8164 19.7821C71.8164 22.3007 71.0998 24.2001 69.6665 25.4802C68.2472 26.7465 66.2504 27.3796 63.6761 27.3796H59.4599V12.4767H64.1353C65.6938 12.4767 67.0435 12.755 68.1846 13.3116C69.3395 13.8682 70.2301 14.6892 70.8563 15.7745C71.4963 16.846 71.8164 18.1818 71.8164 19.7821ZM68.5394 19.8655C68.5394 18.2097 68.1776 16.9991 67.454 16.2337C66.7305 15.4545 65.6799 15.0649 64.3023 15.0649H62.6116V24.7706H63.9683C67.0157 24.7706 68.5394 23.1356 68.5394 19.8655Z" fill="#212B36"/>
<path d="M81.2139 27.3796L77.6238 15.691H77.5403C77.5543 15.9693 77.5751 16.3868 77.603 16.9434C77.6308 17.5 77.6586 18.0983 77.6864 18.7384C77.7143 19.3646 77.7282 19.9351 77.7282 20.45V27.3796H74.9104V12.4767H79.2101L82.7376 23.8731H82.8002L86.5364 12.4767H90.8361V27.3796H87.8931V20.3247C87.8931 19.8516 87.9 19.3089 87.914 18.6967C87.9418 18.0844 87.9627 17.5069 87.9766 16.9643C88.0044 16.4077 88.0253 15.9902 88.0392 15.7119H87.9557L84.1152 27.3796H81.2139Z" fill="#212B36"/>
<path d="M103.722 27.3796L102.637 23.8313H97.2097L96.1244 27.3796H92.7221L97.982 12.4141H101.843L107.124 27.3796H103.722ZM101.885 21.1805L100.8 17.7157C100.73 17.4791 100.64 17.1799 100.528 16.8182C100.417 16.4564 100.306 16.0876 100.194 15.7119C100.083 15.3362 99.9927 15.0092 99.9231 14.7309C99.8536 15.0092 99.7562 15.3571 99.6309 15.7745C99.5196 16.1781 99.4083 16.5677 99.297 16.9434C99.1996 17.3052 99.123 17.5626 99.0674 17.7157L98.0029 21.1805H101.885Z" fill="#212B36"/>
<path d="M107.792 16.9434V12.9311H108.511V16.3365H110.186V16.9434H107.792Z" fill="#212B36"/>
<path d="M113.082 16.9434H112.362V13.538H111.21V12.9311H114.234V13.538H113.082V16.9434Z" fill="#212B36"/>
<path d="M119.001 14.8979C119.001 15.576 118.812 16.0874 118.433 16.432C118.055 16.7729 117.527 16.9434 116.848 16.9434H115.719V12.9311H116.966C117.379 12.9311 117.736 13.006 118.04 13.1558C118.347 13.3057 118.583 13.5267 118.748 13.8189C118.916 14.1074 119.001 14.4671 119.001 14.8979ZM118.248 14.9204C118.248 14.4408 118.137 14.0887 117.916 13.8639C117.699 13.6391 117.382 13.5267 116.966 13.5267H116.438V16.3421H116.871C117.789 16.3421 118.248 15.8682 118.248 14.9204Z" fill="#212B36"/>
</svg>
