<svg width="100" height="100" viewBox="0 0 100 100" fill="none" xmlns="http://www.w3.org/2000/svg">
<path d="M50 35.9374H62.5C63.3625 35.9374 64.0625 35.2374 64.0625 34.3749V22.5218L66.7297 19.8546L64.5203 17.6453L61.8531 20.3124H50C49.1375 20.3124 48.4375 21.0124 48.4375 21.8749V34.3749C48.4375 35.2374 49.1375 35.9374 50 35.9374ZM51.5625 23.4374H58.7281L53.5828 28.5828L55.7922 30.7921L60.9375 25.6468V32.8124H51.5625V23.4374Z" fill="#19B2D6"/>
<path d="M50 35.9374H62.5C63.3625 35.9374 64.0625 35.2374 64.0625 34.3749V22.5218L66.7297 19.8546L64.5203 17.6453L61.8531 20.3124H50C49.1375 20.3124 48.4375 21.0124 48.4375 21.8749V34.3749C48.4375 35.2374 49.1375 35.9374 50 35.9374ZM51.5625 23.4374H58.7281L53.5828 28.5828L55.7922 30.7921L60.9375 25.6468V32.8124H51.5625V23.4374Z" fill="url(#paint0_linear)"/>
<path d="M50 54.6875H62.5C63.3625 54.6875 64.0625 53.9875 64.0625 53.125V41.2718L66.7297 38.6046L64.5203 36.3953L61.8531 39.0625H50C49.1375 39.0625 48.4375 39.7625 48.4375 40.625V53.125C48.4375 53.9875 49.1375 54.6875 50 54.6875ZM51.5625 42.1875H58.7281L53.5828 47.3328L55.7922 49.5421L60.9375 44.3968V51.5625H51.5625V42.1875Z" fill="#19B2D6"/>
<path d="M50 54.6875H62.5C63.3625 54.6875 64.0625 53.9875 64.0625 53.125V41.2718L66.7297 38.6046L64.5203 36.3953L61.8531 39.0625H50C49.1375 39.0625 48.4375 39.7625 48.4375 40.625V53.125C48.4375 53.9875 49.1375 54.6875 50 54.6875ZM51.5625 42.1875H58.7281L53.5828 47.3328L55.7922 49.5421L60.9375 44.3968V51.5625H51.5625V42.1875Z" fill="url(#paint1_linear)"/>
<path d="M42.1875 20.3125H45.3125V23.4375H42.1875V20.3125Z" fill="#19B2D6"/>
<path d="M14.0625 20.3125H39.0625V23.4375H14.0625V20.3125Z" fill="#19B2D6"/>
<path d="M14.0625 26.5625H17.1875V29.6875H14.0625V26.5625Z" fill="#19B2D6"/>
<path d="M20.3125 26.5625H45.3125V29.6875H20.3125V26.5625Z" fill="#19B2D6"/>
<path d="M42.1875 39.0625H45.3125V42.1875H42.1875V39.0625Z" fill="#19B2D6"/>
<path d="M14.0625 39.0625H39.0625V42.1875H14.0625V39.0625Z" fill="#19B2D6"/>
<path d="M14.0625 45.3125H17.1875V48.4375H14.0625V45.3125Z" fill="#19B2D6"/>
<path d="M20.3125 45.3125H45.3125V48.4375H20.3125V45.3125Z" fill="#19B2D6"/>
<path d="M42.1875 57.8125H45.3125V60.9375H42.1875V57.8125Z" fill="#19B2D6"/>
<path d="M14.0625 57.8125H39.0625V60.9375H14.0625V57.8125Z" fill="#19B2D6"/>
<path d="M14.0625 64.0625H17.1875V67.1875H14.0625V64.0625Z" fill="#19B2D6"/>
<path d="M20.3125 64.0625H45.3125V67.1875H20.3125V64.0625Z" fill="#19B2D6"/>
<path d="M78.125 62.5C79.8484 62.5 81.25 63.9016 81.25 65.625H84.375C84.375 62.7219 82.375 60.2953 79.6875 59.5969V56.25H76.5625V59.5969C73.875 60.2953 71.875 62.7219 71.875 65.625C71.875 69.0719 74.6781 71.875 78.125 71.875C79.8484 71.875 81.25 73.2766 81.25 75C81.25 76.7234 79.8484 78.125 78.125 78.125C76.4016 78.125 75 76.7234 75 75H71.875C71.875 77.9031 73.875 80.3297 76.5625 81.0281V84.375H79.6875V81.0281C82.375 80.3297 84.375 77.9031 84.375 75C84.375 71.5531 81.5719 68.75 78.125 68.75C76.4016 68.75 75 67.3484 75 65.625C75 63.9016 76.4016 62.5 78.125 62.5Z" fill="#19B2D6"/>
<path d="M78.125 50C77.5969 50 77.0797 50.0391 76.5625 50.0797V9.375C76.5625 6.79063 74.4594 4.6875 71.875 4.6875H54.6875V3.125C54.6875 2.2625 53.9875 1.5625 53.125 1.5625H25C24.1375 1.5625 23.4375 2.2625 23.4375 3.125V4.6875H6.25C3.66562 4.6875 1.5625 6.79063 1.5625 9.375V93.75C1.5625 96.3344 3.66562 98.4375 6.25 98.4375H71.875C74.4594 98.4375 76.5625 96.3344 76.5625 93.75V90.5453C77.0797 90.5859 77.5969 90.625 78.125 90.625C89.325 90.625 98.4375 81.5125 98.4375 70.3125C98.4375 59.1125 89.325 50 78.125 50ZM71.875 7.8125C72.7359 7.8125 73.4375 8.51406 73.4375 9.375V50.5672C72.3625 50.8219 71.3141 51.1469 70.3125 51.5672V12.5C70.3125 11.6375 69.6125 10.9375 68.75 10.9375H54.6875V7.8125H71.875ZM26.5625 4.6875H51.5625V14.0625H26.5625V4.6875ZM53.125 17.1875C53.9875 17.1875 54.6875 16.4875 54.6875 15.625V14.0625H67.1875V53.2234C61.5594 56.8391 57.8125 63.1406 57.8125 70.3125C57.8125 77.4844 61.5594 83.7859 67.1875 87.4016V89.0625H29.6875V71.875C29.6875 71.0125 28.9875 70.3125 28.125 70.3125H10.9375V14.0625H23.4375V15.625C23.4375 16.4875 24.1375 17.1875 25 17.1875H53.125ZM13.1469 73.4375H26.5625V86.8531L13.1469 73.4375ZM73.4375 93.75C73.4375 94.6109 72.7359 95.3125 71.875 95.3125H6.25C5.38906 95.3125 4.6875 94.6109 4.6875 93.75V9.375C4.6875 8.51406 5.38906 7.8125 6.25 7.8125H23.4375V10.9375H9.375C8.5125 10.9375 7.8125 11.6375 7.8125 12.5V71.875C7.8125 72.3063 7.9875 72.6969 8.27031 72.9797L27.0187 91.7281C27.3031 92.0125 27.6938 92.1875 28.125 92.1875H68.75C69.6125 92.1875 70.3125 91.4875 70.3125 90.625V89.0578C71.3141 89.4766 72.3625 89.8016 73.4375 90.0578V93.75ZM78.125 87.5C68.6484 87.5 60.9375 79.7891 60.9375 70.3125C60.9375 60.8359 68.6484 53.125 78.125 53.125C87.6016 53.125 95.3125 60.8359 95.3125 70.3125C95.3125 79.7891 87.6016 87.5 78.125 87.5Z" fill="#19B2D6"/>
<defs>
<linearGradient id="paint0_linear" x1="48.4375" y1="26.7914" x2="66.7297" y2="26.7914" gradientUnits="userSpaceOnUse">
<stop stop-color="#F2C31B"/>
<stop offset="1" stop-color="#F2691B"/>
</linearGradient>
<linearGradient id="paint1_linear" x1="48.4375" y1="45.5414" x2="66.7297" y2="45.5414" gradientUnits="userSpaceOnUse">
<stop stop-color="#F2C31B"/>
<stop offset="1" stop-color="#F2691B"/>
</linearGradient>
</defs>
</svg>
