<svg width="100" height="100" viewBox="0 0 100 100" fill="none" xmlns="http://www.w3.org/2000/svg">
<path d="M54.6875 75.2875V71.875H51.5625V75H50V71.875H46.875V75H43.75V78.125H45.3125V87.5H43.75V90.625H46.875V93.75H50V90.625H51.5625V93.75H54.6875V90.3375C56.5015 89.6906 57.8125 87.9719 57.8125 85.9375C57.8125 84.7328 57.3422 83.6438 56.5937 82.8125C57.3437 81.9812 57.8125 80.8922 57.8125 79.6875C57.8125 77.6531 56.5015 75.9344 54.6875 75.2875ZM53.125 78.125C53.9875 78.125 54.6875 78.8266 54.6875 79.6875C54.6875 80.5484 53.9875 81.25 53.125 81.25H48.4375V78.125H53.125ZM53.125 87.5H48.4375V84.375H53.125C53.9875 84.375 54.6875 85.0766 54.6875 85.9375C54.6875 86.7984 53.9875 87.5 53.125 87.5Z" fill="#19B2D6"/>
<path d="M54.6875 75.2875V71.875H51.5625V75H50V71.875H46.875V75H43.75V78.125H45.3125V87.5H43.75V90.625H46.875V93.75H50V90.625H51.5625V93.75H54.6875V90.3375C56.5015 89.6906 57.8125 87.9719 57.8125 85.9375C57.8125 84.7328 57.3422 83.6438 56.5937 82.8125C57.3437 81.9812 57.8125 80.8922 57.8125 79.6875C57.8125 77.6531 56.5015 75.9344 54.6875 75.2875ZM53.125 78.125C53.9875 78.125 54.6875 78.8266 54.6875 79.6875C54.6875 80.5484 53.9875 81.25 53.125 81.25H48.4375V78.125H53.125ZM53.125 87.5H48.4375V84.375H53.125C53.9875 84.375 54.6875 85.0766 54.6875 85.9375C54.6875 86.7984 53.9875 87.5 53.125 87.5Z" fill="url(#paint0_linear)"/>
<path d="M82.8125 34.375C82.8125 34.0516 82.7968 33.7328 82.764 33.4172C82.2515 15.7687 67.7687 1.5625 50 1.5625C32.2312 1.5625 17.7484 15.7687 17.2359 33.4172C17.2031 33.7328 17.1875 34.0516 17.1875 34.375C17.1875 34.6781 17.2765 34.975 17.4406 35.2281L40.4343 70.4844C36.7547 73.3469 34.375 77.8016 34.375 82.8125C34.375 91.4281 41.3843 98.4375 50 98.4375C58.6156 98.4375 65.625 91.4281 65.625 82.8125C65.625 77.8016 63.2453 73.3469 59.5656 70.4859L82.5593 35.2297C82.7234 34.975 82.8125 34.6781 82.8125 34.375ZM50 4.6875C63.6625 4.6875 75.1687 13.9766 78.6093 26.5625C77.125 25.5766 75.3484 25 73.4375 25C70.1797 25 67.3062 26.6688 65.625 29.1984C63.9437 26.6688 61.0703 25 57.8125 25C54.5547 25 51.6812 26.6688 50 29.1984C48.3187 26.6688 45.4453 25 42.1875 25C38.9297 25 36.0562 26.6688 34.375 29.1984C32.6937 26.6688 29.8203 25 26.5625 25C24.6515 25 22.8734 25.5781 21.3906 26.5625C24.8312 13.9766 36.3375 4.6875 50 4.6875ZM51.5625 67.2672V34.375C51.5625 30.9281 54.3656 28.125 57.8125 28.125C61.1859 28.125 63.925 30.8156 64.0406 34.1609L51.9797 67.3281C51.8406 67.3094 51.7031 67.2812 51.5625 67.2672ZM48.0203 67.3266L35.9593 34.1594C36.075 30.8156 38.814 28.125 42.1875 28.125C45.6343 28.125 48.4375 30.9281 48.4375 34.375V67.2672C48.2968 67.2812 48.1593 67.3094 48.0203 67.3266ZM20.3343 33.9438C20.3343 33.9203 20.3375 33.8969 20.3375 33.8734C20.5953 30.6625 23.2859 28.125 26.5625 28.125C30.0093 28.125 32.8125 30.9281 32.8125 34.375C32.8125 34.5625 32.8593 34.7375 32.9187 34.9047L32.9062 34.9094L44.9531 68.0391C44.3078 68.2594 43.6843 68.5234 43.0812 68.8234L20.3343 33.9438ZM62.5 82.8125C62.5 89.7047 56.8922 95.3125 50 95.3125C43.1078 95.3125 37.5 89.7047 37.5 82.8125C37.5 75.9203 43.1078 70.3125 50 70.3125C56.8922 70.3125 62.5 75.9203 62.5 82.8125ZM55.0453 68.0391L67.0922 34.9094L67.0797 34.9047C67.1422 34.7375 67.1875 34.5625 67.1875 34.375C67.1875 30.9281 69.9906 28.125 73.4375 28.125C76.714 28.125 79.4047 30.6625 79.6625 33.8734C79.6625 33.8969 79.6656 33.9203 79.6656 33.9438L56.9172 68.8234C56.314 68.5234 55.6906 68.2609 55.0453 68.0391Z" fill="#19B2D6"/>
<defs>
<linearGradient id="paint0_linear" x1="43.75" y1="82.8125" x2="57.8125" y2="82.8125" gradientUnits="userSpaceOnUse">
<stop stop-color="#F2C31B"/>
<stop offset="1" stop-color="#F2691B"/>
</linearGradient>
</defs>
</svg>
