<svg width="100" height="100" viewBox="0 0 100 100" fill="none" xmlns="http://www.w3.org/2000/svg">
<path d="M28.125 26.5625H25.7187C26.5297 25.6594 27.1656 24.6031 27.5781 23.4375H29.6875C32.2719 23.4375 34.375 21.3344 34.375 18.75C34.375 16.7156 33.0641 14.9969 31.25 14.35V9.375C31.25 5.06719 27.7453 1.5625 23.4375 1.5625H14.0625C9.75469 1.5625 6.25 5.06719 6.25 9.375V14.35C4.43594 14.9969 3.125 16.7156 3.125 18.75C3.125 21.3344 5.22812 23.4375 7.8125 23.4375H9.92188C10.3359 24.6031 10.9719 25.6594 11.7812 26.5625H9.375C5.06719 26.5625 1.5625 30.0672 1.5625 34.375V57.8125C1.5625 60.3969 3.66562 62.5 6.25 62.5H7.8125V89.35C5.99844 89.9969 4.6875 91.7156 4.6875 93.75V96.875C4.6875 97.7391 5.38594 98.4375 6.25 98.4375H18.75H31.25C32.1141 98.4375 32.8125 97.7391 32.8125 96.875V93.75C32.8125 91.7156 31.5016 89.9969 29.6875 89.35V62.5H31.25C33.8344 62.5 35.9375 60.3969 35.9375 57.8125V34.375C35.9375 30.0672 32.4328 26.5625 28.125 26.5625ZM21.875 29.6875C21.875 31.4109 20.4734 32.8125 18.75 32.8125C17.0266 32.8125 15.625 31.4109 15.625 29.6875H21.875ZM29.6875 20.3125H28.125V17.1875H29.6875C30.55 17.1875 31.25 17.8875 31.25 18.75C31.25 19.6125 30.55 20.3125 29.6875 20.3125ZM9.375 9.375C9.375 6.79063 11.4781 4.6875 14.0625 4.6875H23.4375C26.0219 4.6875 28.125 6.79063 28.125 9.375V13.7953C26.3062 13.15 25 11.4125 25 9.375C25 8.51094 24.3016 7.8125 23.4375 7.8125C22.5734 7.8125 21.875 8.51094 21.875 9.375C21.875 11.5484 17.1484 14.0625 14.0625 14.0625H9.375V9.375ZM7.8125 20.3125C6.95 20.3125 6.25 19.6125 6.25 18.75C6.25 17.8875 6.95 17.1875 7.8125 17.1875H9.375V20.3125H7.8125ZM12.5 20.3125V17.1875H14.0625C16.5813 17.1875 20.6406 15.8188 23.0422 13.4781C23.5562 14.3078 24.2219 15.0344 25 15.6203V20.3125C25 23.7594 22.1969 26.5625 18.75 26.5625C15.3031 26.5625 12.5 23.7594 12.5 20.3125ZM9.375 29.6875H12.5C12.5 33.1344 15.3031 35.9375 18.75 35.9375C22.1969 35.9375 25 33.1344 25 29.6875H28.125C30.7094 29.6875 32.8125 31.7906 32.8125 34.375V53.125H29.6875V35.9375H26.5625V53.125H10.9375V35.9375H7.8125V53.125H4.6875V34.375C4.6875 31.7906 6.79063 29.6875 9.375 29.6875ZM6.25 59.375C5.3875 59.375 4.6875 58.675 4.6875 57.8125V56.25H7.8125V59.375H6.25ZM17.1875 95.3125H7.8125V93.75C7.8125 92.8875 8.5125 92.1875 9.375 92.1875H17.1875V95.3125ZM17.1875 62.5V89.0625H10.9375V56.25H26.5625V89.0625H20.3125V62.5H17.1875ZM29.6875 95.3125H20.3125V92.1875H28.125C28.9875 92.1875 29.6875 92.8875 29.6875 93.75V95.3125ZM31.25 59.375H29.6875V56.25H32.8125V57.8125C32.8125 58.675 32.1125 59.375 31.25 59.375Z" fill="#19B2D6"/>
<path d="M98.4375 50C98.4375 46.2281 95.7484 43.0719 92.1875 42.3453V24.8422C95.7484 24.1156 98.4375 20.9609 98.4375 17.1875C98.4375 13.4141 95.7484 10.2594 92.1875 9.53281V1.5625H89.0625V9.53281C85.5016 10.2594 82.8125 13.4156 82.8125 17.1875C82.8125 20.9594 85.5016 24.1156 89.0625 24.8422V42.3453C85.5016 43.0719 82.8125 46.2266 82.8125 50C82.8125 53.7734 85.5016 56.9281 89.0625 57.6547V75.1578C85.5016 75.8844 82.8125 79.0391 82.8125 82.8125C82.8125 86.5859 85.5016 89.7406 89.0625 90.4672V98.4375H92.1875V90.4672C95.7484 89.7406 98.4375 86.5859 98.4375 82.8125C98.4375 79.0391 95.7484 75.8844 92.1875 75.1578V57.6547C95.7484 56.9281 98.4375 53.7719 98.4375 50ZM85.9375 17.1875C85.9375 14.6031 88.0406 12.5 90.625 12.5C93.2094 12.5 95.3125 14.6031 95.3125 17.1875C95.3125 19.7719 93.2094 21.875 90.625 21.875C88.0406 21.875 85.9375 19.7719 85.9375 17.1875ZM85.9375 50C85.9375 47.4156 88.0406 45.3125 90.625 45.3125C93.2094 45.3125 95.3125 47.4156 95.3125 50C95.3125 52.5844 93.2094 54.6875 90.625 54.6875C88.0406 54.6875 85.9375 52.5844 85.9375 50ZM95.3125 82.8125C95.3125 85.3969 93.2094 87.5 90.625 87.5C88.0406 87.5 85.9375 85.3969 85.9375 82.8125C85.9375 80.2281 88.0406 78.125 90.625 78.125C93.2094 78.125 95.3125 80.2281 95.3125 82.8125Z" fill="#19B2D6"/>
<path d="M98.4375 50C98.4375 46.2281 95.7484 43.0719 92.1875 42.3453V24.8422C95.7484 24.1156 98.4375 20.9609 98.4375 17.1875C98.4375 13.4141 95.7484 10.2594 92.1875 9.53281V1.5625H89.0625V9.53281C85.5016 10.2594 82.8125 13.4156 82.8125 17.1875C82.8125 20.9594 85.5016 24.1156 89.0625 24.8422V42.3453C85.5016 43.0719 82.8125 46.2266 82.8125 50C82.8125 53.7734 85.5016 56.9281 89.0625 57.6547V75.1578C85.5016 75.8844 82.8125 79.0391 82.8125 82.8125C82.8125 86.5859 85.5016 89.7406 89.0625 90.4672V98.4375H92.1875V90.4672C95.7484 89.7406 98.4375 86.5859 98.4375 82.8125C98.4375 79.0391 95.7484 75.8844 92.1875 75.1578V57.6547C95.7484 56.9281 98.4375 53.7719 98.4375 50ZM85.9375 17.1875C85.9375 14.6031 88.0406 12.5 90.625 12.5C93.2094 12.5 95.3125 14.6031 95.3125 17.1875C95.3125 19.7719 93.2094 21.875 90.625 21.875C88.0406 21.875 85.9375 19.7719 85.9375 17.1875ZM85.9375 50C85.9375 47.4156 88.0406 45.3125 90.625 45.3125C93.2094 45.3125 95.3125 47.4156 95.3125 50C95.3125 52.5844 93.2094 54.6875 90.625 54.6875C88.0406 54.6875 85.9375 52.5844 85.9375 50ZM95.3125 82.8125C95.3125 85.3969 93.2094 87.5 90.625 87.5C88.0406 87.5 85.9375 85.3969 85.9375 82.8125C85.9375 80.2281 88.0406 78.125 90.625 78.125C93.2094 78.125 95.3125 80.2281 95.3125 82.8125Z" fill="url(#paint0_linear)"/>
<path d="M45.3125 95.3125H76.5625V98.4375H45.3125V95.3125Z" fill="#19B2D6"/>
<path d="M42.1875 90.625H73.4375V93.75H42.1875V90.625Z" fill="#19B2D6"/>
<path d="M45.3125 85.9375H76.5625V89.0625H45.3125V85.9375Z" fill="#19B2D6"/>
<path d="M42.1875 81.25H73.4375V84.375H42.1875V81.25Z" fill="#19B2D6"/>
<path d="M45.3125 76.5625H76.5625V79.6875H45.3125V76.5625Z" fill="#19B2D6"/>
<path d="M59.375 45.3125C61.0984 45.3125 62.5 46.7141 62.5 48.4375H65.625C65.625 45.5328 63.6266 43.1078 60.9375 42.4094V39.0625H57.8125V42.4094C55.1234 43.1078 53.125 45.5328 53.125 48.4375C53.125 51.8844 55.9281 54.6875 59.375 54.6875C61.0984 54.6875 62.5 56.0891 62.5 57.8125C62.5 59.5359 61.0984 60.9375 59.375 60.9375C57.6516 60.9375 56.25 59.5359 56.25 57.8125H53.125C53.125 60.7172 55.1234 63.1422 57.8125 63.8406V67.1875H60.9375V63.8406C63.6266 63.1422 65.625 60.7172 65.625 57.8125C65.625 54.3656 62.8219 51.5625 59.375 51.5625C57.6516 51.5625 56.25 50.1609 56.25 48.4375C56.25 46.7141 57.6516 45.3125 59.375 45.3125Z" fill="#19B2D6"/>
<path d="M59.375 32.8125C48.175 32.8125 39.0625 41.925 39.0625 53.125C39.0625 64.325 48.175 73.4375 59.375 73.4375C70.575 73.4375 79.6875 64.325 79.6875 53.125C79.6875 41.925 70.575 32.8125 59.375 32.8125ZM59.375 70.3125C49.8984 70.3125 42.1875 62.6016 42.1875 53.125C42.1875 43.6484 49.8984 35.9375 59.375 35.9375C68.8516 35.9375 76.5625 43.6484 76.5625 53.125C76.5625 62.6016 68.8516 70.3125 59.375 70.3125Z" fill="#19B2D6"/>
<path d="M78.7047 15.7359L71.875 13.0047V9.375C71.875 8.51094 71.1766 7.8125 70.3125 7.8125H39.0625C38.1984 7.8125 37.5 8.51094 37.5 9.375V25C37.5 25.8641 38.1984 26.5625 39.0625 26.5625H70.3125C71.1766 26.5625 71.875 25.8641 71.875 25V21.3703L78.7047 18.6391C79.2984 18.4 79.6875 17.8266 79.6875 17.1875C79.6875 16.5484 79.2984 15.975 78.7047 15.7359ZM69.7328 18.8609C69.1391 19.1 68.75 19.6734 68.75 20.3125V23.4375H40.625V10.9375H68.75V14.0625C68.75 14.7016 69.1391 15.275 69.7328 15.5141L73.9187 17.1875L69.7328 18.8609Z" fill="#19B2D6"/>
<path d="M43.75 15.625H46.875V18.75H43.75V15.625Z" fill="#19B2D6"/>
<path d="M50 15.625H53.125V18.75H50V15.625Z" fill="#19B2D6"/>
<path d="M56.25 15.625H59.375V18.75H56.25V15.625Z" fill="#19B2D6"/>
<path d="M62.5 15.625H65.625V18.75H62.5V15.625Z" fill="#19B2D6"/>
<defs>
<linearGradient id="paint0_linear" x1="82.8125" y1="50" x2="98.4375" y2="50" gradientUnits="userSpaceOnUse">
<stop stop-color="#F2C31B"/>
<stop offset="1" stop-color="#F2691B"/>
</linearGradient>
</defs>
</svg>
