<svg width="100" height="100" viewBox="0 0 100 100" fill="none" xmlns="http://www.w3.org/2000/svg">
<path d="M97.9797 20.7703L88.6047 11.3953C88.3125 11.1016 87.9141 10.9375 87.5 10.9375H65.625C64.7625 10.9375 64.0625 11.6375 64.0625 12.5V39.0625H59.375V32.8125C59.375 32.3203 59.1437 31.8578 58.75 31.5625L52.5 26.875C52.2234 26.6672 51.8937 26.575 51.5625 26.575V26.5625H23.4375V26.575C23.1047 26.575 22.7766 26.6672 22.5 26.875L16.25 31.5625C15.8562 31.8578 15.625 32.3203 15.625 32.8125V39.0625H6.25C3.66562 39.0625 1.5625 41.1656 1.5625 43.75V56.25V84.375C1.5625 86.9594 3.66562 89.0625 6.25 89.0625H68.75C71.3344 89.0625 73.4375 86.9594 73.4375 84.375V57.8125H96.875C97.7375 57.8125 98.4375 57.1141 98.4375 56.25V21.875C98.4375 21.4609 98.2734 21.0625 97.9797 20.7703ZM89.0625 16.2719L93.1031 20.3125H89.0625V16.2719ZM56.25 33.5938V39.0625H53.125V31.25L56.25 33.5938ZM50 32.8125H25V29.6875H50V32.8125ZM50 35.9375V39.0625H25V35.9375H50ZM18.75 33.5938L21.875 31.25V39.0625H18.75V33.5938ZM4.6875 43.75C4.6875 42.8891 5.38906 42.1875 6.25 42.1875H64.0625V46.875H7.8125V50H57.8125V54.6875H60.9375V50H64.0625V56.25C64.0625 57.1141 64.7625 57.8125 65.625 57.8125H70.1547C69.4281 61.3734 66.2734 64.0625 62.5 64.0625H59.375V59.375C59.375 58.5109 58.675 57.8125 57.8125 57.8125H51.5625C50.7 57.8125 50 58.5109 50 59.375V64.0625H25V59.375C25 58.5109 24.3 57.8125 23.4375 57.8125H17.1875C16.325 57.8125 15.625 58.5109 15.625 59.375V64.0625H12.5C8.19219 64.0625 4.6875 60.5578 4.6875 56.25V43.75ZM56.25 60.9375V70.3125H53.125V60.9375H56.25ZM21.875 60.9375V70.3125H18.75V60.9375H21.875ZM12.5 67.1875H15.625V71.875C15.625 72.7391 16.325 73.4375 17.1875 73.4375H23.4375C24.3 73.4375 25 72.7391 25 71.875V67.1875H50V71.875C50 72.7391 50.7 73.4375 51.5625 73.4375H57.8125C58.675 73.4375 59.375 72.7391 59.375 71.875V67.1875H62.5C65.5594 67.1875 68.325 65.9219 70.3125 63.8891V79.6875H4.6875V63.8891C6.675 65.9219 9.44063 67.1875 12.5 67.1875ZM68.75 85.9375H6.25C5.38906 85.9375 4.6875 85.2375 4.6875 84.375V82.8125H70.3125V84.375C70.3125 85.2375 69.6109 85.9375 68.75 85.9375ZM67.1875 54.6875V14.0625H85.9375V21.875C85.9375 22.7375 86.6375 23.4375 87.5 23.4375H95.3125V54.6875H67.1875Z" fill="#19B2D6"/>
<path d="M70.3125 17.1875H82.8125V20.3125H70.3125V17.1875Z" fill="#19B2D6"/>
<path d="M70.3125 17.1875H82.8125V20.3125H70.3125V17.1875Z" fill="url(#paint0_linear)"/>
<path d="M70.3125 32.8125H92.1875V35.9375H70.3125V32.8125Z" fill="#19B2D6"/>
<path d="M70.3125 32.8125H92.1875V35.9375H70.3125V32.8125Z" fill="url(#paint1_linear)"/>
<path d="M70.3125 39.0625H92.1875V42.1875H70.3125V39.0625Z" fill="#19B2D6"/>
<path d="M70.3125 39.0625H92.1875V42.1875H70.3125V39.0625Z" fill="url(#paint2_linear)"/>
<path d="M70.3125 23.4375H79.6875V26.5625H70.3125V23.4375Z" fill="#19B2D6"/>
<path d="M70.3125 23.4375H79.6875V26.5625H70.3125V23.4375Z" fill="url(#paint3_linear)"/>
<path d="M76.5625 48.4375H92.1875V51.5625H76.5625V48.4375Z" fill="#19B2D6"/>
<path d="M76.5625 48.4375H92.1875V51.5625H76.5625V48.4375Z" fill="url(#paint4_linear)"/>
<defs>
<linearGradient id="paint0_linear" x1="70.3125" y1="18.75" x2="82.8125" y2="18.75" gradientUnits="userSpaceOnUse">
<stop stop-color="#F2C31B"/>
<stop offset="1" stop-color="#F2691B"/>
</linearGradient>
<linearGradient id="paint1_linear" x1="70.3125" y1="34.375" x2="92.1875" y2="34.375" gradientUnits="userSpaceOnUse">
<stop stop-color="#F2C31B"/>
<stop offset="1" stop-color="#F2691B"/>
</linearGradient>
<linearGradient id="paint2_linear" x1="70.3125" y1="40.625" x2="92.1875" y2="40.625" gradientUnits="userSpaceOnUse">
<stop stop-color="#F2C31B"/>
<stop offset="1" stop-color="#F2691B"/>
</linearGradient>
<linearGradient id="paint3_linear" x1="70.3125" y1="25" x2="79.6875" y2="25" gradientUnits="userSpaceOnUse">
<stop stop-color="#F2C31B"/>
<stop offset="1" stop-color="#F2691B"/>
</linearGradient>
<linearGradient id="paint4_linear" x1="76.5625" y1="50" x2="92.1875" y2="50" gradientUnits="userSpaceOnUse">
<stop stop-color="#F2C31B"/>
<stop offset="1" stop-color="#F2691B"/>
</linearGradient>
</defs>
</svg>
