<svg width="100" height="100" viewBox="0 0 100 100" fill="none" xmlns="http://www.w3.org/2000/svg">
<path d="M96.875 1.5625H37.5C36.6375 1.5625 35.9375 2.2625 35.9375 3.125V7.8125H31.25C30.3875 7.8125 29.6875 8.5125 29.6875 9.375V11.7531C29.2844 11.8953 28.8891 12.0547 28.5031 12.2312L26.1047 9.83281C25.4938 9.22188 24.5063 9.22188 23.8953 9.83281L19.2078 14.5203C18.5969 15.1313 18.5969 16.1187 19.2078 16.7297L21.6063 19.1281C21.4297 19.5141 21.2703 19.9094 21.1281 20.3125H18.75H6.25C3.66562 20.3125 1.5625 22.4156 1.5625 25V71.875C1.5625 74.4594 3.66562 76.5625 6.25 76.5625H34.375V89.0625H29.6875C27.1031 89.0625 25 91.1656 25 93.75V96.875C25 97.7375 25.7 98.4375 26.5625 98.4375H60.9375C61.8 98.4375 62.5 97.7375 62.5 96.875V93.75C62.5 91.1656 60.3969 89.0625 57.8125 89.0625H53.125V76.5625H81.25C83.8344 76.5625 85.9375 74.4594 85.9375 71.875V51.5625H96.875C97.7375 51.5625 98.4375 50.8625 98.4375 50V3.125C98.4375 2.2625 97.7375 1.5625 96.875 1.5625ZM95.3125 4.6875V14.0625H39.0625V4.6875H95.3125ZM35.9375 29.3844C35.4344 29.5625 34.9141 29.6875 34.375 29.6875C31.7906 29.6875 29.6875 27.5844 29.6875 25C29.6875 22.4156 31.7906 20.3125 34.375 20.3125C34.9141 20.3125 35.4344 20.4375 35.9375 20.6156V29.3844ZM20.3125 23.4375H22.2844C22.9969 23.4375 23.6187 22.9547 23.7969 22.2656C24.0406 21.3188 24.4031 20.4219 24.8719 19.6016C25.2203 18.9891 25.1172 18.2203 24.6187 17.7219L22.5219 15.625L25 13.1469L27.0969 15.2437C27.5953 15.7422 28.3656 15.8453 28.9766 15.4969C29.7969 15.0281 30.6938 14.6672 31.6406 14.4219C32.3297 14.2453 32.8125 13.6219 32.8125 12.9094V10.9375H35.9375V17.3625C35.425 17.2578 34.9031 17.1875 34.375 17.1875C30.0672 17.1875 26.5625 20.6922 26.5625 25C26.5625 29.3078 30.0672 32.8125 34.375 32.8125C34.9031 32.8125 35.425 32.7422 35.9375 32.6375V39.0625H32.8125V37.0906C32.8125 36.3781 32.3297 35.7563 31.6406 35.5781C30.6938 35.3344 29.7969 34.9719 28.9766 34.5031C28.3656 34.1547 27.5953 34.2578 27.0969 34.7562L25 36.8531L22.5219 34.375L24.6187 32.2781C25.1172 31.7797 25.2203 31.0109 24.8719 30.3984C24.4031 29.5781 24.0422 28.6812 23.7969 27.7344C23.6203 27.0453 22.9969 26.5625 22.2844 26.5625H20.3125V23.4375ZM59.375 93.75V95.3125H28.125V93.75C28.125 92.8891 28.8266 92.1875 29.6875 92.1875H57.8125C58.6734 92.1875 59.375 92.8891 59.375 93.75ZM50 89.0625H37.5V76.5625H50V89.0625ZM81.25 73.4375H6.25C5.38906 73.4375 4.6875 72.7359 4.6875 71.875V64.0625H82.8125V71.875C82.8125 72.7359 82.1109 73.4375 81.25 73.4375ZM82.8125 60.9375H4.6875V25C4.6875 24.1391 5.38906 23.4375 6.25 23.4375H17.1875V28.125C17.1875 28.9875 17.8875 29.6875 18.75 29.6875H21.1281C21.2703 30.0906 21.4297 30.4859 21.6063 30.8719L19.2078 33.2703C18.5969 33.8812 18.5969 34.8688 19.2078 35.4797L23.8953 40.1672C24.5063 40.7781 25.4938 40.7781 26.1047 40.1672L28.5031 37.7688C28.8891 37.9453 29.2844 38.1047 29.6875 38.2469V40.625C29.6875 41.4875 30.3875 42.1875 31.25 42.1875H35.9375V50C35.9375 50.8625 36.6375 51.5625 37.5 51.5625H82.8125V60.9375ZM39.0625 48.4375V17.1875H95.3125V48.4375H39.0625Z" fill="#19B2D6"/>
<path d="M82.8125 7.8125H85.9375V10.9375H82.8125V7.8125Z" fill="#19B2D6"/>
<path d="M89.0625 7.8125H92.1875V10.9375H89.0625V7.8125Z" fill="#19B2D6"/>
<path d="M42.1875 7.8125H71.875V10.9375H42.1875V7.8125Z" fill="#19B2D6"/>
<path d="M60.4796 30.7921L65.1671 26.1046C65.7781 25.4937 65.7781 24.5062 65.1671 23.8953L60.4796 19.2078L58.2703 21.4171L61.8531 24.9999L58.2703 28.5828L60.4796 30.7921Z" fill="#19B2D6"/>
<path d="M60.4796 30.7921L65.1671 26.1046C65.7781 25.4937 65.7781 24.5062 65.1671 23.8953L60.4796 19.2078L58.2703 21.4171L61.8531 24.9999L58.2703 28.5828L60.4796 30.7921Z" fill="url(#paint0_linear)"/>
<path d="M73.8952 30.7921L76.1046 28.5828L72.5218 24.9999L76.1046 21.4171L73.8952 19.2078L69.2077 23.8953C68.5968 24.5062 68.5968 25.4937 69.2077 26.1046L73.8952 30.7921Z" fill="#19B2D6"/>
<path d="M73.8952 30.7921L76.1046 28.5828L72.5218 24.9999L76.1046 21.4171L73.8952 19.2078L69.2077 23.8953C68.5968 24.5062 68.5968 25.4937 69.2077 26.1046L73.8952 30.7921Z" fill="url(#paint1_linear)"/>
<path d="M42.1875 35.9375H92.1875V39.0625H42.1875V35.9375Z" fill="#19B2D6"/>
<path d="M42.1875 42.1875H92.1875V45.3125H42.1875V42.1875Z" fill="#19B2D6"/>
<path d="M76.5625 67.1875H79.6875V70.3125H76.5625V67.1875Z" fill="#19B2D6"/>
<path d="M70.3125 67.1875H73.4375V70.3125H70.3125V67.1875Z" fill="#19B2D6"/>
<path d="M7.8125 67.1875H14.0625V70.3125H7.8125V67.1875Z" fill="#19B2D6"/>
<defs>
<linearGradient id="paint0_linear" x1="58.2703" y1="24.9999" x2="65.6253" y2="24.9999" gradientUnits="userSpaceOnUse">
<stop stop-color="#F2C31B"/>
<stop offset="1" stop-color="#F2691B"/>
</linearGradient>
<linearGradient id="paint1_linear" x1="68.7495" y1="24.9999" x2="76.1046" y2="24.9999" gradientUnits="userSpaceOnUse">
<stop stop-color="#F2C31B"/>
<stop offset="1" stop-color="#F2691B"/>
</linearGradient>
</defs>
</svg>
