<svg width="100" height="100" viewBox="0 0 100 100" fill="none" xmlns="http://www.w3.org/2000/svg">
<path d="M26.5625 68.75V65.625H23.4375V68.75H21.875V65.625H18.75V68.75H15.625V71.875H18.75V81.25H15.625V84.375H18.75V87.5H21.875V84.375H23.4375V87.5H26.5625V84.375C29.1469 84.375 31.25 82.2719 31.25 79.6875C31.25 78.4828 30.7797 77.3938 30.0312 76.5625C30.7812 75.7312 31.25 74.6422 31.25 73.4375C31.25 70.8531 29.1469 68.75 26.5625 68.75ZM26.5625 71.875C27.425 71.875 28.125 72.5766 28.125 73.4375C28.125 74.2984 27.425 75 26.5625 75H21.875V71.875H26.5625ZM26.5625 81.25H21.875V78.125H26.5625C27.425 78.125 28.125 78.8266 28.125 79.6875C28.125 80.5484 27.425 81.25 26.5625 81.25Z" fill="#19B2D6"/>
<path d="M23.4375 59.375C13.9609 59.375 6.25 67.0859 6.25 76.5625C6.25 86.0391 13.9609 93.75 23.4375 93.75C32.9141 93.75 40.625 86.0391 40.625 76.5625C40.625 67.0859 32.9141 59.375 23.4375 59.375ZM23.4375 90.625C15.6828 90.625 9.375 84.3156 9.375 76.5625C9.375 68.8094 15.6828 62.5 23.4375 62.5C31.1922 62.5 37.5 68.8094 37.5 76.5625C37.5 84.3156 31.1922 90.625 23.4375 90.625Z" fill="#19B2D6"/>
<path d="M76.5625 62.5C86.0391 62.5 93.75 54.7891 93.75 45.3125C93.75 35.8359 86.0391 28.125 76.5625 28.125C67.0859 28.125 59.375 35.8359 59.375 45.3125C59.375 54.7891 67.0859 62.5 76.5625 62.5ZM90.625 45.3125C90.625 52.5375 85.1453 58.5031 78.125 59.2828V56.0281C80.8141 55.3297 82.8125 52.9031 82.8125 50C82.8125 46.5531 80.0094 43.75 76.5625 43.75C74.8391 43.75 73.4375 42.3484 73.4375 40.625C73.4375 38.9016 74.8391 37.5 76.5625 37.5C78.2859 37.5 79.6875 38.9016 79.6875 40.625H82.8125C82.8125 37.7219 80.8141 35.2953 78.125 34.5969V31.3422C85.1453 32.1219 90.625 38.0875 90.625 45.3125ZM75 31.3422V34.5969C72.3109 35.2953 70.3125 37.7219 70.3125 40.625C70.3125 44.0719 73.1156 46.875 76.5625 46.875C78.2859 46.875 79.6875 48.2766 79.6875 50C79.6875 51.7234 78.2859 53.125 76.5625 53.125C74.8391 53.125 73.4375 51.7234 73.4375 50H70.3125C70.3125 52.9031 72.3109 55.3297 75 56.0281V59.2828C67.9797 58.5016 62.5 52.5375 62.5 45.3125C62.5 38.0875 67.9797 32.1219 75 31.3422Z" fill="#19B2D6"/>
<path d="M96.875 1.5625H59.375C58.9594 1.5625 58.5625 1.72656 58.2703 2.02031L42.6453 17.6453C42.3516 17.9375 42.1875 18.3359 42.1875 18.75V31.25H45.3125V20.3125H59.375C60.2391 20.3125 60.9375 19.6125 60.9375 18.75V4.6875H95.3125V64.0625H57.8125V50C57.8125 49.5859 57.6484 49.1875 57.3547 48.8953L41.7297 33.2703C41.4375 32.9766 41.0406 32.8125 40.625 32.8125H3.125C2.26094 32.8125 1.5625 33.5125 1.5625 34.375V96.875C1.5625 97.7375 2.26094 98.4375 3.125 98.4375H56.25C57.1141 98.4375 57.8125 97.7375 57.8125 96.875V67.1875H96.875C97.7391 67.1875 98.4375 66.4875 98.4375 65.625V3.125C98.4375 2.2625 97.7391 1.5625 96.875 1.5625ZM47.5219 17.1875L57.8125 6.89687V17.1875H47.5219ZM42.1875 38.1469L52.4781 48.4375H42.1875V38.1469ZM4.6875 95.3125V35.9375H39.0625V50C39.0625 50.8625 39.7609 51.5625 40.625 51.5625H54.6875V95.3125H4.6875Z" fill="#19B2D6"/>
<path d="M89.0625 7.8125H92.1875V10.9375H89.0625V7.8125Z" fill="#19B2D6"/>
<path d="M64.0625 7.8125H85.9375V10.9375H64.0625V7.8125Z" fill="#19B2D6"/>
<path d="M89.0625 14.0625H92.1875V17.1875H89.0625V14.0625Z" fill="#19B2D6"/>
<path d="M64.0625 14.0625H85.9375V17.1875H64.0625V14.0625Z" fill="#19B2D6"/>
<path d="M89.0625 20.3125H92.1875V23.4375H89.0625V20.3125Z" fill="#19B2D6"/>
<path d="M64.0625 20.3125H85.9375V23.4375H64.0625V20.3125Z" fill="#19B2D6"/>
<path d="M7.8125 39.0625H10.9375V42.1875H7.8125V39.0625Z" fill="#19B2D6"/>
<path d="M7.8125 39.0625H10.9375V42.1875H7.8125V39.0625Z" fill="url(#paint0_linear)"/>
<path d="M14.0625 39.0625H35.9375V42.1875H14.0625V39.0625Z" fill="#19B2D6"/>
<path d="M14.0625 39.0625H35.9375V42.1875H14.0625V39.0625Z" fill="url(#paint1_linear)"/>
<path d="M7.8125 45.3125H10.9375V48.4375H7.8125V45.3125Z" fill="#19B2D6"/>
<path d="M7.8125 45.3125H10.9375V48.4375H7.8125V45.3125Z" fill="url(#paint2_linear)"/>
<path d="M14.0625 45.3125H35.9375V48.4375H14.0625V45.3125Z" fill="#19B2D6"/>
<path d="M14.0625 45.3125H35.9375V48.4375H14.0625V45.3125Z" fill="url(#paint3_linear)"/>
<path d="M7.8125 51.5625H10.9375V54.6875H7.8125V51.5625Z" fill="#19B2D6"/>
<path d="M7.8125 51.5625H10.9375V54.6875H7.8125V51.5625Z" fill="url(#paint4_linear)"/>
<path d="M14.0625 51.5625H35.9375V54.6875H14.0625V51.5625Z" fill="#19B2D6"/>
<path d="M14.0625 51.5625H35.9375V54.6875H14.0625V51.5625Z" fill="url(#paint5_linear)"/>
<defs>
<linearGradient id="paint0_linear" x1="7.8125" y1="40.625" x2="10.9375" y2="40.625" gradientUnits="userSpaceOnUse">
<stop stop-color="#F2C31B"/>
<stop offset="1" stop-color="#F2691B"/>
</linearGradient>
<linearGradient id="paint1_linear" x1="14.0625" y1="40.625" x2="35.9375" y2="40.625" gradientUnits="userSpaceOnUse">
<stop stop-color="#F2C31B"/>
<stop offset="1" stop-color="#F2691B"/>
</linearGradient>
<linearGradient id="paint2_linear" x1="7.8125" y1="46.875" x2="10.9375" y2="46.875" gradientUnits="userSpaceOnUse">
<stop stop-color="#F2C31B"/>
<stop offset="1" stop-color="#F2691B"/>
</linearGradient>
<linearGradient id="paint3_linear" x1="14.0625" y1="46.875" x2="35.9375" y2="46.875" gradientUnits="userSpaceOnUse">
<stop stop-color="#F2C31B"/>
<stop offset="1" stop-color="#F2691B"/>
</linearGradient>
<linearGradient id="paint4_linear" x1="7.8125" y1="53.125" x2="10.9375" y2="53.125" gradientUnits="userSpaceOnUse">
<stop stop-color="#F2C31B"/>
<stop offset="1" stop-color="#F2691B"/>
</linearGradient>
<linearGradient id="paint5_linear" x1="14.0625" y1="53.125" x2="35.9375" y2="53.125" gradientUnits="userSpaceOnUse">
<stop stop-color="#F2C31B"/>
<stop offset="1" stop-color="#F2691B"/>
</linearGradient>
</defs>
</svg>
