<svg width="100" height="100" viewBox="0 0 100 100" fill="none" xmlns="http://www.w3.org/2000/svg">
<path d="M72.5806 48.3872C84.1419 48.3872 93.5484 38.9807 93.5484 27.4194H90.3226C90.3226 37.2016 82.3628 45.1614 72.5806 45.1614V48.3872Z" fill="#19B2D6"/>
<path d="M72.5807 6.45166C61.0194 6.45166 51.6129 15.8582 51.6129 27.4194H54.8387C54.8387 17.6372 62.7985 9.67747 72.5807 9.67747V6.45166Z" fill="#19B2D6"/>
<path d="M70.9677 16.3583C68.1916 17.0789 66.129 19.5825 66.129 22.5807C66.129 26.1389 69.0225 29.0324 72.5806 29.0324C74.3597 29.0324 75.8064 30.4791 75.8064 32.2582C75.8064 34.0372 74.3597 35.484 72.5806 35.484C70.8016 35.484 69.3548 34.0372 69.3548 32.2582H66.129C66.129 35.2564 68.1916 37.76 70.9677 38.4806V41.9356H74.1935V38.4806C76.9697 37.76 79.0322 35.2564 79.0322 32.2582C79.0322 28.7 76.1388 25.8065 72.5806 25.8065C70.8016 25.8065 69.3548 24.3598 69.3548 22.5807C69.3548 20.8017 70.8016 19.3549 72.5806 19.3549C74.3597 19.3549 75.8064 20.8017 75.8064 22.5807H79.0322C79.0322 19.5825 76.9697 17.0789 74.1935 16.3583V12.9033H70.9677V16.3583Z" fill="#19B2D6"/>
<path d="M88.7097 77.4194C85.1114 77.4194 81.91 79.1181 79.8403 81.7485L68.7642 76.8255C70.1873 72.9886 70.9677 68.8421 70.9677 64.5161C70.9677 61.095 70.4708 57.7889 69.5628 54.6568C70.5645 54.7663 71.571 54.8387 72.5806 54.8387C87.7 54.8387 100 42.5387 100 27.4194C100 12.3 87.7 0 72.5806 0C57.4613 0 45.1613 12.3 45.1613 27.4194C45.1613 28.429 45.2337 29.4355 45.3432 30.4372C42.2111 29.5292 38.905 29.0323 35.4839 29.0323C30.6373 29.0323 26.0159 30.0112 21.8033 31.7792L17.0142 21.0048C20.3385 19.0375 22.5806 15.4242 22.5806 11.2903C22.5806 5.06631 17.5143 0 11.2903 0C5.06631 0 0 5.06631 0 11.2903C0 17.5143 5.06631 22.5806 11.2903 22.5806C12.2354 22.5806 13.1497 22.4515 14.0294 22.231L18.8886 33.1645C7.66444 39.131 0 50.9435 0 64.5161C0 84.082 15.918 100 35.4839 100C49.5826 100 61.7841 91.7339 67.5049 79.797L78.2211 84.5593C77.71 85.8454 77.4194 87.2433 77.4194 88.7097C77.4194 94.9337 82.4857 100 88.7097 100C94.9337 100 100 94.9337 100 88.7097C100 82.4857 94.9337 77.4194 88.7097 77.4194ZM3.22581 11.2903C3.22581 6.84381 6.84381 3.22581 11.2903 3.22581C15.7368 3.22581 19.3548 6.84381 19.3548 11.2903C19.3548 15.7368 15.7368 19.3548 11.2903 19.3548C6.84381 19.3548 3.22581 15.7368 3.22581 11.2903ZM48.3871 27.4194C48.3871 14.079 59.2403 3.22581 72.5806 3.22581C85.921 3.22581 96.7742 14.079 96.7742 27.4194C96.7742 40.7597 85.921 51.6129 72.5806 51.6129C71.1694 51.6129 69.7596 51.4774 68.3791 51.2357C64.7729 42.3371 57.6629 35.2271 48.7643 31.6209C48.5226 30.2404 48.3871 28.8306 48.3871 27.4194ZM35.4839 96.7742C17.697 96.7742 3.22581 82.303 3.22581 64.5161C3.22581 46.7293 17.697 32.2581 35.4839 32.2581C53.2707 32.2581 67.7419 46.7293 67.7419 64.5161C67.7419 82.303 53.2707 96.7742 35.4839 96.7742ZM88.7097 96.7742C84.2632 96.7742 80.6452 93.1562 80.6452 88.7097C80.6452 84.2632 84.2632 80.6452 88.7097 80.6452C93.1562 80.6452 96.7742 84.2632 96.7742 88.7097C96.7742 93.1562 93.1562 96.7742 88.7097 96.7742Z" fill="#19B2D6"/>
<path d="M44.0599 62.9792L30.4599 56.1797C29.9312 55.9179 29.3073 55.9417 28.8058 56.2544C28.306 56.5655 28 57.1112 28 57.701V71.3001C28 71.89 28.306 72.4356 28.8075 72.7467C29.0795 72.915 29.3889 73 29.7 73C29.9601 73 30.2202 72.9405 30.4599 72.8215L44.0599 66.022C44.6362 65.733 45 65.1448 45 64.5006C45 63.8563 44.6362 63.2682 44.0599 62.9792ZM31.4 68.5497V60.4515L39.4988 64.5006L31.4 68.5497Z" fill="#19B2D6"/>
<path d="M44.0599 62.9792L30.4599 56.1797C29.9312 55.9179 29.3073 55.9417 28.8058 56.2544C28.306 56.5655 28 57.1112 28 57.701V71.3001C28 71.89 28.306 72.4356 28.8075 72.7467C29.0795 72.915 29.3889 73 29.7 73C29.9601 73 30.2202 72.9405 30.4599 72.8215L44.0599 66.022C44.6362 65.733 45 65.1448 45 64.5006C45 63.8563 44.6362 63.2682 44.0599 62.9792ZM31.4 68.5497V60.4515L39.4988 64.5006L31.4 68.5497Z" fill="url(#paint0_linear)"/>
<path d="M88.7097 90.3226V93.5484C91.3771 93.5484 93.5484 91.3771 93.5484 88.7097H90.3226C90.3226 89.5996 89.5996 90.3226 88.7097 90.3226Z" fill="#19B2D6"/>
<path d="M11.2903 12.9032V16.129C13.9577 16.129 16.129 13.9577 16.129 11.2903H12.9032C12.9032 12.1802 12.1802 12.9032 11.2903 12.9032Z" fill="#19B2D6"/>
<defs>
<linearGradient id="paint0_linear" x1="28" y1="64.5" x2="45" y2="64.5" gradientUnits="userSpaceOnUse">
<stop stop-color="#F2C31B"/>
<stop offset="1" stop-color="#F2691B"/>
</linearGradient>
</defs>
</svg>
