<svg width="100" height="100" viewBox="0 0 100 100" fill="none" xmlns="http://www.w3.org/2000/svg">
<path d="M57.8125 59.375H54.3422C58.0891 55.7109 60.5078 50.7156 60.8656 45.1625C64.4625 44.4625 67.1875 41.2969 67.1875 37.5C67.1875 33.7281 64.4984 30.5719 60.9375 29.8453V26.5625H71.875C74.4594 26.5625 76.5625 24.4594 76.5625 21.875C76.5625 19.2906 74.4594 17.1875 71.875 17.1875H63.5578L59.5016 7.04531C58.1688 3.71406 54.9891 1.5625 51.4016 1.5625C49.0734 1.5625 46.8828 2.47031 45.2359 4.11719C43.8812 5.47187 42.0047 6.25 40.0859 6.25H38.0375C36.1188 6.25 34.2422 5.47187 32.8875 4.11719C31.2406 2.47031 29.0516 1.5625 26.7234 1.5625C23.1359 1.5625 19.9578 3.71406 18.6234 7.04531L14.5672 17.1875H6.25C3.66562 17.1875 1.5625 19.2906 1.5625 21.875C1.5625 24.4594 3.66562 26.5625 6.25 26.5625H17.1875V29.8453C13.6266 30.5719 10.9375 33.7281 10.9375 37.5C10.9375 41.2969 13.6625 44.4625 17.2594 45.1625C17.6172 50.7156 20.0359 55.7109 23.7828 59.375H20.3125C12.5578 59.375 6.25 65.6844 6.25 73.4375V96.875C6.25 97.7375 6.94844 98.4375 7.8125 98.4375H70.3125C71.1766 98.4375 71.875 97.7375 71.875 96.875V73.4375C71.875 65.6844 65.5672 59.375 57.8125 59.375ZM64.0625 37.5C64.0625 39.5344 62.7516 41.2531 60.9375 41.9V33.1016C62.7516 33.7469 64.0625 35.4656 64.0625 37.5ZM21.525 8.20625C22.3797 6.06875 24.4203 4.6875 26.7234 4.6875C28.2172 4.6875 29.6219 5.27031 30.6797 6.32656C32.6453 8.29219 35.2578 9.375 38.0391 9.375H40.0875C42.8672 9.375 45.4812 8.29219 47.4469 6.32656C48.5031 5.27031 49.9078 4.6875 51.4016 4.6875C53.7047 4.6875 55.7437 6.06875 56.5984 8.20625L60.1922 17.1875H17.9328L21.525 8.20625ZM4.6875 21.875C4.6875 21.0141 5.3875 20.3125 6.25 20.3125H15.625H62.5H71.875C72.7375 20.3125 73.4375 21.0141 73.4375 21.875C73.4375 22.7359 72.7375 23.4375 71.875 23.4375H6.25C5.3875 23.4375 4.6875 22.7359 4.6875 21.875ZM14.0625 37.5C14.0625 35.4656 15.3734 33.7469 17.1875 33.1V41.8984C15.3734 41.2531 14.0625 39.5344 14.0625 37.5ZM20.3125 43.75V26.5625H57.8125V43.75C57.8125 54.0891 49.4016 62.5 39.0625 62.5C28.7234 62.5 20.3125 54.0891 20.3125 43.75ZM48.3813 63.5125C47.8734 68.2078 43.8906 71.875 39.0625 71.875C34.2344 71.875 30.2516 68.2078 29.7437 63.5125C32.5766 64.8531 35.7266 65.625 39.0625 65.625C42.3984 65.625 45.5484 64.8531 48.3813 63.5125ZM68.75 95.3125H60.9375V78.125H57.8125V95.3125H20.3125V78.125H17.1875V95.3125H9.375V73.4375C9.375 67.4062 14.2828 62.5 20.3125 62.5H26.5625C26.5625 69.3922 32.1703 75 39.0625 75C45.9547 75 51.5625 69.3922 51.5625 62.5H57.8125C63.8422 62.5 68.75 67.4062 68.75 73.4375V95.3125Z" fill="#19B2D6"/>
<path d="M85.9375 40.625V34.375H82.8125V40.625H76.5625V43.75H82.8125V50H85.9375V43.75H92.1875V40.625H85.9375Z" fill="#19B2D6"/>
<path d="M85.9375 40.625V34.375H82.8125V40.625H76.5625V43.75H82.8125V50H85.9375V43.75H92.1875V40.625H85.9375Z" fill="url(#paint0_linear)"/>
<path d="M84.375 28.125C76.6203 28.125 70.3125 34.4344 70.3125 42.1875C70.3125 49.9406 76.6203 56.25 84.375 56.25C92.1297 56.25 98.4375 49.9406 98.4375 42.1875C98.4375 34.4344 92.1297 28.125 84.375 28.125ZM84.375 53.125C78.3453 53.125 73.4375 48.2188 73.4375 42.1875C73.4375 36.1562 78.3453 31.25 84.375 31.25C90.4047 31.25 95.3125 36.1562 95.3125 42.1875C95.3125 48.2188 90.4047 53.125 84.375 53.125Z" fill="#19B2D6"/>
<path d="M37.5 50H40.625V53.125H37.5V50Z" fill="#19B2D6"/>
<path d="M39.0625 32.8125C41.6469 32.8125 43.75 34.9156 43.75 37.5C43.75 40.0844 41.6469 42.1875 39.0625 42.1875C38.1984 42.1875 37.5 42.8875 37.5 43.75V48.4375H40.625V45.1547C44.1859 44.4297 46.875 41.2719 46.875 37.5C46.875 33.1922 43.3703 29.6875 39.0625 29.6875C34.7547 29.6875 31.25 33.1922 31.25 37.5H34.375C34.375 34.9156 36.4781 32.8125 39.0625 32.8125Z" fill="#19B2D6"/>
<defs>
<linearGradient id="paint0_linear" x1="76.5625" y1="42.1875" x2="92.1875" y2="42.1875" gradientUnits="userSpaceOnUse">
<stop stop-color="#F2C31B"/>
<stop offset="1" stop-color="#F2691B"/>
</linearGradient>
</defs>
</svg>
