<svg width="100" height="100" viewBox="0 0 100 100" fill="none" xmlns="http://www.w3.org/2000/svg">
<path d="M54.6875 59.5328V43.75C54.6875 42.8875 53.9891 42.1875 53.125 42.1875H46.875C46.4422 42.1875 46.0516 42.3625 45.7687 42.6469L45.6266 42.7891C37.9531 50.4609 27.7516 54.6875 16.9 54.6875H6.25C3.66562 54.6875 1.5625 56.7906 1.5625 59.375V75C1.5625 77.5844 3.66562 79.6875 6.25 79.6875H7.8125V93.75C7.8125 96.3344 9.91562 98.4375 12.5 98.4375H15.625C18.2094 98.4375 20.3125 96.3344 20.3125 93.75V92.1875H21.875C24.4594 92.1875 26.5625 90.0844 26.5625 87.5C26.5625 84.9156 24.4594 82.8125 21.875 82.8125H20.3125V79.8391C29.8766 80.6297 38.7641 84.7234 45.6266 91.5875L45.7687 91.7297C46.0516 92.0109 46.4422 92.1875 46.875 92.1875H53.125C53.9891 92.1875 54.6875 91.4891 54.6875 90.625V74.8422C58.2484 74.1156 60.9375 70.9609 60.9375 67.1875C60.9375 63.4141 58.2484 60.2594 54.6875 59.5328ZM17.1875 76.5688V57.8062C18.2359 57.8 19.2766 57.75 20.3125 57.6703V76.7062C19.2766 76.6266 18.2359 76.5766 17.1875 76.5688ZM23.4375 57.3297C31.525 56.125 39.0563 52.6813 45.3125 47.3188V87.0578C39.0563 81.6953 31.525 78.2516 23.4375 77.0469V57.3297ZM4.6875 75V59.375C4.6875 58.5125 5.3875 57.8125 6.25 57.8125H14.0625V76.5625H6.25C5.3875 76.5625 4.6875 75.8625 4.6875 75ZM21.875 85.9375C22.7375 85.9375 23.4375 86.6375 23.4375 87.5C23.4375 88.3625 22.7375 89.0625 21.875 89.0625H20.3125V85.9375H21.875ZM17.1875 93.75C17.1875 94.6125 16.4875 95.3125 15.625 95.3125H12.5C11.6375 95.3125 10.9375 94.6125 10.9375 93.75V79.6875H16.9C16.9953 79.6875 17.0906 79.6938 17.1875 79.6938V93.75ZM51.5625 89.0625H48.4375V45.3125H51.5625V89.0625ZM54.6875 71.5875V62.7891C56.5016 63.4359 57.8125 65.1547 57.8125 67.1891C57.8125 69.2234 56.5016 70.9406 54.6875 71.5875Z" fill="#19B2D6"/>
<path d="M41.3234 65.7892L28.8234 59.5392C28.3375 59.2985 27.7641 59.3204 27.3031 59.6079C26.8438 59.8938 26.5625 60.3954 26.5625 60.9376V73.4376C26.5625 73.9798 26.8438 74.4813 27.3047 74.7673C27.5547 74.922 27.8391 75.0001 28.125 75.0001C28.3641 75.0001 28.6031 74.9454 28.8234 74.836L41.3234 68.586C41.8531 68.3204 42.1875 67.7798 42.1875 67.1876C42.1875 66.5954 41.8531 66.0548 41.3234 65.7892ZM29.6875 70.9095V63.4657L37.1313 67.1876L29.6875 70.9095Z" fill="#19B2D6"/>
<path d="M41.3234 65.7892L28.8234 59.5392C28.3375 59.2985 27.7641 59.3204 27.3031 59.6079C26.8438 59.8938 26.5625 60.3954 26.5625 60.9376V73.4376C26.5625 73.9798 26.8438 74.4813 27.3047 74.7673C27.5547 74.922 27.8391 75.0001 28.125 75.0001C28.3641 75.0001 28.6031 74.9454 28.8234 74.836L41.3234 68.586C41.8531 68.3204 42.1875 67.7798 42.1875 67.1876C42.1875 66.5954 41.8531 66.0548 41.3234 65.7892ZM29.6875 70.9095V63.4657L37.1313 67.1876L29.6875 70.9095Z" fill="url(#paint0_linear)"/>
<path d="M89.0625 76.7204V43.7048C94.7422 39.4235 98.4375 32.6438 98.4375 24.9985C98.4375 12.0751 87.9234 1.56104 75 1.56104C68.8703 1.56104 63.3 3.94541 59.1187 7.81103H35.7797C35.0531 4.25166 31.8969 1.5626 28.125 1.5626C23.8172 1.5626 20.3125 5.06728 20.3125 9.3751C20.3125 13.6829 23.8172 17.1876 28.125 17.1876C31.8969 17.1876 35.0531 14.4985 35.7797 10.9376H56.2953C53.6344 14.4688 51.9531 18.7626 51.6422 23.4376H17.0297C16.3031 19.8767 13.1469 17.1876 9.375 17.1876C5.06719 17.1876 1.5625 20.6923 1.5625 25.0001C1.5625 29.3079 5.06719 32.8126 9.375 32.8126C13.1469 32.8126 16.3031 30.1235 17.0297 26.5626H51.6422C52.3469 37.1782 60.125 45.8892 70.3125 47.9657V57.9704C66.7516 58.697 64.0625 61.8517 64.0625 65.6251C64.0625 69.9329 67.5672 73.4376 71.875 73.4376C76.1828 73.4376 79.6875 69.9329 79.6875 65.6251C79.6875 61.8532 76.9984 58.697 73.4375 57.9704V48.3579C73.9563 48.3923 74.4719 48.4376 75 48.4376C78.95 48.4376 82.6687 47.4454 85.9375 45.7126V76.7204C82.3766 77.447 79.6875 80.6017 79.6875 84.3751C79.6875 88.6829 83.1922 92.1876 87.5 92.1876C91.8078 92.1876 95.3125 88.6829 95.3125 84.3751C95.3125 80.6032 92.6234 77.447 89.0625 76.7204ZM28.125 14.0626C25.5406 14.0626 23.4375 11.9595 23.4375 9.3751C23.4375 6.79072 25.5406 4.6876 28.125 4.6876C30.7094 4.6876 32.8125 6.79072 32.8125 9.3751C32.8125 11.9595 30.7094 14.0626 28.125 14.0626ZM9.375 29.6876C6.79063 29.6876 4.6875 27.5845 4.6875 25.0001C4.6875 22.4157 6.79063 20.3126 9.375 20.3126C11.9594 20.3126 14.0625 22.4157 14.0625 25.0001C14.0625 27.5845 11.9594 29.6876 9.375 29.6876ZM76.5625 65.6251C76.5625 68.2095 74.4594 70.3126 71.875 70.3126C69.2906 70.3126 67.1875 68.2095 67.1875 65.6251C67.1875 63.0407 69.2906 60.9376 71.875 60.9376C74.4594 60.9376 76.5625 63.0407 76.5625 65.6251ZM80.2984 44.5876C81.9109 41.8876 83.0656 38.0157 83.7219 33.722C88.0156 33.0642 91.8875 31.911 94.5875 30.297C92.7062 37.2407 87.2406 42.7063 80.2984 44.5876ZM69.4922 34.111C71.3125 34.2798 73.1641 34.3751 75 34.3751C76.8359 34.3751 78.6875 34.2798 80.5078 34.111C79.2984 41.1313 76.8484 45.3126 75 45.3126C73.1516 45.3126 70.7016 41.1329 69.4922 34.111ZM68.75 25.0001C68.75 22.8782 68.8656 20.9001 69.0578 19.0579C70.9 18.8657 72.8781 18.7501 75 18.7501C77.1219 18.7501 79.1 18.8657 80.9422 19.0579C81.1344 20.9001 81.25 22.8782 81.25 25.0001C81.25 27.122 81.1344 29.1001 80.9422 30.9423C79.1 31.1345 77.1219 31.2501 75 31.2501C72.8781 31.2501 70.9 31.1345 69.0578 30.9423C68.8656 29.1001 68.75 27.122 68.75 25.0001ZM65.8891 30.5079C58.8672 29.2985 54.6875 26.8485 54.6875 25.0001C54.6875 23.1517 58.8672 20.7017 65.8891 19.4923C65.7203 21.3126 65.625 23.1642 65.625 25.0001C65.625 26.836 65.7203 28.6876 65.8891 30.5079ZM75 4.6876C76.8484 4.6876 79.2984 8.86728 80.5078 15.8892C78.6875 15.7204 76.8359 15.6251 75 15.6251C73.1641 15.6251 71.3125 15.7204 69.4922 15.8892C70.7016 8.86728 73.1516 4.6876 75 4.6876ZM84.1109 19.4923C91.1328 20.7017 95.3125 23.1517 95.3125 25.0001C95.3125 26.8485 91.1328 29.2985 84.1109 30.5079C84.2797 28.6876 84.375 26.836 84.375 25.0001C84.375 23.1642 84.2797 21.3126 84.1109 19.4923ZM94.5875 19.7032C91.8875 18.0907 88.0156 16.936 83.7219 16.2782C83.0641 11.9845 81.9109 8.1126 80.2984 5.4126C87.2406 7.29385 92.7062 12.7595 94.5875 19.7032ZM69.7016 5.4126C68.0891 8.1126 66.9344 11.9845 66.2781 16.2782C61.9844 16.936 58.1125 18.0892 55.4125 19.7017C57.2938 12.7595 62.7594 7.29385 69.7016 5.4126ZM55.4125 30.297C58.1125 31.9095 61.9844 33.0642 66.2781 33.7204C66.9359 38.0142 68.0891 41.886 69.7016 44.586C62.7594 42.7063 57.2938 37.2407 55.4125 30.297ZM87.5 89.0626C84.9156 89.0626 82.8125 86.9595 82.8125 84.3751C82.8125 81.7907 84.9156 79.6876 87.5 79.6876C90.0844 79.6876 92.1875 81.7907 92.1875 84.3751C92.1875 86.9595 90.0844 89.0626 87.5 89.0626Z" fill="#19B2D6"/>
<defs>
<linearGradient id="paint0_linear" x1="26.5625" y1="67.1871" x2="42.1875" y2="67.1871" gradientUnits="userSpaceOnUse">
<stop stop-color="#F2C31B"/>
<stop offset="1" stop-color="#F2691B"/>
</linearGradient>
</defs>
</svg>
