<svg width="100" height="100" viewBox="0 0 100 100" fill="none" xmlns="http://www.w3.org/2000/svg">
<path d="M78.5422 64.7437C77.2312 54.9108 71.9562 45.8546 64.0625 39.8515V33.0999C64.0625 21.414 59.5109 10.428 51.2484 2.16396L51.1047 2.02021C50.4937 1.40928 49.5062 1.40928 48.8953 2.02021L48.7515 2.16396C40.489 10.4265 35.9375 21.414 35.9375 33.0999V39.8515C28.0437 45.8546 22.7687 54.9108 21.4578 64.7437L20.3265 73.2312C20.2281 73.9718 20.6672 74.6796 21.375 74.9187C21.5406 74.9734 21.7094 74.9999 21.875 74.9999C22.4234 74.9999 22.9484 74.7093 23.2312 74.2124L24.8297 71.414C27.1609 67.3359 31.325 64.6671 35.9375 64.1655V65.6249C35.9375 66.4874 36.6375 67.1874 37.5 67.1874H39.0625V71.8749C39.0625 72.7374 39.7625 73.4374 40.625 73.4374H48.4375V79.6874H51.5625V73.4374H59.375C60.2375 73.4374 60.9375 72.7374 60.9375 71.8749V67.1874H62.5C63.3625 67.1874 64.0625 66.4874 64.0625 65.6249V64.1671C68.675 64.6671 72.839 67.3374 75.1703 71.4155L76.7687 74.214C77.0531 74.7093 77.5765 74.9999 78.125 74.9999C78.2906 74.9999 78.4594 74.9733 78.625 74.9171C79.3328 74.678 79.7719 73.9718 79.6734 73.2296L78.5422 64.7437ZM50 5.36709C53.2828 8.87647 55.8672 12.8749 57.7031 17.1874H42.2969C44.1328 12.8749 46.7172 8.87647 50 5.36709ZM24.3359 66.7983L24.5547 65.1562C25.6469 56.9593 29.7625 49.3702 35.9375 43.9202V61.0202C31.464 61.4202 27.314 63.4999 24.3359 66.7983ZM57.8125 70.3124H42.1875V67.1874H57.8125V70.3124ZM60.9375 64.0624H39.0625V33.0999C39.0625 28.6874 39.7687 24.3843 41.114 20.3124H58.8875C60.2312 24.3843 60.9375 28.6874 60.9375 33.0999V64.0624ZM64.0625 61.0218V43.9202C70.2375 49.3718 74.3515 56.9608 75.4453 65.1562L75.664 66.7983C72.6859 63.4999 68.5359 61.4202 64.0625 61.0218Z" fill="#19B2D6"/>
<path d="M50 29.6875C44.8297 29.6875 40.625 33.8922 40.625 39.0625C40.625 44.2328 44.8297 48.4375 50 48.4375C55.1703 48.4375 59.375 44.2328 59.375 39.0625C59.375 33.8922 55.1703 29.6875 50 29.6875ZM50 45.3125C46.5531 45.3125 43.75 42.5094 43.75 39.0625C43.75 35.6156 46.5531 32.8125 50 32.8125C53.4469 32.8125 56.25 35.6156 56.25 39.0625C56.25 42.5094 53.4469 45.3125 50 45.3125Z" fill="#19B2D6"/>
<path d="M57.55 75.6953L54.95 77.4281L56.6109 79.9203C57.3969 81.1 57.8125 82.4719 57.8125 83.8891C57.8125 85.8 57.0688 87.5969 55.7172 88.9484L50 94.6656L44.2828 88.9484C42.9312 87.5969 42.1875 85.8 42.1875 83.8891C42.1875 82.4719 42.6031 81.1 43.3891 79.9203L45.05 77.4281L42.45 75.6953L40.7891 78.1875C39.6594 79.8813 39.0625 81.8531 39.0625 83.8891C39.0625 86.6344 40.1313 89.2172 42.0734 91.1578L48.8953 97.9797C49.2 98.2844 49.6 98.4375 50 98.4375C50.4 98.4375 50.8 98.2844 51.1047 97.9797L57.9266 91.1578C59.8688 89.2172 60.9375 86.6344 60.9375 83.8891C60.9375 81.8531 60.3406 79.8813 59.2109 78.1875L57.55 75.6953Z" fill="#19B2D6"/>
<path d="M57.55 75.6953L54.95 77.4281L56.6109 79.9203C57.3969 81.1 57.8125 82.4719 57.8125 83.8891C57.8125 85.8 57.0688 87.5969 55.7172 88.9484L50 94.6656L44.2828 88.9484C42.9312 87.5969 42.1875 85.8 42.1875 83.8891C42.1875 82.4719 42.6031 81.1 43.3891 79.9203L45.05 77.4281L42.45 75.6953L40.7891 78.1875C39.6594 79.8813 39.0625 81.8531 39.0625 83.8891C39.0625 86.6344 40.1313 89.2172 42.0734 91.1578L48.8953 97.9797C49.2 98.2844 49.6 98.4375 50 98.4375C50.4 98.4375 50.8 98.2844 51.1047 97.9797L57.9266 91.1578C59.8688 89.2172 60.9375 86.6344 60.9375 83.8891C60.9375 81.8531 60.3406 79.8813 59.2109 78.1875L57.55 75.6953Z" fill="url(#paint0_linear)"/>
<defs>
<linearGradient id="paint0_linear" x1="39.0625" y1="87.0664" x2="60.9375" y2="87.0664" gradientUnits="userSpaceOnUse">
<stop stop-color="#F2C31B"/>
<stop offset="1" stop-color="#F2691B"/>
</linearGradient>
</defs>
</svg>
