<svg width="100" height="100" viewBox="0 0 100 100" fill="none" xmlns="http://www.w3.org/2000/svg">
<path d="M84.375 20.3125H62.1516C62.3734 19.3859 62.5 18.4312 62.5 17.4547V15.625V13.7953C62.5 10.5281 61.2281 7.45625 58.9172 5.14531C56.6063 2.83438 53.5359 1.5625 50.2672 1.5625H49.7312C46.4641 1.5625 43.3922 2.83438 41.0812 5.14531C38.7703 7.45625 37.5 10.5266 37.5 13.7953V15.625V17.4547C37.5 18.4312 37.6266 19.3859 37.8484 20.3125H15.625C11.3172 20.3125 7.8125 23.8172 7.8125 28.125V71.875C7.8125 76.1828 11.3172 79.6875 15.625 79.6875H36.8531L37.7688 80.6031C39.6109 82.4453 40.625 84.8953 40.625 87.5C40.625 90.1047 39.6109 92.5547 37.7688 94.3969L36.8531 95.3125H21.875V98.4375H78.125V95.3125H63.1469L62.2312 94.3969C60.3891 92.5547 59.375 90.1047 59.375 87.5C59.375 84.8953 60.3891 82.4453 62.2312 80.6031L63.1469 79.6875H84.375C88.6828 79.6875 92.1875 76.1828 92.1875 71.875V28.125C92.1875 23.8172 88.6828 20.3125 84.375 20.3125ZM50 35.9375C53.4469 35.9375 56.25 33.1344 56.25 29.6875H59.1859C60.9063 29.6875 62.5234 30.3578 63.7391 31.5734C64.9547 32.7891 65.625 34.4078 65.625 36.1266V42.1875H34.375V36.1266C34.375 34.4062 35.0453 32.7891 36.2609 31.5734C37.4766 30.3578 39.0953 29.6875 40.8141 29.6875H43.75C43.75 33.1344 46.5531 35.9375 50 35.9375ZM53.125 29.6875C53.125 31.4109 51.7234 32.8125 50 32.8125C48.2766 32.8125 46.875 31.4109 46.875 29.6875V29.3391C47.8016 29.5609 48.7563 29.6875 49.7328 29.6875H50.2688C51.2453 29.6875 52.2 29.5609 53.1266 29.3391V29.6875H53.125ZM50.2672 26.5625H49.7312C47.2984 26.5625 45.0109 25.6156 43.2906 23.8953C41.5719 22.175 40.625 19.8891 40.625 17.4547V17.1875C43.1781 17.1875 45.4484 15.9562 46.875 14.0578C48.3016 15.9562 50.5719 17.1875 53.125 17.1875H59.375V17.4547C59.375 19.8875 58.4281 22.175 56.7078 23.8953C54.9875 25.6156 52.7016 26.5625 50.2672 26.5625ZM40.625 13.7953C40.625 11.3625 41.5719 9.075 43.2922 7.35469C45.0125 5.63437 47.2984 4.6875 49.7328 4.6875H50.2688C52.7016 4.6875 54.9891 5.63437 56.7094 7.35469C58.4281 9.075 59.375 11.3609 59.375 13.7953V14.0625H53.125C50.5406 14.0625 48.4375 11.9594 48.4375 9.375C48.4375 8.5125 47.7375 7.8125 46.875 7.8125C46.0125 7.8125 45.3125 8.5125 45.3125 9.375C45.3125 11.9594 43.2094 14.0625 40.625 14.0625V13.7953ZM15.625 23.4375H39.0672C39.6094 24.4016 40.2781 25.3016 41.0828 26.1047C41.2453 26.2672 41.4187 26.4109 41.5875 26.5625H40.8141C38.2594 26.5625 35.8578 27.5578 34.0516 29.3641C32.2453 31.1703 31.25 33.5719 31.25 36.1266V43.75C31.25 44.6125 31.95 45.3125 32.8125 45.3125H67.1875C68.05 45.3125 68.75 44.6125 68.75 43.75V36.1266C68.75 33.5719 67.7547 31.1703 65.9484 29.3641C64.1422 27.5578 61.7406 26.5625 59.1859 26.5625H58.4125C58.5812 26.4109 58.7547 26.2672 58.9172 26.1047C59.7203 25.3016 60.3891 24.4016 60.9328 23.4375H84.375C86.9594 23.4375 89.0625 25.5406 89.0625 28.125V64.0625H10.9375V28.125C10.9375 25.5406 13.0406 23.4375 15.625 23.4375ZM58.9047 95.3125H41.0953C42.8094 93.0781 43.75 90.3641 43.75 87.5C43.75 84.6359 42.8094 81.9219 41.0953 79.6875H58.9047C57.1906 81.9219 56.25 84.6359 56.25 87.5C56.25 90.3641 57.1906 93.0781 58.9047 95.3125ZM84.375 76.5625H15.625C13.0406 76.5625 10.9375 74.4594 10.9375 71.875V67.1875H89.0625V71.875C89.0625 74.4594 86.9594 76.5625 84.375 76.5625Z" fill="#19B2D6"/>
<path d="M82.8125 70.3125H85.9375V73.4375H82.8125V70.3125Z" fill="#19B2D6"/>
<path d="M15.625 60.9375H84.375C85.2375 60.9375 85.9375 60.2375 85.9375 59.375V50C85.9375 49.1375 85.2375 48.4375 84.375 48.4375H15.625C14.7625 48.4375 14.0625 49.1375 14.0625 50V59.375C14.0625 60.2375 14.7625 60.9375 15.625 60.9375ZM82.8125 57.8125H35.9375V51.5625H82.8125V57.8125ZM17.1875 51.5625H32.8125V57.8125H17.1875V51.5625Z" fill="#19B2D6"/>
<path d="M15.625 60.9375H84.375C85.2375 60.9375 85.9375 60.2375 85.9375 59.375V50C85.9375 49.1375 85.2375 48.4375 84.375 48.4375H15.625C14.7625 48.4375 14.0625 49.1375 14.0625 50V59.375C14.0625 60.2375 14.7625 60.9375 15.625 60.9375ZM82.8125 57.8125H35.9375V51.5625H82.8125V57.8125ZM17.1875 51.5625H32.8125V57.8125H17.1875V51.5625Z" fill="url(#paint0_linear)"/>
<defs>
<linearGradient id="paint0_linear" x1="14.0625" y1="54.6875" x2="85.9375" y2="54.6875" gradientUnits="userSpaceOnUse">
<stop stop-color="#F2C31B"/>
<stop offset="1" stop-color="#F2691B"/>
</linearGradient>
</defs>
</svg>
