<svg width="100" height="100" viewBox="0 0 100 100" fill="none" xmlns="http://www.w3.org/2000/svg">
<path d="M45.3125 20.3125H48.4375V23.4375H45.3125V20.3125Z" fill="#19B2D6"/>
<path d="M51.5625 20.3125H54.6875V23.4375H51.5625V20.3125Z" fill="#19B2D6"/>
<path d="M51.5625 20.3125H54.6875V23.4375H51.5625V20.3125Z" fill="url(#paint0_linear)"/>
<path d="M57.8125 20.3125H60.9375V23.4375H57.8125V20.3125Z" fill="#19B2D6"/>
<path d="M64.0625 20.3125H67.1875V23.4375H64.0625V20.3125Z" fill="#19B2D6"/>
<path d="M32.8125 26.5625H35.9375V29.6875H32.8125V26.5625Z" fill="#19B2D6"/>
<path d="M39.0625 26.5625H42.1875V29.6875H39.0625V26.5625Z" fill="#19B2D6"/>
<path d="M45.3125 26.5625H48.4375V29.6875H45.3125V26.5625Z" fill="#19B2D6"/>
<path d="M45.3125 26.5625H48.4375V29.6875H45.3125V26.5625Z" fill="url(#paint1_linear)"/>
<path d="M51.5625 26.5625H54.6875V29.6875H51.5625V26.5625Z" fill="#19B2D6"/>
<path d="M57.8125 26.5625H60.9375V29.6875H57.8125V26.5625Z" fill="#19B2D6"/>
<path d="M64.0625 26.5625H67.1875V29.6875H64.0625V26.5625Z" fill="#19B2D6"/>
<path d="M64.0625 26.5625H67.1875V29.6875H64.0625V26.5625Z" fill="url(#paint2_linear)"/>
<path d="M32.8125 32.8125H35.9375V35.9375H32.8125V32.8125Z" fill="#19B2D6"/>
<path d="M32.8125 32.8125H35.9375V35.9375H32.8125V32.8125Z" fill="url(#paint3_linear)"/>
<path d="M39.0625 32.8125H42.1875V35.9375H39.0625V32.8125Z" fill="#19B2D6"/>
<path d="M45.3125 32.8125H48.4375V35.9375H45.3125V32.8125Z" fill="#19B2D6"/>
<path d="M51.5625 32.8125H54.6875V35.9375H51.5625V32.8125Z" fill="#19B2D6"/>
<path d="M96.875 82.8125H92.1875V78.125C92.1875 77.2609 91.4891 76.5625 90.625 76.5625H79.6875V73.4375H89.0625C89.9266 73.4375 90.625 72.7391 90.625 71.875V62.5C90.625 61.6359 89.9266 60.9375 89.0625 60.9375H79.6875V54.6875C79.6875 53.8234 78.9891 53.125 78.125 53.125H62.5V50C62.5 49.1359 61.8016 48.4375 60.9375 48.4375H51.5625V42.1875H71.875C72.7391 42.1875 73.4375 41.4891 73.4375 40.625V6.25C73.4375 5.38594 72.7391 4.6875 71.875 4.6875H64.0625V1.5625H60.9375V4.6875H39.0625V1.5625H35.9375V4.6875H28.125C27.2609 4.6875 26.5625 5.38594 26.5625 6.25V40.625C26.5625 41.4891 27.2609 42.1875 28.125 42.1875H48.4375V48.4375H39.0625C38.1984 48.4375 37.5 49.1359 37.5 50V53.125H21.875C21.0109 53.125 20.3125 53.8234 20.3125 54.6875V60.9375H10.9375C10.0734 60.9375 9.375 61.6359 9.375 62.5V71.875C9.375 72.7391 10.0734 73.4375 10.9375 73.4375H20.3125V76.5625H9.375C8.51094 76.5625 7.8125 77.2609 7.8125 78.125V82.8125H3.125C2.26094 82.8125 1.5625 83.5109 1.5625 84.375V96.875C1.5625 97.7391 2.26094 98.4375 3.125 98.4375H15.625C16.4891 98.4375 17.1875 97.7391 17.1875 96.875V84.375C17.1875 83.5109 16.4891 82.8125 15.625 82.8125H10.9375V79.6875H32.8125V82.8125H28.125C27.2609 82.8125 26.5625 83.5109 26.5625 84.375V96.875C26.5625 97.7391 27.2609 98.4375 28.125 98.4375H40.625C41.4891 98.4375 42.1875 97.7391 42.1875 96.875V84.375C42.1875 83.5109 41.4891 82.8125 40.625 82.8125H35.9375V78.125C35.9375 77.2609 35.2391 76.5625 34.375 76.5625H23.4375V73.4375H32.8125C33.6766 73.4375 34.375 72.7391 34.375 71.875V62.5C34.375 61.6359 33.6766 60.9375 32.8125 60.9375H23.4375V56.25H37.5V59.375C37.5 60.2391 38.1984 60.9375 39.0625 60.9375H60.9375C61.8016 60.9375 62.5 60.2391 62.5 59.375V56.25H76.5625V60.9375H67.1875C66.3234 60.9375 65.625 61.6359 65.625 62.5V71.875C65.625 72.7391 66.3234 73.4375 67.1875 73.4375H76.5625V76.5625H65.625C64.7609 76.5625 64.0625 77.2609 64.0625 78.125V82.8125H59.375C58.5109 82.8125 57.8125 83.5109 57.8125 84.375V96.875C57.8125 97.7391 58.5109 98.4375 59.375 98.4375H71.875C72.7391 98.4375 73.4375 97.7391 73.4375 96.875V84.375C73.4375 83.5109 72.7391 82.8125 71.875 82.8125H67.1875V79.6875H89.0625V82.8125H84.375C83.5109 82.8125 82.8125 83.5109 82.8125 84.375V96.875C82.8125 97.7391 83.5109 98.4375 84.375 98.4375H96.875C97.7391 98.4375 98.4375 97.7391 98.4375 96.875V84.375C98.4375 83.5109 97.7391 82.8125 96.875 82.8125ZM35.9375 7.8125V10.9375H39.0625V7.8125H60.9375V10.9375H64.0625V7.8125H70.3125V14.0625H29.6875V7.8125H35.9375ZM29.6875 17.1875H70.3125V39.0625H29.6875V17.1875ZM14.0625 95.3125H4.6875V85.9375H14.0625V95.3125ZM39.0625 95.3125H29.6875V85.9375H39.0625V95.3125ZM31.25 70.3125H12.5V64.0625H31.25V70.3125ZM59.375 57.8125H40.625V51.5625H59.375V57.8125ZM68.75 64.0625H87.5V70.3125H68.75V64.0625ZM70.3125 95.3125H60.9375V85.9375H70.3125V95.3125ZM95.3125 95.3125H85.9375V85.9375H95.3125V95.3125Z" fill="#19B2D6"/>
<defs>
<linearGradient id="paint0_linear" x1="51.5625" y1="21.875" x2="54.6875" y2="21.875" gradientUnits="userSpaceOnUse">
<stop stop-color="#F2C31B"/>
<stop offset="1" stop-color="#F2691B"/>
</linearGradient>
<linearGradient id="paint1_linear" x1="45.3125" y1="28.125" x2="48.4375" y2="28.125" gradientUnits="userSpaceOnUse">
<stop stop-color="#F2C31B"/>
<stop offset="1" stop-color="#F2691B"/>
</linearGradient>
<linearGradient id="paint2_linear" x1="64.0625" y1="28.125" x2="67.1875" y2="28.125" gradientUnits="userSpaceOnUse">
<stop stop-color="#F2C31B"/>
<stop offset="1" stop-color="#F2691B"/>
</linearGradient>
<linearGradient id="paint3_linear" x1="32.8125" y1="34.375" x2="35.9375" y2="34.375" gradientUnits="userSpaceOnUse">
<stop stop-color="#F2C31B"/>
<stop offset="1" stop-color="#F2691B"/>
</linearGradient>
</defs>
</svg>
