<svg width="100" height="100" viewBox="0 0 100 100" fill="none" xmlns="http://www.w3.org/2000/svg">
<path d="M51.5625 60.7156C54.25 60.0172 56.25 57.5922 56.25 54.6875C56.25 51.2406 53.4469 48.4375 50 48.4375C48.2766 48.4375 46.875 47.0359 46.875 45.3125C46.875 43.5891 48.2766 42.1875 50 42.1875C51.7234 42.1875 53.125 43.5891 53.125 45.3125H56.25C56.25 42.4078 54.25 39.9828 51.5625 39.2844V35.9375H48.4375V39.2844C45.75 39.9828 43.75 42.4078 43.75 45.3125C43.75 48.7594 46.5531 51.5625 50 51.5625C51.7234 51.5625 53.125 52.9641 53.125 54.6875C53.125 56.4109 51.7234 57.8125 50 57.8125C48.2766 57.8125 46.875 56.4109 46.875 54.6875H43.75C43.75 57.5922 45.75 60.0172 48.4375 60.7156V64.0625H51.5625V60.7156Z" fill="#19B2D6"/>
<path d="M51.5625 60.7156C54.25 60.0172 56.25 57.5922 56.25 54.6875C56.25 51.2406 53.4469 48.4375 50 48.4375C48.2766 48.4375 46.875 47.0359 46.875 45.3125C46.875 43.5891 48.2766 42.1875 50 42.1875C51.7234 42.1875 53.125 43.5891 53.125 45.3125H56.25C56.25 42.4078 54.25 39.9828 51.5625 39.2844V35.9375H48.4375V39.2844C45.75 39.9828 43.75 42.4078 43.75 45.3125C43.75 48.7594 46.5531 51.5625 50 51.5625C51.7234 51.5625 53.125 52.9641 53.125 54.6875C53.125 56.4109 51.7234 57.8125 50 57.8125C48.2766 57.8125 46.875 56.4109 46.875 54.6875H43.75C43.75 57.5922 45.75 60.0172 48.4375 60.7156V64.0625H51.5625V60.7156Z" fill="url(#paint0_linear)"/>
<path d="M50 29.6875C38.8 29.6875 29.6875 38.8 29.6875 50H32.8125C32.8125 40.5234 40.5234 32.8125 50 32.8125V29.6875Z" fill="#19B2D6"/>
<path d="M67.1875 50C67.1875 59.4766 59.4766 67.1875 50 67.1875V70.3125C61.2 70.3125 70.3125 61.2 70.3125 50H67.1875Z" fill="#19B2D6"/>
<path d="M33.75 12.7563C28.8516 14.8954 24.4781 17.9407 20.7516 21.8063L23 23.9767C26.4422 20.4079 30.4797 17.5954 35.0016 15.6188L33.75 12.7563Z" fill="#19B2D6"/>
<path d="M40.2515 10.5532C39.1515 10.8235 38.0578 11.1423 36.9984 11.5001L38.0015 14.461C38.9765 14.1314 39.9859 13.8376 40.9984 13.586L40.2515 10.5532Z" fill="#19B2D6"/>
<path d="M46.7532 9.50317C45.686 9.58755 44.5922 9.7188 43.5032 9.89224L43.9969 12.9782C45.0032 12.8157 46.0125 12.6954 46.9969 12.6204L46.7532 9.50317Z" fill="#19B2D6"/>
<path d="M50 4.6875C62.1047 4.6875 73.4828 9.40156 82.0406 17.9594C82.6266 18.5453 83.6641 18.5453 84.25 17.9594L87.5 14.7094V26.5625H75.6469L78.7266 23.4828C79.3375 22.8719 79.3375 21.8844 78.7266 21.2734C71.0531 13.6 60.8516 9.375 50 9.375V12.5C59.4938 12.5 68.45 16.0047 75.3891 22.4016L70.7703 27.0203C70.3234 27.4672 70.1891 28.1391 70.4313 28.7234C70.6734 29.3078 71.2438 29.6875 71.875 29.6875H89.0625C89.925 29.6875 90.625 28.9891 90.625 28.125V10.9375C90.625 10.3062 90.2438 9.73438 89.6609 9.49375C89.0734 9.24844 88.4047 9.38438 87.9578 9.83281L83.1281 14.6625C74.1203 6.20312 62.4172 1.5625 50 1.5625C23.2922 1.5625 1.5625 23.2906 1.5625 50H4.6875C4.6875 25.0156 25.0141 4.6875 50 4.6875Z" fill="#19B2D6"/>
<path d="M79.25 78.1937L77.0016 76.0234C73.5594 79.5922 69.5219 82.4047 65 84.3813L66.2516 87.2437C71.15 85.1047 75.5219 82.0594 79.25 78.1937Z" fill="#19B2D6"/>
<path d="M59.7485 89.4469C60.8485 89.1766 61.9422 88.8578 63.0016 88.5L61.9985 85.5391C61.0235 85.8688 60.0141 86.1625 59.0016 86.4141L59.7485 89.4469Z" fill="#19B2D6"/>
<path d="M53.2469 90.497C54.3141 90.4126 55.4079 90.2813 56.4969 90.1079L56.0032 87.022C54.9969 87.1845 53.9875 87.3048 53.0032 87.3798L53.2469 90.497Z" fill="#19B2D6"/>
<path d="M95.3125 50C95.3125 74.9844 74.9859 95.3125 50 95.3125C37.8953 95.3125 26.5172 90.5984 17.9594 82.0406C17.3734 81.4547 16.3359 81.4547 15.75 82.0406L12.5 85.2906V73.4375H24.3531L21.2734 76.5172C20.6625 77.1281 20.6625 78.1156 21.2734 78.7266C28.9469 86.4 39.1484 90.625 50 90.625V87.5C40.5063 87.5 31.55 83.9953 24.6109 77.5984L29.2297 72.9797C29.6766 72.5328 29.8109 71.8609 29.5688 71.2766C29.3266 70.6922 28.7563 70.3125 28.125 70.3125H10.9375C10.075 70.3125 9.375 71.0109 9.375 71.875V89.0625C9.375 89.6937 9.75625 90.2656 10.3391 90.5062C10.9234 90.75 11.5953 90.6141 12.0422 90.1672L16.8719 85.3375C25.8797 93.7969 37.5828 98.4375 50 98.4375C76.7078 98.4375 98.4375 76.7094 98.4375 50H95.3125Z" fill="#19B2D6"/>
<path d="M76.5625 50C76.5625 35.3531 64.6469 23.4375 50 23.4375C35.3531 23.4375 23.4375 35.3531 23.4375 50C23.4375 64.6469 35.3531 76.5625 50 76.5625C64.6469 76.5625 76.5625 64.6469 76.5625 50ZM50 73.4375C37.0766 73.4375 26.5625 62.9234 26.5625 50C26.5625 37.0766 37.0766 26.5625 50 26.5625C62.9234 26.5625 73.4375 37.0766 73.4375 50C73.4375 62.9234 62.9234 73.4375 50 73.4375Z" fill="#19B2D6"/>
<defs>
<linearGradient id="paint0_linear" x1="43.75" y1="50" x2="56.25" y2="50" gradientUnits="userSpaceOnUse">
<stop stop-color="#F2C31B"/>
<stop offset="1" stop-color="#F2691B"/>
</linearGradient>
</defs>
</svg>
