<svg width="100" height="100" viewBox="0 0 100 100" fill="none" xmlns="http://www.w3.org/2000/svg">
<path d="M96.875 23.4375H9.375C8.5125 23.4375 7.8125 24.1359 7.8125 25V32.8125H6.25C3.66562 32.8125 1.5625 34.9156 1.5625 37.5C1.5625 40.0844 3.66562 42.1875 6.25 42.1875H7.8125V48.4375H6.25C3.66562 48.4375 1.5625 50.5406 1.5625 53.125C1.5625 55.7094 3.66562 57.8125 6.25 57.8125H7.8125V64.0625H6.25C3.66562 64.0625 1.5625 66.1656 1.5625 68.75C1.5625 71.3344 3.66562 73.4375 6.25 73.4375H7.8125V79.6875H6.25C3.66562 79.6875 1.5625 81.7906 1.5625 84.375C1.5625 86.9594 3.66562 89.0625 6.25 89.0625H7.8125V96.875C7.8125 97.7391 8.5125 98.4375 9.375 98.4375H96.875C97.7375 98.4375 98.4375 97.7391 98.4375 96.875V25C98.4375 24.1359 97.7375 23.4375 96.875 23.4375ZM4.6875 37.5C4.6875 36.6375 5.38906 35.9375 6.25 35.9375H12.5C13.3609 35.9375 14.0625 36.6375 14.0625 37.5C14.0625 38.3625 13.3609 39.0625 12.5 39.0625H6.25C5.38906 39.0625 4.6875 38.3625 4.6875 37.5ZM4.6875 53.125C4.6875 52.2625 5.38906 51.5625 6.25 51.5625H12.5C13.3609 51.5625 14.0625 52.2625 14.0625 53.125C14.0625 53.9875 13.3609 54.6875 12.5 54.6875H6.25C5.38906 54.6875 4.6875 53.9875 4.6875 53.125ZM4.6875 68.75C4.6875 67.8875 5.38906 67.1875 6.25 67.1875H12.5C13.3609 67.1875 14.0625 67.8875 14.0625 68.75C14.0625 69.6125 13.3609 70.3125 12.5 70.3125H6.25C5.38906 70.3125 4.6875 69.6125 4.6875 68.75ZM4.6875 84.375C4.6875 83.5125 5.38906 82.8125 6.25 82.8125H12.5C13.3609 82.8125 14.0625 83.5125 14.0625 84.375C14.0625 85.2375 13.3609 85.9375 12.5 85.9375H6.25C5.38906 85.9375 4.6875 85.2375 4.6875 84.375ZM10.9375 89.0625H12.5C15.0844 89.0625 17.1875 86.9594 17.1875 84.375C17.1875 81.7906 15.0844 79.6875 12.5 79.6875H10.9375V73.4375H12.5C15.0844 73.4375 17.1875 71.3344 17.1875 68.75C17.1875 66.1656 15.0844 64.0625 12.5 64.0625H10.9375V57.8125H12.5C15.0844 57.8125 17.1875 55.7094 17.1875 53.125C17.1875 50.5406 15.0844 48.4375 12.5 48.4375H10.9375V42.1875H12.5C15.0844 42.1875 17.1875 40.0844 17.1875 37.5C17.1875 34.9156 15.0844 32.8125 12.5 32.8125H10.9375V26.5625H20.3125V95.3125H10.9375V89.0625ZM95.3125 95.3125H23.4375V26.5625H95.3125V95.3125Z" fill="#19B2D6"/>
<path d="M43.45 53C45.1 53 46.475 53.55 47.575 54.65C48.6917 55.75 49.25 57.1167 49.25 58.75C49.25 60.3667 48.6917 61.7333 47.575 62.85C46.475 63.95 45.1 64.5 43.45 64.5H39.875V70.5H37V53H43.45ZM43.45 61.8C44.3 61.8 45 61.5167 45.55 60.95C46.1 60.3667 46.375 59.6333 46.375 58.75C46.375 57.8667 46.1 57.1417 45.55 56.575C45 55.9917 44.3 55.7 43.45 55.7H39.875V61.8H43.45Z" fill="#19B2D6"/>
<path d="M43.45 53C45.1 53 46.475 53.55 47.575 54.65C48.6917 55.75 49.25 57.1167 49.25 58.75C49.25 60.3667 48.6917 61.7333 47.575 62.85C46.475 63.95 45.1 64.5 43.45 64.5H39.875V70.5H37V53H43.45ZM43.45 61.8C44.3 61.8 45 61.5167 45.55 60.95C46.1 60.3667 46.375 59.6333 46.375 58.75C46.375 57.8667 46.1 57.1417 45.55 56.575C45 55.9917 44.3 55.7 43.45 55.7H39.875V61.8H43.45Z" fill="url(#paint0_linear)"/>
<path d="M58.6211 53C61.0211 53 63.0128 53.8417 64.5961 55.525C66.1961 57.2083 66.9961 59.2833 66.9961 61.75C66.9961 64.2 66.1961 66.275 64.5961 67.975C63.0128 69.6583 61.0211 70.5 58.6211 70.5H51.7461V53H58.6211ZM58.6211 67.75C60.2711 67.75 61.6128 67.1833 62.6461 66.05C63.6961 64.9167 64.2211 63.4833 64.2211 61.75C64.2211 60 63.6961 58.5667 62.6461 57.45C61.6128 56.3167 60.2711 55.75 58.6211 55.75H54.6211V67.75H58.6211Z" fill="#19B2D6"/>
<path d="M58.6211 53C61.0211 53 63.0128 53.8417 64.5961 55.525C66.1961 57.2083 66.9961 59.2833 66.9961 61.75C66.9961 64.2 66.1961 66.275 64.5961 67.975C63.0128 69.6583 61.0211 70.5 58.6211 70.5H51.7461V53H58.6211ZM58.6211 67.75C60.2711 67.75 61.6128 67.1833 62.6461 66.05C63.6961 64.9167 64.2211 63.4833 64.2211 61.75C64.2211 60 63.6961 58.5667 62.6461 57.45C61.6128 56.3167 60.2711 55.75 58.6211 55.75H54.6211V67.75H58.6211Z" fill="url(#paint1_linear)"/>
<path d="M79.8672 55.75H72.4922V60.65H79.6172V63.4H72.4922V70.5H69.6172V53H79.8672V55.75Z" fill="#19B2D6"/>
<path d="M79.8672 55.75H72.4922V60.65H79.6172V63.4H72.4922V70.5H69.6172V53H79.8672V55.75Z" fill="url(#paint2_linear)"/>
<path d="M9.375 17.1875H12.5H81.25C82.8984 17.1875 92.1453 13.1859 97.5094 10.8031C98.0828 10.5484 98.4484 9.97344 98.4375 9.34531C98.425 8.71719 98.0391 8.15625 97.4563 7.92344L81.8313 1.67344L81.8281 1.67969C81.6484 1.60781 81.4547 1.5625 81.25 1.5625H12.5H9.375C5.06719 1.5625 1.5625 5.06719 1.5625 9.375C1.5625 13.6828 5.06719 17.1875 9.375 17.1875ZM14.0625 14.0625V10.9375H79.6875V14.0625H14.0625ZM82.8125 5.43281L85.9375 6.68281V12.3484C84.7 12.85 83.6297 13.2703 82.8125 13.5688V5.43281ZM89.0625 11.0547V7.93281L92.8359 9.44219C91.5453 10.0016 90.2719 10.5453 89.0625 11.0547ZM79.6875 7.8125H14.0625V4.6875H79.6875V7.8125ZM9.375 4.6875H10.9375V14.0625H9.375C6.79063 14.0625 4.6875 11.9594 4.6875 9.375C4.6875 6.79063 6.79063 4.6875 9.375 4.6875Z" fill="#19B2D6"/>
<defs>
<linearGradient id="paint0_linear" x1="37" y1="61.75" x2="79.8672" y2="61.75" gradientUnits="userSpaceOnUse">
<stop stop-color="#F2C31B"/>
<stop offset="1" stop-color="#F2691B"/>
</linearGradient>
<linearGradient id="paint1_linear" x1="37" y1="61.75" x2="79.8672" y2="61.75" gradientUnits="userSpaceOnUse">
<stop stop-color="#F2C31B"/>
<stop offset="1" stop-color="#F2691B"/>
</linearGradient>
<linearGradient id="paint2_linear" x1="37" y1="61.75" x2="79.8672" y2="61.75" gradientUnits="userSpaceOnUse">
<stop stop-color="#F2C31B"/>
<stop offset="1" stop-color="#F2691B"/>
</linearGradient>
</defs>
</svg>
