<svg width="100" height="100" viewBox="0 0 100 100" fill="none" xmlns="http://www.w3.org/2000/svg">
<path d="M54.6875 31.5375V28.125H51.5625V31.25H50V28.125H46.875V31.25H43.75V34.375H45.3125V43.75H43.75V46.875H46.875V50H50V46.875H51.5625V50H54.6875V46.5875C56.5016 45.9406 57.8125 44.2219 57.8125 42.1875C57.8125 40.9828 57.3422 39.8938 56.5938 39.0625C57.3438 38.2312 57.8125 37.1422 57.8125 35.9375C57.8125 33.9031 56.5016 32.1844 54.6875 31.5375ZM53.125 34.375C53.9859 34.375 54.6875 35.0766 54.6875 35.9375C54.6875 36.7984 53.9859 37.5 53.125 37.5H48.4375V34.375H53.125ZM53.125 43.75H48.4375V40.625H53.125C53.9859 40.625 54.6875 41.3266 54.6875 42.1875C54.6875 43.0484 53.9859 43.75 53.125 43.75Z" fill="#19B2D6"/>
<path d="M65.625 39.0625C65.625 30.4469 58.6156 23.4375 50 23.4375C41.3844 23.4375 34.375 30.4469 34.375 39.0625C34.375 47.6781 41.3844 54.6875 50 54.6875C58.6156 54.6875 65.625 47.6781 65.625 39.0625ZM50 51.5625C43.1078 51.5625 37.5 45.9547 37.5 39.0625C37.5 32.1703 43.1078 26.5625 50 26.5625C56.8922 26.5625 62.5 32.1703 62.5 39.0625C62.5 45.9547 56.8922 51.5625 50 51.5625Z" fill="#19B2D6"/>
<path d="M87.5 31.5375V28.125H84.375V31.25H82.8125V28.125H79.6875V31.25H76.5625V34.375H78.125V43.75H76.5625V46.875H79.6875V50H82.8125V46.875H84.375V50H87.5V46.5875C89.3141 45.9406 90.625 44.2219 90.625 42.1875C90.625 40.9828 90.1547 39.8938 89.4063 39.0625C90.1563 38.2312 90.625 37.1422 90.625 35.9375C90.625 33.9031 89.3141 32.1844 87.5 31.5375ZM85.9375 34.375C86.7984 34.375 87.5 35.0766 87.5 35.9375C87.5 36.7984 86.7984 37.5 85.9375 37.5H81.25V34.375H85.9375ZM85.9375 43.75H81.25V40.625H85.9375C86.7984 40.625 87.5 41.3266 87.5 42.1875C87.5 43.0484 86.7984 43.75 85.9375 43.75Z" fill="#19B2D6"/>
<path d="M98.4375 39.0625C98.4375 30.4469 91.4281 23.4375 82.8125 23.4375C74.1969 23.4375 67.1875 30.4469 67.1875 39.0625C67.1875 47.6781 74.1969 54.6875 82.8125 54.6875C91.4281 54.6875 98.4375 47.6781 98.4375 39.0625ZM82.8125 51.5625C75.9203 51.5625 70.3125 45.9547 70.3125 39.0625C70.3125 32.1703 75.9203 26.5625 82.8125 26.5625C89.7047 26.5625 95.3125 32.1703 95.3125 39.0625C95.3125 45.9547 89.7047 51.5625 82.8125 51.5625Z" fill="#19B2D6"/>
<path d="M21.875 31.5375V28.125H18.75V31.25H17.1875V28.125H14.0625V31.25H10.9375V34.375H12.5V43.75H10.9375V46.875H14.0625V50H17.1875V46.875H18.75V50H21.875V46.5875C23.6891 45.9406 25 44.2219 25 42.1875C25 40.9828 24.5297 39.8938 23.7812 39.0625C24.5312 38.2312 25 37.1422 25 35.9375C25 33.9031 23.6891 32.1844 21.875 31.5375ZM20.3125 34.375C21.1734 34.375 21.875 35.0766 21.875 35.9375C21.875 36.7984 21.1734 37.5 20.3125 37.5H15.625V34.375H20.3125ZM20.3125 43.75H15.625V40.625H20.3125C21.1734 40.625 21.875 41.3266 21.875 42.1875C21.875 43.0484 21.1734 43.75 20.3125 43.75Z" fill="#19B2D6"/>
<path d="M32.8125 39.0625C32.8125 30.4469 25.8031 23.4375 17.1875 23.4375C8.57188 23.4375 1.5625 30.4469 1.5625 39.0625C1.5625 47.6781 8.57188 54.6875 17.1875 54.6875C25.8031 54.6875 32.8125 47.6781 32.8125 39.0625ZM17.1875 51.5625C10.2953 51.5625 4.6875 45.9547 4.6875 39.0625C4.6875 32.1703 10.2953 26.5625 17.1875 26.5625C24.0797 26.5625 29.6875 32.1703 29.6875 39.0625C29.6875 45.9547 24.0797 51.5625 17.1875 51.5625Z" fill="#19B2D6"/>
<path d="M34.375 56.25V62.5V68.75V75C34.375 75.8625 35.075 76.5625 35.9375 76.5625H64.0625C64.925 76.5625 65.625 75.8625 65.625 75V68.75V62.5V56.25C65.625 55.3875 64.925 54.6875 64.0625 54.6875H50H35.9375C35.075 54.6875 34.375 55.3875 34.375 56.25ZM62.5 67.1875H37.5V64.0625H62.5V67.1875ZM62.5 73.4375H37.5V70.3125H62.5V73.4375ZM37.5 57.8125H62.5V60.9375H37.5V57.8125Z" fill="#19B2D6"/>
<path d="M34.375 56.25V62.5V68.75V75C34.375 75.8625 35.075 76.5625 35.9375 76.5625H64.0625C64.925 76.5625 65.625 75.8625 65.625 75V68.75V62.5V56.25C65.625 55.3875 64.925 54.6875 64.0625 54.6875H50H35.9375C35.075 54.6875 34.375 55.3875 34.375 56.25ZM62.5 67.1875H37.5V64.0625H62.5V67.1875ZM62.5 73.4375H37.5V70.3125H62.5V73.4375ZM37.5 57.8125H62.5V60.9375H37.5V57.8125Z" fill="url(#paint0_linear)"/>
<path d="M96.875 54.6875H82.8125H68.75C67.8875 54.6875 67.1875 55.3875 67.1875 56.25V62.5V68.75V75C67.1875 75.8625 67.8875 76.5625 68.75 76.5625H96.875C97.7375 76.5625 98.4375 75.8625 98.4375 75V68.75V62.5V56.25C98.4375 55.3875 97.7375 54.6875 96.875 54.6875ZM70.3125 64.0625H95.3125V67.1875H70.3125V64.0625ZM70.3125 57.8125H95.3125V60.9375H70.3125V57.8125ZM95.3125 73.4375H70.3125V70.3125H95.3125V73.4375Z" fill="#19B2D6"/>
<path d="M1.5625 56.25V62.5V68.75V75C1.5625 75.8625 2.2625 76.5625 3.125 76.5625H31.25C32.1125 76.5625 32.8125 75.8625 32.8125 75V68.75V62.5V56.25C32.8125 55.3875 32.1125 54.6875 31.25 54.6875H17.1875H3.125C2.2625 54.6875 1.5625 55.3875 1.5625 56.25ZM29.6875 67.1875H4.6875V64.0625H29.6875V67.1875ZM29.6875 73.4375H4.6875V70.3125H29.6875V73.4375ZM4.6875 57.8125H29.6875V60.9375H4.6875V57.8125Z" fill="#19B2D6"/>
<defs>
<linearGradient id="paint0_linear" x1="34.375" y1="65.625" x2="65.625" y2="65.625" gradientUnits="userSpaceOnUse">
<stop stop-color="#F2C31B"/>
<stop offset="1" stop-color="#F2691B"/>
</linearGradient>
</defs>
</svg>
